<svg width="411" height="620" viewBox="0 0 411 620" fill="none" xmlns="http://www.w3.org/2000/svg">
<path fill-rule="evenodd" clip-rule="evenodd" d="M10.1464 66.9581C10.4673 70.626 7.42368 73.8884 3.34825 74.245C2.36967 74.3306 1.42058 74.2409 0.538804 74.0043L14.526 233.878L263.575 212.089L249.587 52.2154C248.76 52.6015 247.841 52.8546 246.863 52.9403C242.787 53.2968 239.223 50.6125 238.902 46.9446L231.523 47.5902C231.844 51.258 228.8 54.5205 224.725 54.8771C220.649 55.2336 217.086 52.5492 216.765 48.8814L209.385 49.527C209.706 53.1948 206.663 56.4573 202.587 56.8139C198.512 57.1704 194.948 54.486 194.627 50.8182L187.248 51.4638C187.569 55.1316 184.525 58.3941 180.45 58.7506C176.374 59.1072 172.81 56.4228 172.489 52.7549L165.11 53.4005C165.431 57.0684 162.387 60.3309 158.312 60.6874C154.236 61.044 150.673 58.3596 150.352 54.6917L142.972 55.3373C143.293 59.0052 140.25 62.2677 136.174 62.6242C132.099 62.9808 128.535 60.2964 128.214 56.6285L120.835 57.2741C121.156 60.942 118.112 64.2045 114.037 64.561C109.961 64.9176 106.397 62.2332 106.076 58.5653L98.6971 59.2109C99.018 62.8788 95.9743 66.1413 91.8989 66.4978C87.8235 66.8544 84.2595 64.17 83.9386 60.5021L76.5594 61.1477C76.8803 64.8156 73.8367 68.0781 69.7612 68.4346C65.6858 68.7912 62.1219 66.1068 61.801 62.4389L54.4218 63.0845C54.7427 66.7524 51.699 70.0149 47.6236 70.3714C43.5481 70.728 39.9842 68.0436 39.6633 64.3757L32.2841 65.0213C32.605 68.6892 29.5613 71.9517 25.4859 72.3082C21.4105 72.6648 17.8466 69.9804 17.5257 66.3125L10.1464 66.9581C10.1464 66.9581 10.1464 66.9581 10.1464 66.9581Z" fill="url(#paint0_linear_2002_192)"/>
<path fill-rule="evenodd" clip-rule="evenodd" d="M263.575 212.089L14.526 233.878L42.944 558.698C43.7665 558.257 44.6829 557.973 45.6615 557.888C49.7369 557.531 53.3468 560.74 53.7243 565.055L61.1035 564.41C60.726 560.095 63.7238 556.308 67.7992 555.951C71.8746 555.594 75.4845 558.804 75.862 563.119L83.2412 562.473C82.8637 558.158 85.8614 554.371 89.9368 554.014C94.0123 553.658 97.6221 556.867 97.9996 561.182L105.379 560.536C105.001 556.221 107.999 552.434 112.075 552.077C116.15 551.721 119.76 554.93 120.137 559.245L127.517 558.6C127.139 554.284 130.137 550.497 134.212 550.141C138.288 549.784 141.897 552.993 142.275 557.308L149.654 556.663C149.277 552.348 152.274 548.56 156.35 548.204C160.425 547.847 164.035 551.056 164.413 555.372L171.792 554.726C171.414 550.411 174.412 546.624 178.488 546.267C182.563 545.91 186.173 549.12 186.55 553.435L193.93 552.789C193.552 548.474 196.55 544.687 200.625 544.33C204.701 543.974 208.31 547.183 208.688 551.498L216.067 550.852C215.69 546.537 218.687 542.75 222.763 542.393C226.838 542.037 230.448 545.246 230.826 549.561L238.205 548.916C237.827 544.6 240.825 540.813 244.9 540.457C248.976 540.1 252.586 543.309 252.963 547.624L260.342 546.979C259.965 542.664 262.963 538.876 267.038 538.52C271.114 538.163 274.723 541.372 275.101 545.688L282.48 545.042C282.103 540.727 285.1 536.94 289.176 536.583C290.154 536.497 291.106 536.617 291.993 536.909L263.575 212.089Z" fill="url(#paint1_linear_2002_192)"/>
<rect x="16.6476" y="226.257" width="7.40741" height="7.40741" transform="rotate(-5 16.6476 226.257)" fill="#51D91A"/>
<rect x="134.715" y="215.927" width="7.40741" height="7.40741" transform="rotate(-5 134.715 215.927)" fill="#51D91A"/>
<rect x="75.6813" y="221.092" width="7.40741" height="7.40741" transform="rotate(-5 75.6813 221.092)" fill="#51D91A"/>
<rect x="193.749" y="210.763" width="7.40741" height="7.40741" transform="rotate(-5 193.749 210.763)" fill="#51D91A"/>
<rect x="46.1644" y="223.675" width="7.40741" height="7.40741" transform="rotate(-5 46.1644 223.675)" fill="#51D91A"/>
<rect x="164.232" y="213.345" width="7.40741" height="7.40741" transform="rotate(-5 164.232 213.345)" fill="#51D91A"/>
<rect x="105.198" y="218.51" width="7.40741" height="7.40741" transform="rotate(-5 105.198 218.51)" fill="#51D91A"/>
<rect x="223.266" y="208.18" width="7.40741" height="7.40741" transform="rotate(-5 223.266 208.18)" fill="#51D91A"/>
<rect x="31.406" y="224.966" width="7.40741" height="7.40741" transform="rotate(-5 31.406 224.966)" fill="#51D91A"/>
<rect x="149.474" y="214.636" width="7.40741" height="7.40741" transform="rotate(-5 149.474 214.636)" fill="#51D91A"/>
<rect x="90.4398" y="219.801" width="7.40741" height="7.40741" transform="rotate(-5 90.4398 219.801)" fill="#51D91A"/>
<rect x="208.507" y="209.471" width="7.40741" height="7.40741" transform="rotate(-5 208.507 209.471)" fill="#51D91A"/>
<rect x="60.9229" y="222.383" width="7.40741" height="7.40741" transform="rotate(-5 60.9229 222.383)" fill="#51D91A"/>
<rect x="178.99" y="212.054" width="7.40741" height="7.40741" transform="rotate(-5 178.99 212.054)" fill="#51D91A"/>
<rect x="119.957" y="217.219" width="7.40741" height="7.40741" transform="rotate(-5 119.957 217.219)" fill="#51D91A"/>
<rect x="238.024" y="206.889" width="7.40741" height="7.40741" transform="rotate(-5 238.024 206.889)" fill="#51D91A"/>
<rect x="252.783" y="205.598" width="7.40741" height="7.40741" transform="rotate(-5 252.783 205.598)" fill="#51D91A"/>
<path opacity="0.7" d="M160.234 465.114L98.5102 274.863L143.247 270.949C142.14 271.046 154.11 400.433 160.234 465.114Z" fill="url(#paint2_linear_2002_192)"/>
<path opacity="0.7" d="M160.725 465.072L188.474 266.992L143.737 270.906C144.844 270.809 155.523 400.309 160.725 465.072Z" fill="url(#paint3_linear_2002_192)"/>
<path d="M141.137 241.522L156.879 265.288L157.269 265.878L157.975 265.909L188.351 267.245L168.393 288.291L167.85 288.863L168.063 289.622L175.58 316.376L147.362 305.812L146.741 305.579L146.17 305.916L120.215 321.22L122.972 293.567L123.05 292.782L122.417 292.313L99.1068 275.053L128.789 268.462L129.479 268.309L129.761 267.661L141.137 241.522Z" fill="#FEF15F" stroke="white" stroke-width="2.77778"/>
<path opacity="0.7" d="M160.857 466.919L146.815 306.421L118.549 323.3L160.857 466.919Z" fill="url(#paint4_linear_2002_192)"/>
<path opacity="0.7" d="M160.395 466.959L146.354 306.461L177.121 318.176L160.395 466.959Z" fill="url(#paint5_linear_2002_192)"/>
<path d="M162.32 484.915L169.349 495.37L183.07 495.945L174.001 505.355L177.375 517.227L164.741 512.587L153.106 519.35L154.367 507.073L143.802 499.38L157.214 496.432L162.32 484.915Z" fill="#FEF15F"/>
<path d="M213.272 480.458L220.3 490.913L234.021 491.487L224.952 500.897L228.326 512.769L215.693 508.13L204.058 514.892L205.319 502.615L194.754 494.923L208.166 491.974L213.272 480.458Z" fill="#FEF15F"/>
<path d="M111.588 489.354L118.617 499.809L132.337 500.383L123.269 509.793L126.642 521.665L114.009 517.026L102.374 523.788L103.635 511.511L93.0697 503.819L106.482 500.87L111.588 489.354Z" fill="#FEF15F"/>
<g filter="url(#filter0_d_2002_192)">
<path d="M89.1524 136.755L91.9695 168.956L83.2276 169.72L81.1148 145.57L80.9261 145.587L74.251 150.417L73.6017 142.996L81.1023 137.46L89.1524 136.755ZM112.683 168.031C109.757 168.276 107.172 167.821 104.927 166.665C102.682 165.51 100.872 163.72 99.498 161.294C98.124 158.869 97.2877 155.89 96.9892 152.356C96.6897 148.813 97.003 145.754 97.9291 143.18C98.8657 140.606 100.336 138.581 102.341 137.107C104.356 135.631 106.826 134.766 109.75 134.51C112.674 134.254 115.257 134.683 117.499 135.796C119.74 136.899 121.545 138.637 122.914 141.01C124.283 143.383 125.117 146.336 125.416 149.869C125.727 153.423 125.416 156.513 124.484 159.14C123.552 161.767 122.081 163.844 120.071 165.372C118.07 166.889 115.607 167.775 112.683 168.031ZM112.061 160.924C113.57 160.792 114.738 159.898 115.565 158.241C116.401 156.573 116.666 154.046 116.36 150.662C116.166 148.45 115.788 146.661 115.225 145.295C114.662 143.929 113.963 142.945 113.129 142.342C112.293 141.728 111.372 141.465 110.366 141.554C108.857 141.686 107.692 142.558 106.872 144.172C106.052 145.786 105.777 148.25 106.045 151.564C106.232 153.819 106.609 155.655 107.177 157.074C107.744 158.482 108.445 159.498 109.282 160.121C110.128 160.745 111.055 161.012 112.061 160.924ZM145.024 165.201C142.099 165.446 139.514 164.991 137.269 163.836C135.023 162.68 133.214 160.89 131.84 158.465C130.466 156.04 129.629 153.06 129.331 149.527C129.031 145.983 129.345 142.924 130.271 140.351C131.207 137.776 132.678 135.752 134.683 134.277C136.698 132.802 139.167 131.936 142.092 131.68C145.016 131.424 147.599 131.853 149.841 132.967C152.081 134.07 153.886 135.808 155.256 138.181C156.625 140.554 157.459 143.507 157.758 147.04C158.069 150.593 157.758 153.683 156.826 156.31C155.894 158.937 154.423 161.015 152.412 162.543C150.411 164.059 147.949 164.945 145.024 165.201ZM144.403 158.094C145.912 157.962 147.08 157.068 147.907 155.411C148.743 153.743 149.008 151.217 148.701 147.832C148.508 145.621 148.13 143.832 147.566 142.466C147.003 141.1 146.305 140.115 145.47 139.512C144.635 138.899 143.714 138.636 142.708 138.724C141.199 138.856 140.034 139.729 139.214 141.343C138.394 142.957 138.118 145.421 138.387 148.735C138.574 150.989 138.951 152.826 139.519 154.244C140.086 155.652 140.787 156.668 141.623 157.292C142.47 157.915 143.396 158.182 144.403 158.094ZM177.366 162.372C174.441 162.617 171.856 162.162 169.61 161.006C167.365 159.851 165.556 158.06 164.182 155.635C162.807 153.21 161.971 150.231 161.673 146.697C161.373 143.154 161.686 140.095 162.613 137.521C163.549 134.947 165.02 132.922 167.024 131.448C169.039 129.972 171.509 129.106 174.433 128.851C177.358 128.595 179.941 129.024 182.182 130.137C184.423 131.24 186.228 132.978 187.597 135.351C188.967 137.724 189.801 140.677 190.099 144.21C190.41 147.764 190.1 150.854 189.168 153.481C188.236 156.108 186.765 158.185 184.754 159.713C182.753 161.23 180.291 162.116 177.366 162.372ZM176.744 155.265C178.254 155.133 179.422 154.238 180.249 152.582C181.085 150.914 181.35 148.387 181.043 145.003C180.85 142.791 180.471 141.002 179.908 139.636C179.345 138.27 178.646 137.286 177.812 136.683C176.977 136.069 176.056 135.806 175.05 135.894C173.54 136.026 172.376 136.899 171.556 138.513C170.736 140.127 170.46 142.591 170.729 145.905C170.916 148.16 171.293 149.996 171.861 151.415C172.427 152.823 173.129 153.838 173.965 154.462C174.812 155.085 175.738 155.353 176.744 155.265Z" fill="white"/>
</g>
<path fill-rule="evenodd" clip-rule="evenodd" d="M171.724 46.9446C171.403 50.6124 167.839 53.2968 163.764 52.9403C162.785 52.8546 161.866 52.6015 161.039 52.2154L147.052 212.089L396.101 233.878L410.088 74.0044C409.206 74.2409 408.257 74.3306 407.278 74.245C403.203 73.8884 400.159 70.626 400.48 66.9581L393.101 66.3125C392.78 69.9804 389.216 72.6648 385.141 72.3082C381.065 71.9517 378.022 68.6892 378.342 65.0213L370.963 64.3757C370.642 68.0436 367.078 70.728 363.003 70.3714C358.928 70.0149 355.884 66.7524 356.205 63.0845L348.826 62.4389C348.505 66.1068 344.941 68.7912 340.865 68.4346C336.79 68.0781 333.746 64.8156 334.067 61.1477L326.688 60.5021C326.367 64.17 322.803 66.8544 318.728 66.4978C314.652 66.1413 311.609 62.8788 311.929 59.2109L304.55 58.5653C304.229 62.2332 300.665 64.9176 296.59 64.561C292.515 64.2045 289.471 60.942 289.792 57.2741L282.413 56.6285C282.092 60.2964 278.528 62.9808 274.452 62.6242C270.377 62.2677 267.333 59.0052 267.654 55.3373L260.275 54.6917C259.954 58.3596 256.39 61.044 252.315 60.6874C248.239 60.3309 245.196 57.0684 245.517 53.4005L238.137 52.7549C237.816 56.4228 234.252 59.1072 230.177 58.7506C226.102 58.3941 223.058 55.1316 223.379 51.4637L216 50.8182C215.679 54.486 212.115 57.1704 208.039 56.8138C203.964 56.4573 200.92 53.1948 201.241 49.527L193.862 48.8814C193.541 52.5492 189.977 55.2336 185.902 54.8771C181.826 54.5205 178.783 51.258 179.104 47.5902L171.724 46.9446C171.724 46.9446 171.724 46.9446 171.724 46.9446Z" fill="url(#paint6_linear_2002_192)"/>
<path fill-rule="evenodd" clip-rule="evenodd" d="M396.101 233.878L147.052 212.089L118.634 536.909C119.52 536.617 120.472 536.497 121.451 536.583C125.526 536.94 128.524 540.727 128.146 545.042L135.526 545.688C135.903 541.372 139.513 538.163 143.588 538.52C147.664 538.876 150.662 542.664 150.284 546.979L157.663 547.624C158.041 543.309 161.651 540.1 165.726 540.457C169.802 540.813 172.799 544.6 172.422 548.916L179.801 549.561C180.179 545.246 183.788 542.037 187.864 542.393C191.939 542.75 194.937 546.537 194.559 550.852L201.939 551.498C202.316 547.183 205.926 543.974 210.001 544.33C214.077 544.687 217.075 548.474 216.697 552.789L224.076 553.435C224.454 549.12 228.064 545.91 232.139 546.267C236.215 546.624 239.212 550.411 238.835 554.726L246.214 555.372C246.591 551.056 250.201 547.847 254.277 548.204C258.352 548.56 261.35 552.348 260.972 556.663L268.352 557.308C268.729 552.993 272.339 549.784 276.414 550.141C280.49 550.497 283.488 554.284 283.11 558.6L290.489 559.245C290.867 554.93 294.477 551.721 298.552 552.077C302.627 552.434 305.625 556.221 305.248 560.536L312.627 561.182C313.004 556.867 316.614 553.658 320.69 554.014C324.765 554.371 327.763 558.158 327.385 562.473L334.765 563.119C335.142 558.804 338.752 555.594 342.827 555.951C346.903 556.308 349.901 560.095 349.523 564.41L356.902 565.055C357.28 560.74 360.89 557.531 364.965 557.888C365.944 557.973 366.86 558.257 367.683 558.698L396.101 233.878Z" fill="url(#paint7_linear_2002_192)"/>
<rect x="150.465" y="204.952" width="7.40741" height="7.40741" transform="rotate(5 150.465 204.952)" fill="#51D91A"/>
<rect x="268.532" y="215.282" width="7.40741" height="7.40741" transform="rotate(5 268.532 215.282)" fill="#51D91A"/>
<rect x="209.499" y="210.117" width="7.40741" height="7.40741" transform="rotate(5 209.499 210.117)" fill="#51D91A"/>
<rect x="327.566" y="220.447" width="7.40741" height="7.40741" transform="rotate(5 327.566 220.447)" fill="#51D91A"/>
<rect x="179.982" y="207.535" width="7.40741" height="7.40741" transform="rotate(5 179.982 207.535)" fill="#51D91A"/>
<rect x="298.049" y="217.864" width="7.40741" height="7.40741" transform="rotate(5 298.049 217.864)" fill="#51D91A"/>
<rect x="239.015" y="212.699" width="7.40741" height="7.40741" transform="rotate(5 239.015 212.699)" fill="#51D91A"/>
<rect x="357.083" y="223.029" width="7.40741" height="7.40741" transform="rotate(5 357.083 223.029)" fill="#51D91A"/>
<rect x="165.223" y="206.243" width="7.40741" height="7.40741" transform="rotate(5 165.223 206.243)" fill="#51D91A"/>
<rect x="283.291" y="216.573" width="7.40741" height="7.40741" transform="rotate(5 283.291 216.573)" fill="#51D91A"/>
<rect x="224.257" y="211.408" width="7.40741" height="7.40741" transform="rotate(5 224.257 211.408)" fill="#51D91A"/>
<rect x="342.324" y="221.738" width="7.40741" height="7.40741" transform="rotate(5 342.324 221.738)" fill="#51D91A"/>
<rect x="194.74" y="208.826" width="7.40741" height="7.40741" transform="rotate(5 194.74 208.826)" fill="#51D91A"/>
<rect x="312.808" y="219.155" width="7.40741" height="7.40741" transform="rotate(5 312.808 219.155)" fill="#51D91A"/>
<rect x="253.774" y="213.991" width="7.40741" height="7.40741" transform="rotate(5 253.774 213.991)" fill="#51D91A"/>
<rect x="371.841" y="224.32" width="7.40741" height="7.40741" transform="rotate(5 371.841 224.32)" fill="#51D91A"/>
<rect x="386.6" y="225.611" width="7.40741" height="7.40741" transform="rotate(5 386.6 225.611)" fill="#51D91A"/>
<path opacity="0.7" d="M250.393 465.114L222.643 267.035L267.38 270.949C266.273 270.852 255.594 400.352 250.393 465.114Z" fill="url(#paint8_linear_2002_192)"/>
<path opacity="0.7" d="M250.883 465.157L312.607 274.906L267.87 270.992C268.977 271.088 257.007 400.476 250.883 465.157Z" fill="url(#paint9_linear_2002_192)"/>
<path d="M270.412 241.603L281.788 267.741L282.07 268.39L282.76 268.543L312.442 275.133L289.132 292.394L288.499 292.863L288.577 293.648L291.334 321.3L265.379 305.997L264.808 305.66L264.187 305.893L235.969 316.457L243.486 289.703L243.699 288.944L243.156 288.371L223.198 267.325L253.574 265.989L254.28 265.958L254.67 265.369L270.412 241.603Z" fill="#FEF15F" stroke="white" stroke-width="2.77778"/>
<path opacity="0.7" d="M250.692 467L264.734 306.502L233.966 318.216L250.692 467Z" fill="url(#paint10_linear_2002_192)"/>
<path opacity="0.7" d="M250.231 466.959L264.273 306.461L292.539 323.341L250.231 466.959Z" fill="url(#paint11_linear_2002_192)"/>
<path d="M249.009 484.977L254.115 496.493L267.528 499.442L256.962 507.134L258.224 519.411L246.588 512.649L233.955 517.288L237.329 505.416L228.26 496.006L241.981 495.432L249.009 484.977Z" fill="#FEF15F"/>
<path d="M299.961 489.435L305.067 500.951L318.479 503.9L307.914 511.592L309.175 523.869L297.54 517.107L284.907 521.746L288.28 509.874L279.212 500.464L292.932 499.889L299.961 489.435Z" fill="#FEF15F"/>
<path d="M198.277 480.538L203.383 492.055L216.795 495.003L206.23 502.696L207.491 514.973L195.856 508.21L183.223 512.85L186.596 500.978L177.528 491.568L191.248 490.993L198.277 480.538Z" fill="#FEF15F"/>
<g filter="url(#filter1_d_2002_192)">
<path d="M237.41 129.401L234.593 161.601L225.851 160.836L227.964 136.686L227.775 136.669L220.363 140.267L221.012 132.846L229.36 128.696L237.41 129.401ZM255.152 164.287C252.228 164.02 249.761 163.123 247.751 161.596C245.74 160.068 244.269 157.99 243.337 155.363C242.405 152.736 242.099 149.657 242.418 146.126C242.739 142.584 243.579 139.626 244.938 137.252C246.307 134.879 248.107 133.141 250.337 132.037C252.577 130.934 255.16 130.51 258.084 130.766C261.009 131.022 263.478 131.893 265.492 133.379C267.507 134.854 268.983 136.879 269.92 139.454C270.856 142.028 271.165 145.081 270.845 148.613C270.534 152.166 269.692 155.155 268.318 157.581C266.944 160.006 265.134 161.796 262.889 162.952C260.655 164.098 258.076 164.543 255.152 164.287ZM255.774 157.18C257.283 157.312 258.589 156.634 259.69 155.146C260.804 153.649 261.503 151.207 261.789 147.82C261.982 145.609 261.92 143.781 261.603 142.338C261.286 140.895 260.769 139.804 260.052 139.066C259.336 138.316 258.474 137.898 257.468 137.81C255.959 137.678 254.66 138.335 253.573 139.782C252.485 141.229 251.786 143.608 251.475 146.918C251.267 149.171 251.32 151.045 251.632 152.54C251.946 154.025 252.461 155.148 253.176 155.907C253.901 156.668 254.767 157.092 255.774 157.18ZM287.493 167.116C284.57 166.85 282.103 165.953 280.093 164.425C278.082 162.897 276.611 160.82 275.679 158.193C274.747 155.566 274.441 152.487 274.76 148.955C275.081 145.413 275.92 142.455 277.279 140.082C278.649 137.709 280.448 135.97 282.679 134.866C284.919 133.763 287.502 133.34 290.426 133.595C293.351 133.851 295.82 134.722 297.834 136.208C299.849 137.683 301.325 139.708 302.261 142.283C303.198 144.858 303.506 147.911 303.187 151.442C302.876 154.996 302.034 157.985 300.66 160.41C299.286 162.835 297.476 164.626 295.231 165.781C292.997 166.927 290.418 167.372 287.493 167.116ZM288.115 160.01C289.625 160.142 290.93 159.464 292.032 157.976C293.145 156.478 293.845 154.036 294.131 150.65C294.324 148.438 294.262 146.611 293.945 145.168C293.628 143.725 293.11 142.634 292.393 141.895C291.677 141.146 290.816 140.727 289.81 140.639C288.301 140.507 287.002 141.165 285.914 142.611C284.827 144.058 284.127 146.437 283.817 149.747C283.609 152 283.661 153.874 283.974 155.37C284.288 156.855 284.802 157.977 285.517 158.737C286.243 159.497 287.109 159.922 288.115 160.01ZM319.835 169.946C316.912 169.68 314.445 168.782 312.434 167.255C310.424 165.727 308.953 163.649 308.021 161.022C307.089 158.395 306.782 155.316 307.102 151.785C307.422 148.243 308.262 145.285 309.621 142.911C310.99 140.538 312.79 138.8 315.02 137.696C317.261 136.593 319.843 136.169 322.768 136.425C325.692 136.681 328.162 137.552 330.176 139.038C332.191 140.513 333.667 142.538 334.603 145.113C335.54 147.687 335.848 150.74 335.529 154.272C335.218 157.825 334.375 160.814 333.001 163.24C331.627 165.665 329.818 167.455 327.573 168.611C325.339 169.757 322.76 170.202 319.835 169.946ZM320.457 162.839C321.966 162.971 323.272 162.293 324.374 160.805C325.487 159.308 326.187 156.866 326.472 153.479C326.666 151.268 326.604 149.44 326.287 147.997C325.969 146.554 325.452 145.463 324.735 144.725C324.019 143.975 323.158 143.557 322.152 143.469C320.642 143.337 319.344 143.994 318.256 145.441C317.168 146.888 316.469 149.267 316.158 152.577C315.951 154.83 316.003 156.704 316.316 158.199C316.63 159.684 317.144 160.807 317.859 161.566C318.585 162.327 319.451 162.751 320.457 162.839Z" fill="white"/>
</g>
<g filter="url(#filter2_d_2002_192)">
<path fill-rule="evenodd" clip-rule="evenodd" d="M81.3133 36C81.3133 39.9765 77.7315 43.2 73.3133 43.2C72.2524 43.2 71.2397 43.0142 70.3133 42.6766V216H340.313V42.6766C339.387 43.0142 338.374 43.2 337.313 43.2C332.895 43.2 329.313 39.9765 329.313 36H321.313C321.313 39.9765 317.732 43.2 313.313 43.2C308.895 43.2 305.313 39.9765 305.313 36H297.313C297.313 39.9765 293.732 43.2 289.313 43.2C284.895 43.2 281.313 39.9765 281.313 36H273.313C273.313 39.9765 269.732 43.2 265.313 43.2C260.895 43.2 257.313 39.9765 257.313 36H249.313C249.313 39.9765 245.732 43.2 241.313 43.2C236.895 43.2 233.313 39.9765 233.313 36H225.313C225.313 39.9765 221.732 43.2 217.313 43.2C212.895 43.2 209.313 39.9765 209.313 36H201.313C201.313 39.9765 197.732 43.2 193.313 43.2C188.895 43.2 185.313 39.9765 185.313 36H177.313C177.313 39.9765 173.732 43.2 169.313 43.2C164.895 43.2 161.313 39.9765 161.313 36H153.313C153.313 39.9765 149.732 43.2 145.313 43.2C140.895 43.2 137.313 39.9765 137.313 36H129.313C129.313 39.9765 125.732 43.2 121.313 43.2C116.895 43.2 113.313 39.9765 113.313 36H105.313C105.313 39.9765 101.732 43.2 97.3133 43.2C92.895 43.2 89.3133 39.9765 89.3133 36L81.3133 36C81.3133 36 81.3133 36 81.3133 36Z" fill="url(#paint12_linear_2002_192)"/>
<path fill-rule="evenodd" clip-rule="evenodd" d="M340.313 216H70.3133V568.145C71.2397 567.748 72.2524 567.529 73.3133 567.529C77.7315 567.529 81.3133 571.322 81.3133 576H89.3133C89.3133 571.322 92.895 567.529 97.3133 567.529C101.732 567.529 105.313 571.322 105.313 576H113.313C113.313 571.322 116.895 567.529 121.313 567.529C125.732 567.529 129.313 571.322 129.313 576H137.313C137.313 571.322 140.895 567.529 145.313 567.529C149.732 567.529 153.313 571.322 153.313 576H161.313C161.313 571.322 164.895 567.529 169.313 567.529C173.732 567.529 177.313 571.322 177.313 576H185.313C185.313 571.322 188.895 567.529 193.313 567.529C197.732 567.529 201.313 571.322 201.313 576H209.313C209.313 571.322 212.895 567.529 217.313 567.529C221.732 567.529 225.313 571.322 225.313 576H233.313C233.313 571.322 236.895 567.529 241.313 567.529C245.732 567.529 249.313 571.322 249.313 576H257.313C257.313 571.322 260.895 567.529 265.313 567.529C269.732 567.529 273.313 571.322 273.313 576H281.313C281.313 571.322 284.895 567.529 289.313 567.529C293.732 567.529 297.313 571.322 297.313 576H305.313C305.313 571.322 308.895 567.529 313.313 567.529C317.732 567.529 321.313 571.322 321.313 576H329.313C329.313 571.322 332.895 567.529 337.313 567.529C338.374 567.529 339.387 567.748 340.313 568.145V216Z" fill="url(#paint13_linear_2002_192)"/>
<rect x="73.3133" y="208" width="8" height="8" fill="#51D91A"/>
<rect x="201.313" y="208" width="8" height="8" fill="#51D91A"/>
<rect x="137.313" y="208" width="8" height="8" fill="#51D91A"/>
<rect x="265.313" y="208" width="8" height="8" fill="#51D91A"/>
<rect x="105.313" y="208" width="8" height="8" fill="#51D91A"/>
<rect x="233.313" y="208" width="8" height="8" fill="#51D91A"/>
<rect x="169.313" y="208" width="8" height="8" fill="#51D91A"/>
<rect x="297.313" y="208" width="8" height="8" fill="#51D91A"/>
<rect x="89.3133" y="208" width="8" height="8" fill="#51D91A"/>
<rect x="217.313" y="208" width="8" height="8" fill="#51D91A"/>
<rect x="153.313" y="208" width="8" height="8" fill="#51D91A"/>
<rect x="281.313" y="208" width="8" height="8" fill="#51D91A"/>
<rect x="121.313" y="208" width="8" height="8" fill="#51D91A"/>
<rect x="249.313" y="208" width="8" height="8" fill="#51D91A"/>
<rect x="185.313" y="208" width="8" height="8" fill="#51D91A"/>
<rect x="313.313" y="208" width="8" height="8" fill="#51D91A"/>
<rect x="329.313" y="208" width="8" height="8" fill="#51D91A"/>
<path opacity="0.7" d="M205.313 478.5L156.813 268H205.313C204.113 268 204.813 408.333 205.313 478.5Z" fill="url(#paint14_linear_2002_192)"/>
<path opacity="0.7" d="M205.845 478.5L254.345 268H205.845C207.045 268 206.345 408.333 205.845 478.5Z" fill="url(#paint15_linear_2002_192)"/>
<path d="M205.813 236.142L220.512 263.193L220.877 263.864L221.634 263.964L254.189 268.26L230.735 289.025L230.098 289.59L230.256 290.427L235.825 319.918L206.46 305.896L205.813 305.588L205.167 305.896L175.802 319.918L181.371 290.427L181.529 289.59L180.891 289.025L157.437 268.26L189.992 263.964L190.749 263.864L191.114 263.193L205.813 236.142Z" fill="#FEF15F" stroke="white" stroke-width="3"/>
<path opacity="0.7" d="M205.813 480.5V306.5L173.813 322L205.813 480.5Z" fill="url(#paint16_linear_2002_192)"/>
<path opacity="0.7" d="M205.313 480.5V306.5L237.313 322L205.313 480.5Z" fill="url(#paint17_linear_2002_192)"/>
<g filter="url(#filter3_d_2002_192)">
<path d="M120.427 449.909H128.211V469.852C128.202 471.746 127.723 473.413 126.776 474.852C125.839 476.282 124.541 477.4 122.884 478.205C121.237 479 119.338 479.398 117.188 479.398C115.323 479.398 113.618 479.076 112.075 478.432C110.531 477.778 109.3 476.756 108.381 475.364C107.463 473.962 107.008 472.144 107.018 469.909H114.916C114.944 470.638 115.067 471.254 115.285 471.756C115.512 472.258 115.825 472.636 116.222 472.892C116.63 473.138 117.122 473.261 117.7 473.261C118.287 473.261 118.779 473.134 119.177 472.878C119.584 472.622 119.892 472.243 120.1 471.741C120.309 471.23 120.417 470.6 120.427 469.852V449.909ZM139.511 479H130.988L140.59 449.909H151.386L160.988 479H152.465L146.102 457.92H145.874L139.511 479ZM137.92 467.523H153.943V473.432H137.92V467.523ZM189.582 460.818H181.57C181.514 460.155 181.362 459.554 181.116 459.014C180.879 458.474 180.548 458.01 180.122 457.622C179.705 457.224 179.198 456.921 178.602 456.713C178.005 456.495 177.328 456.386 176.57 456.386C175.245 456.386 174.122 456.708 173.204 457.352C172.295 457.996 171.604 458.92 171.13 460.122C170.666 461.325 170.434 462.769 170.434 464.455C170.434 466.235 170.671 467.726 171.144 468.929C171.627 470.122 172.323 471.022 173.232 471.628C174.141 472.224 175.235 472.523 176.514 472.523C177.243 472.523 177.896 472.433 178.474 472.253C179.051 472.063 179.553 471.794 179.979 471.443C180.406 471.093 180.751 470.671 181.016 470.179C181.291 469.677 181.476 469.114 181.57 468.489L189.582 468.545C189.487 469.777 189.141 471.031 188.545 472.31C187.948 473.579 187.101 474.753 186.002 475.832C184.913 476.902 183.564 477.764 181.954 478.418C180.344 479.071 178.474 479.398 176.343 479.398C173.673 479.398 171.277 478.825 169.156 477.679C167.044 476.533 165.372 474.848 164.141 472.622C162.92 470.397 162.309 467.674 162.309 464.455C162.309 461.216 162.934 458.489 164.184 456.273C165.434 454.047 167.12 452.366 169.241 451.23C171.362 450.084 173.729 449.511 176.343 449.511C178.18 449.511 179.871 449.762 181.414 450.264C182.958 450.766 184.312 451.5 185.477 452.466C186.641 453.422 187.579 454.601 188.289 456.003C188.999 457.404 189.43 459.009 189.582 460.818ZM193.165 479V449.909H201.063V461.67H201.46L210.21 449.909H219.415L209.585 462.864L219.642 479H210.21L203.676 468.091L201.063 471.5V479H193.165ZM221.759 479V449.909H234.315C236.474 449.909 238.364 450.335 239.983 451.188C241.602 452.04 242.862 453.238 243.761 454.781C244.661 456.325 245.111 458.129 245.111 460.193C245.111 462.277 244.647 464.08 243.719 465.605C242.8 467.13 241.508 468.304 239.841 469.128C238.184 469.952 236.247 470.364 234.031 470.364H226.531V464.227H232.44C233.368 464.227 234.159 464.066 234.813 463.744C235.475 463.413 235.982 462.944 236.332 462.338C236.692 461.732 236.872 461.017 236.872 460.193C236.872 459.36 236.692 458.65 236.332 458.062C235.982 457.466 235.475 457.011 234.813 456.699C234.159 456.377 233.368 456.216 232.44 456.216H229.656V479H221.759ZM276.19 464.455C276.19 467.693 275.561 470.425 274.301 472.651C273.042 474.866 271.342 476.547 269.202 477.693C267.062 478.83 264.675 479.398 262.043 479.398C259.391 479.398 256.995 478.825 254.855 477.679C252.724 476.524 251.029 474.838 249.77 472.622C248.52 470.397 247.895 467.674 247.895 464.455C247.895 461.216 248.52 458.489 249.77 456.273C251.029 454.047 252.724 452.366 254.855 451.23C256.995 450.084 259.391 449.511 262.043 449.511C264.675 449.511 267.062 450.084 269.202 451.23C271.342 452.366 273.042 454.047 274.301 456.273C275.561 458.489 276.19 461.216 276.19 464.455ZM268.065 464.455C268.065 462.712 267.833 461.244 267.369 460.051C266.915 458.848 266.238 457.939 265.338 457.324C264.448 456.699 263.349 456.386 262.043 456.386C260.736 456.386 259.633 456.699 258.733 457.324C257.843 457.939 257.166 458.848 256.702 460.051C256.247 461.244 256.02 462.712 256.02 464.455C256.02 466.197 256.247 467.67 256.702 468.872C257.166 470.065 257.843 470.974 258.733 471.599C259.633 472.215 260.736 472.523 262.043 472.523C263.349 472.523 264.448 472.215 265.338 471.599C266.238 470.974 266.915 470.065 267.369 468.872C267.833 467.67 268.065 466.197 268.065 464.455ZM277.682 456.273V449.909H302.966V456.273H294.216V479H286.432V456.273H277.682Z" fill="white"/>
</g>
<g filter="url(#filter4_d_2002_192)">
<path d="M145.154 406.182H135.541C135.472 405.386 135.291 404.665 134.995 404.017C134.711 403.369 134.313 402.812 133.802 402.347C133.302 401.869 132.694 401.506 131.978 401.256C131.262 400.994 130.45 400.864 129.541 400.864C127.95 400.864 126.603 401.25 125.501 402.023C124.41 402.795 123.58 403.903 123.012 405.347C122.455 406.79 122.177 408.523 122.177 410.545C122.177 412.682 122.461 414.472 123.029 415.915C123.609 417.347 124.444 418.426 125.535 419.153C126.626 419.869 127.938 420.227 129.472 420.227C130.347 420.227 131.131 420.119 131.825 419.903C132.518 419.676 133.12 419.352 133.631 418.932C134.143 418.511 134.558 418.006 134.876 417.415C135.205 416.812 135.427 416.136 135.541 415.386L145.154 415.455C145.041 416.932 144.626 418.437 143.91 419.972C143.194 421.494 142.177 422.903 140.859 424.199C139.552 425.483 137.933 426.517 136.001 427.301C134.069 428.085 131.825 428.477 129.268 428.477C126.063 428.477 123.188 427.79 120.643 426.415C118.109 425.04 116.103 423.017 114.626 420.347C113.16 417.676 112.427 414.409 112.427 410.545C112.427 406.659 113.177 403.386 114.677 400.727C116.177 398.057 118.2 396.04 120.745 394.676C123.291 393.301 126.131 392.614 129.268 392.614C131.472 392.614 133.501 392.915 135.353 393.517C137.205 394.119 138.83 395 140.228 396.159C141.626 397.307 142.751 398.722 143.603 400.403C144.455 402.085 144.972 404.011 145.154 406.182ZM183.272 410.545C183.272 414.432 182.516 417.71 181.005 420.381C179.494 423.04 177.454 425.057 174.886 426.432C172.318 427.795 169.454 428.477 166.295 428.477C163.113 428.477 160.238 427.79 157.67 426.415C155.113 425.028 153.079 423.006 151.568 420.347C150.068 417.676 149.318 414.409 149.318 410.545C149.318 406.659 150.068 403.386 151.568 400.727C153.079 398.057 155.113 396.04 157.67 394.676C160.238 393.301 163.113 392.614 166.295 392.614C169.454 392.614 172.318 393.301 174.886 394.676C177.454 396.04 179.494 398.057 181.005 400.727C182.516 403.386 183.272 406.659 183.272 410.545ZM173.522 410.545C173.522 408.455 173.244 406.693 172.687 405.261C172.141 403.818 171.329 402.727 170.249 401.989C169.181 401.239 167.863 400.864 166.295 400.864C164.727 400.864 163.403 401.239 162.323 401.989C161.255 402.727 160.443 403.818 159.886 405.261C159.34 406.693 159.068 408.455 159.068 410.545C159.068 412.636 159.34 414.403 159.886 415.847C160.443 417.278 161.255 418.369 162.323 419.119C163.403 419.858 164.727 420.227 166.295 420.227C167.863 420.227 169.181 419.858 170.249 419.119C171.329 418.369 172.141 417.278 172.687 415.847C173.244 414.403 173.522 412.636 173.522 410.545ZM206.475 404C206.384 402.864 205.958 401.977 205.197 401.341C204.447 400.705 203.305 400.386 201.771 400.386C200.793 400.386 199.992 400.506 199.367 400.744C198.754 400.972 198.299 401.284 198.004 401.682C197.708 402.08 197.555 402.534 197.543 403.045C197.521 403.466 197.595 403.847 197.765 404.188C197.947 404.517 198.231 404.818 198.617 405.091C199.004 405.352 199.498 405.591 200.1 405.807C200.702 406.023 201.418 406.216 202.248 406.386L205.112 407C207.043 407.409 208.697 407.949 210.072 408.619C211.447 409.29 212.572 410.08 213.447 410.989C214.322 411.886 214.964 412.898 215.373 414.023C215.793 415.148 216.009 416.375 216.021 417.705C216.009 420 215.435 421.943 214.299 423.534C213.163 425.125 211.538 426.335 209.424 427.165C207.322 427.994 204.793 428.409 201.839 428.409C198.805 428.409 196.157 427.96 193.896 427.062C191.646 426.165 189.896 424.784 188.646 422.92C187.407 421.045 186.782 418.648 186.771 415.727H195.771C195.827 416.795 196.095 417.693 196.572 418.42C197.049 419.148 197.72 419.699 198.583 420.074C199.458 420.449 200.498 420.636 201.702 420.636C202.714 420.636 203.56 420.511 204.242 420.261C204.924 420.011 205.441 419.665 205.793 419.222C206.146 418.778 206.327 418.273 206.339 417.705C206.327 417.17 206.151 416.705 205.81 416.307C205.481 415.898 204.935 415.534 204.174 415.216C203.413 414.886 202.384 414.58 201.089 414.295L197.612 413.545C194.521 412.875 192.083 411.756 190.299 410.188C188.526 408.608 187.646 406.455 187.657 403.727C187.646 401.511 188.237 399.574 189.43 397.915C190.634 396.244 192.299 394.943 194.424 394.011C196.56 393.08 199.009 392.614 201.771 392.614C204.589 392.614 207.026 393.085 209.083 394.028C211.14 394.972 212.725 396.301 213.839 398.017C214.964 399.722 215.532 401.716 215.543 404H206.475ZM219.626 393.091H231.421L239.535 412.864H239.944L248.058 393.091H259.853V428H250.58V407.818H250.308L242.535 427.727H236.944L229.171 407.682H228.898V428H219.626V393.091ZM298.163 410.545C298.163 414.432 297.407 417.71 295.896 420.381C294.384 423.04 292.345 425.057 289.776 426.432C287.208 427.795 284.345 428.477 281.185 428.477C278.004 428.477 275.129 427.79 272.56 426.415C270.004 425.028 267.97 423.006 266.458 420.347C264.958 417.676 264.208 414.409 264.208 410.545C264.208 406.659 264.958 403.386 266.458 400.727C267.97 398.057 270.004 396.04 272.56 394.676C275.129 393.301 278.004 392.614 281.185 392.614C284.345 392.614 287.208 393.301 289.776 394.676C292.345 396.04 294.384 398.057 295.896 400.727C297.407 403.386 298.163 406.659 298.163 410.545ZM288.413 410.545C288.413 408.455 288.134 406.693 287.577 405.261C287.032 403.818 286.22 402.727 285.14 401.989C284.072 401.239 282.754 400.864 281.185 400.864C279.617 400.864 278.293 401.239 277.214 401.989C276.146 402.727 275.333 403.818 274.776 405.261C274.231 406.693 273.958 408.455 273.958 410.545C273.958 412.636 274.231 414.403 274.776 415.847C275.333 417.278 276.146 418.369 277.214 419.119C278.293 419.858 279.617 420.227 281.185 420.227C282.754 420.227 284.072 419.858 285.14 419.119C286.22 418.369 287.032 417.278 287.577 415.847C288.134 414.403 288.413 412.636 288.413 410.545Z" fill="white"/>
</g>
<path d="M205.813 500L212.426 511.91L227.212 513.82L216.513 523.09L219.038 536.18L205.813 530L192.588 536.18L195.114 523.09L184.414 513.82L199.201 511.91L205.813 500Z" fill="#FEF15F"/>
<path d="M260.813 500L267.426 511.91L282.212 513.82L271.513 523.09L274.038 536.18L260.813 530L247.588 536.18L250.114 523.09L239.414 513.82L254.201 511.91L260.813 500Z" fill="#FEF15F"/>
<path d="M150.813 500L157.426 511.91L172.212 513.82L161.513 523.09L164.038 536.18L150.813 530L137.588 536.18L140.114 523.09L129.414 513.82L144.201 511.91L150.813 500Z" fill="#FEF15F"/>
<g filter="url(#filter5_d_2002_192)">
<path d="M159.745 118.091V153H150.268V126.818H150.063L142.427 131.386V123.341L151.018 118.091H159.745ZM182.117 153.955C178.947 153.943 176.208 153.21 173.901 151.756C171.595 150.301 169.816 148.205 168.566 145.466C167.316 142.727 166.697 139.443 166.708 135.614C166.72 131.773 167.345 128.511 168.583 125.83C169.833 123.148 171.606 121.108 173.901 119.71C176.208 118.312 178.947 117.614 182.117 117.614C185.288 117.614 188.026 118.318 190.333 119.727C192.64 121.125 194.418 123.165 195.668 125.847C196.918 128.528 197.538 131.784 197.526 135.614C197.526 139.466 196.901 142.761 195.651 145.5C194.401 148.239 192.623 150.335 190.316 151.79C188.021 153.233 185.288 153.955 182.117 153.955ZM182.117 146.25C183.754 146.25 185.095 145.398 186.14 143.693C187.197 141.977 187.72 139.284 187.708 135.614C187.708 133.216 187.47 131.256 186.992 129.733C186.515 128.21 185.856 127.085 185.015 126.358C184.174 125.619 183.208 125.25 182.117 125.25C180.481 125.25 179.146 126.08 178.112 127.739C177.077 129.398 176.549 132.023 176.526 135.614C176.515 138.057 176.748 140.068 177.225 141.648C177.702 143.216 178.362 144.375 179.202 145.125C180.055 145.875 181.026 146.25 182.117 146.25ZM217.18 153.955C214.009 153.943 211.271 153.21 208.964 151.756C206.657 150.301 204.879 148.205 203.629 145.466C202.379 142.727 201.759 139.443 201.771 135.614C201.782 131.773 202.407 128.511 203.646 125.83C204.896 123.148 206.668 121.108 208.964 119.71C211.271 118.312 214.009 117.614 217.18 117.614C220.35 117.614 223.089 118.318 225.396 119.727C227.702 121.125 229.481 123.165 230.731 125.847C231.981 128.528 232.6 131.784 232.589 135.614C232.589 139.466 231.964 142.761 230.714 145.5C229.464 148.239 227.685 150.335 225.379 151.79C223.083 153.233 220.35 153.955 217.18 153.955ZM217.18 146.25C218.816 146.25 220.157 145.398 221.202 143.693C222.259 141.977 222.782 139.284 222.771 135.614C222.771 133.216 222.532 131.256 222.055 129.733C221.577 128.21 220.918 127.085 220.077 126.358C219.237 125.619 218.271 125.25 217.18 125.25C215.543 125.25 214.208 126.08 213.174 127.739C212.14 129.398 211.612 132.023 211.589 135.614C211.577 138.057 211.81 140.068 212.288 141.648C212.765 143.216 213.424 144.375 214.265 145.125C215.117 145.875 216.089 146.25 217.18 146.25ZM252.242 153.955C249.072 153.943 246.333 153.21 244.026 151.756C241.72 150.301 239.941 148.205 238.691 145.466C237.441 142.727 236.822 139.443 236.833 135.614C236.845 131.773 237.47 128.511 238.708 125.83C239.958 123.148 241.731 121.108 244.026 119.71C246.333 118.312 249.072 117.614 252.242 117.614C255.413 117.614 258.151 118.318 260.458 119.727C262.765 121.125 264.543 123.165 265.793 125.847C267.043 128.528 267.663 131.784 267.651 135.614C267.651 139.466 267.026 142.761 265.776 145.5C264.526 148.239 262.748 150.335 260.441 151.79C258.146 153.233 255.413 153.955 252.242 153.955ZM252.242 146.25C253.879 146.25 255.22 145.398 256.265 143.693C257.322 141.977 257.845 139.284 257.833 135.614C257.833 133.216 257.595 131.256 257.117 129.733C256.64 128.21 255.981 127.085 255.14 126.358C254.299 125.619 253.333 125.25 252.242 125.25C250.606 125.25 249.271 126.08 248.237 127.739C247.202 129.398 246.674 132.023 246.651 135.614C246.64 138.057 246.873 140.068 247.35 141.648C247.827 143.216 248.487 144.375 249.327 145.125C250.18 145.875 251.151 146.25 252.242 146.25Z" fill="white"/>
</g>
</g>
<defs>
<filter id="filter0_d_2002_192" x="62.0284" y="123.902" width="140.678" height="65.8501" filterUnits="userSpaceOnUse" color-interpolation-filters="sRGB">
<feFlood flood-opacity="0" result="BackgroundImageFix"/>
<feColorMatrix in="SourceAlpha" type="matrix" values="0 0 0 0 0 0 0 0 0 0 0 0 0 0 0 0 0 0 127 0" result="hardAlpha"/>
<feOffset dy="7.40741"/>
<feGaussianBlur stdDeviation="5.55556"/>
<feComposite in2="hardAlpha" operator="out"/>
<feColorMatrix type="matrix" values="0 0 0 0 0 0 0 0 0 0 0 0 0 0 0 0 0 0 0.15 0"/>
<feBlend mode="normal" in2="BackgroundImageFix" result="effect1_dropShadow_2002_192"/>
<feBlend mode="normal" in="SourceGraphic" in2="effect1_dropShadow_2002_192" result="shape"/>
</filter>
<filter id="filter1_d_2002_192" x="207.43" y="123.859" width="140.678" height="65.8501" filterUnits="userSpaceOnUse" color-interpolation-filters="sRGB">
<feFlood flood-opacity="0" result="BackgroundImageFix"/>
<feColorMatrix in="SourceAlpha" type="matrix" values="0 0 0 0 0 0 0 0 0 0 0 0 0 0 0 0 0 0 127 0" result="hardAlpha"/>
<feOffset dy="7.40741"/>
<feGaussianBlur stdDeviation="5.55556"/>
<feComposite in2="hardAlpha" operator="out"/>
<feColorMatrix type="matrix" values="0 0 0 0 0 0 0 0 0 0 0 0 0 0 0 0 0 0 0.15 0"/>
<feBlend mode="normal" in2="BackgroundImageFix" result="effect1_dropShadow_2002_192"/>
<feBlend mode="normal" in="SourceGraphic" in2="effect1_dropShadow_2002_192" result="shape"/>
</filter>
<filter id="filter2_d_2002_192" x="30.3133" y="0" width="350" height="620" filterUnits="userSpaceOnUse" color-interpolation-filters="sRGB">
<feFlood flood-opacity="0" result="BackgroundImageFix"/>
<feColorMatrix in="SourceAlpha" type="matrix" values="0 0 0 0 0 0 0 0 0 0 0 0 0 0 0 0 0 0 127 0" result="hardAlpha"/>
<feOffset dy="4"/>
<feGaussianBlur stdDeviation="20"/>
<feComposite in2="hardAlpha" operator="out"/>
<feColorMatrix type="matrix" values="0 0 0 0 0 0 0 0 0 0 0 0 0 0 0 0 0 0 0.25 0"/>
<feBlend mode="normal" in2="BackgroundImageFix" result="effect1_dropShadow_2002_192"/>
<feBlend mode="normal" in="SourceGraphic" in2="effect1_dropShadow_2002_192" result="shape"/>
</filter>
<filter id="filter3_d_2002_192" x="95.0036" y="445.511" width="219.962" height="53.8864" filterUnits="userSpaceOnUse" color-interpolation-filters="sRGB">
<feFlood flood-opacity="0" result="BackgroundImageFix"/>
<feColorMatrix in="SourceAlpha" type="matrix" values="0 0 0 0 0 0 0 0 0 0 0 0 0 0 0 0 0 0 127 0" result="hardAlpha"/>
<feOffset dy="8"/>
<feGaussianBlur stdDeviation="6"/>
<feComposite in2="hardAlpha" operator="out"/>
<feColorMatrix type="matrix" values="0 0 0 0 0 0 0 0 0 0 0 0 0 0 0 0 0 0 0.15 0"/>
<feBlend mode="normal" in2="BackgroundImageFix" result="effect1_dropShadow_2002_192"/>
<feBlend mode="normal" in="SourceGraphic" in2="effect1_dropShadow_2002_192" result="shape"/>
</filter>
<filter id="filter4_d_2002_192" x="100.427" y="388.614" width="209.736" height="59.8636" filterUnits="userSpaceOnUse" color-interpolation-filters="sRGB">
<feFlood flood-opacity="0" result="BackgroundImageFix"/>
<feColorMatrix in="SourceAlpha" type="matrix" values="0 0 0 0 0 0 0 0 0 0 0 0 0 0 0 0 0 0 127 0" result="hardAlpha"/>
<feOffset dy="8"/>
<feGaussianBlur stdDeviation="6"/>
<feComposite in2="hardAlpha" operator="out"/>
<feColorMatrix type="matrix" values="0 0 0 0 0 0 0 0 0 0 0 0 0 0 0 0 0 0 0.15 0"/>
<feBlend mode="normal" in2="BackgroundImageFix" result="effect1_dropShadow_2002_192"/>
<feBlend mode="normal" in="SourceGraphic" in2="effect1_dropShadow_2002_192" result="shape"/>
</filter>
<filter id="filter5_d_2002_192" x="130.427" y="113.614" width="149.241" height="60.3409" filterUnits="userSpaceOnUse" color-interpolation-filters="sRGB">
<feFlood flood-opacity="0" result="BackgroundImageFix"/>
<feColorMatrix in="SourceAlpha" type="matrix" values="0 0 0 0 0 0 0 0 0 0 0 0 0 0 0 0 0 0 127 0" result="hardAlpha"/>
<feOffset dy="8"/>
<feGaussianBlur stdDeviation="6"/>
<feComposite in2="hardAlpha" operator="out"/>
<feColorMatrix type="matrix" values="0 0 0 0 0 0 0 0 0 0 0 0 0 0 0 0 0 0 0.15 0"/>
<feBlend mode="normal" in2="BackgroundImageFix" result="effect1_dropShadow_2002_192"/>
<feBlend mode="normal" in="SourceGraphic" in2="effect1_dropShadow_2002_192" result="shape"/>
</filter>
<linearGradient id="paint0_linear_2002_192" x1="124.524" y1="56.9513" x2="247.211" y2="224.1" gradientUnits="userSpaceOnUse">
<stop stop-color="#FD4C65"/>
<stop offset="1" stop-color="#A93749"/>
</linearGradient>
<linearGradient id="paint1_linear_2002_192" x1="146.475" y1="307.845" x2="181.763" y2="553.083" gradientUnits="userSpaceOnUse">
<stop stop-color="#51D91A"/>
<stop offset="1" stop-color="#0D6B3D"/>
</linearGradient>
<linearGradient id="paint2_linear_2002_192" x1="120.893" y1="272.904" x2="137.88" y2="467.07" gradientUnits="userSpaceOnUse">
<stop stop-color="#0D6B3D"/>
<stop offset="1" stop-color="#0D6B3D" stop-opacity="0"/>
</linearGradient>
<linearGradient id="paint3_linear_2002_192" x1="166.091" y1="268.95" x2="183.078" y2="463.116" gradientUnits="userSpaceOnUse">
<stop stop-color="#0D6B3D"/>
<stop offset="1" stop-color="#0D6B3D" stop-opacity="0"/>
</linearGradient>
<linearGradient id="paint4_linear_2002_192" x1="132.056" y1="307.712" x2="139.037" y2="387.5" gradientUnits="userSpaceOnUse">
<stop stop-color="#0D6B3D"/>
<stop offset="1" stop-color="#0D6B3D" stop-opacity="0"/>
</linearGradient>
<linearGradient id="paint5_linear_2002_192" x1="161.112" y1="305.17" x2="168.093" y2="384.958" gradientUnits="userSpaceOnUse">
<stop stop-color="#0D6B3D"/>
<stop offset="1" stop-color="#0D6B3D" stop-opacity="0"/>
</linearGradient>
<linearGradient id="paint6_linear_2002_192" x1="286.102" y1="56.9513" x2="377.9" y2="242.865" gradientUnits="userSpaceOnUse">
<stop stop-color="#FD4C65"/>
<stop offset="1" stop-color="#A93749"/>
</linearGradient>
<linearGradient id="paint7_linear_2002_192" x1="264.152" y1="307.845" x2="256.319" y2="555.485" gradientUnits="userSpaceOnUse">
<stop stop-color="#51D91A"/>
<stop offset="1" stop-color="#0D6B3D"/>
</linearGradient>
<linearGradient id="paint8_linear_2002_192" x1="245.026" y1="268.993" x2="228.039" y2="463.159" gradientUnits="userSpaceOnUse">
<stop stop-color="#0D6B3D"/>
<stop offset="1" stop-color="#0D6B3D" stop-opacity="0"/>
</linearGradient>
<linearGradient id="paint9_linear_2002_192" x1="290.224" y1="272.947" x2="273.237" y2="467.113" gradientUnits="userSpaceOnUse">
<stop stop-color="#0D6B3D"/>
<stop offset="1" stop-color="#0D6B3D" stop-opacity="0"/>
</linearGradient>
<linearGradient id="paint10_linear_2002_192" x1="249.976" y1="305.21" x2="242.995" y2="384.998" gradientUnits="userSpaceOnUse">
<stop stop-color="#0D6B3D"/>
<stop offset="1" stop-color="#0D6B3D" stop-opacity="0"/>
</linearGradient>
<linearGradient id="paint11_linear_2002_192" x1="279.031" y1="307.752" x2="272.051" y2="387.54" gradientUnits="userSpaceOnUse">
<stop stop-color="#0D6B3D"/>
<stop offset="1" stop-color="#0D6B3D" stop-opacity="0"/>
</linearGradient>
<linearGradient id="paint12_linear_2002_192" x1="205.313" y1="36" x2="321.578" y2="227.382" gradientUnits="userSpaceOnUse">
<stop stop-color="#FD4C65"/>
<stop offset="1" stop-color="#A93749"/>
</linearGradient>
<linearGradient id="paint13_linear_2002_192" x1="205.313" y1="308" x2="220.195" y2="575.171" gradientUnits="userSpaceOnUse">
<stop stop-color="#51D91A"/>
<stop offset="1" stop-color="#0D6B3D"/>
</linearGradient>
<linearGradient id="paint14_linear_2002_192" x1="181.079" y1="268" x2="181.079" y2="478.5" gradientUnits="userSpaceOnUse">
<stop stop-color="#0D6B3D"/>
<stop offset="1" stop-color="#0D6B3D" stop-opacity="0"/>
</linearGradient>
<linearGradient id="paint15_linear_2002_192" x1="230.079" y1="268" x2="230.079" y2="478.5" gradientUnits="userSpaceOnUse">
<stop stop-color="#0D6B3D"/>
<stop offset="1" stop-color="#0D6B3D" stop-opacity="0"/>
</linearGradient>
<linearGradient id="paint16_linear_2002_192" x1="189.813" y1="306.5" x2="189.813" y2="393" gradientUnits="userSpaceOnUse">
<stop stop-color="#0D6B3D"/>
<stop offset="1" stop-color="#0D6B3D" stop-opacity="0"/>
</linearGradient>
<linearGradient id="paint17_linear_2002_192" x1="221.313" y1="306.5" x2="221.313" y2="393" gradientUnits="userSpaceOnUse">
<stop stop-color="#0D6B3D"/>
<stop offset="1" stop-color="#0D6B3D" stop-opacity="0"/>
</linearGradient>
</defs>
</svg>
