<svg width="400" height="620" viewBox="0 0 400 620" fill="none" xmlns="http://www.w3.org/2000/svg">
<path fill-rule="evenodd" clip-rule="evenodd" d="M168.92 55.6451C168.61 59.1898 165.166 61.784 161.227 61.4395C160.281 61.3567 159.393 61.1121 158.594 60.739L145.076 215.243L385.76 236.3L399.278 81.7961C398.426 82.0247 397.508 82.1114 396.563 82.0287C392.624 81.6841 389.683 78.5312 389.993 74.9865L382.861 74.3626C382.551 77.9073 379.107 80.5015 375.168 80.1569C371.23 79.8124 368.288 76.6595 368.598 73.1148L361.467 72.4909C361.157 76.0356 357.713 78.6298 353.774 78.2852C349.836 77.9406 346.894 74.7877 347.204 71.243L340.073 70.6191C339.763 74.1638 336.319 76.758 332.38 76.4134C328.441 76.0689 325.5 72.916 325.81 69.3713L318.679 68.7474C318.369 72.2921 314.925 74.8863 310.986 74.5417C307.047 74.1971 304.106 71.0442 304.416 67.4995L297.285 66.8756C296.975 70.4203 293.53 73.0145 289.592 72.6699C285.653 72.3254 282.712 69.1725 283.022 65.6278L275.891 65.0039C275.58 68.5486 272.136 71.1428 268.198 70.7982C264.259 70.4536 261.318 67.3007 261.628 63.756L254.496 63.1321C254.186 66.6768 250.742 69.271 246.803 68.9265C242.865 68.5819 239.923 65.429 240.234 61.8843L233.102 61.2604C232.792 64.8051 229.348 67.3993 225.409 67.0547C221.471 66.7101 218.529 63.5573 218.84 60.0126C218.84 60.0125 218.84 60.0125 218.84 60.0125L211.708 59.3886C211.708 59.3886 211.708 59.3886 211.708 59.3886C211.398 62.9333 207.954 65.5276 204.015 65.183C200.077 64.8384 197.135 61.6855 197.445 58.1408C197.445 58.1408 197.445 58.1408 197.445 58.1408L190.314 57.5169C190.314 57.5169 190.314 57.5169 190.314 57.5169C190.004 61.0616 186.56 63.6558 182.621 63.3112C178.683 62.9666 175.741 59.8138 176.051 56.2691C176.051 56.2691 176.051 56.269 176.051 56.269L168.92 55.6451C168.92 55.6451 168.92 55.6451 168.92 55.6451Z" fill="url(#paint0_linear_72_251)"/>
<g filter="url(#filter0_d_72_251)">
<path d="M232.361 135.774L229.638 166.893L221.19 166.154L223.232 142.815L223.049 142.799L215.886 146.276L216.513 139.104L224.581 135.094L232.361 135.774ZM249.507 169.489C246.681 169.231 244.297 168.365 242.354 166.888C240.411 165.411 238.99 163.404 238.089 160.865C237.188 158.326 236.892 155.35 237.201 151.938C237.511 148.515 238.322 145.656 239.635 143.362C240.959 141.069 242.698 139.389 244.853 138.322C247.019 137.256 249.515 136.847 252.341 137.094C255.167 137.341 257.553 138.183 259.5 139.619C261.447 141.045 262.873 143.002 263.779 145.49C264.684 147.978 264.982 150.928 264.673 154.341C264.373 157.775 263.558 160.664 262.231 163.008C260.903 165.352 259.154 167.082 256.984 168.199C254.825 169.306 252.333 169.736 249.507 169.489ZM250.107 162.621C251.566 162.748 252.828 162.093 253.893 160.655C254.969 159.208 255.645 156.848 255.921 153.575C256.108 151.438 256.048 149.672 255.741 148.277C255.435 146.883 254.935 145.829 254.242 145.115C253.55 144.391 252.718 143.986 251.745 143.901C250.287 143.773 249.032 144.409 247.98 145.807C246.929 147.205 246.253 149.504 245.953 152.703C245.752 154.88 245.803 156.692 246.106 158.137C246.409 159.572 246.906 160.657 247.597 161.391C248.298 162.126 249.135 162.536 250.107 162.621ZM280.762 172.223C277.937 171.966 275.553 171.099 273.61 169.623C271.667 168.146 270.245 166.138 269.344 163.6C268.444 161.061 268.148 158.085 268.456 154.672C268.766 151.249 269.578 148.391 270.891 146.097C272.214 143.803 273.954 142.123 276.109 141.056C278.274 139.99 280.77 139.581 283.596 139.828C286.423 140.076 288.809 140.917 290.755 142.353C292.703 143.779 294.129 145.736 295.034 148.224C295.939 150.712 296.237 153.663 295.929 157.076C295.628 160.51 294.814 163.399 293.486 165.742C292.158 168.086 290.409 169.816 288.24 170.933C286.081 172.041 283.588 172.471 280.762 172.223ZM281.363 165.355C282.822 165.483 284.083 164.828 285.148 163.39C286.224 161.943 286.9 159.583 287.176 156.31C287.363 154.173 287.304 152.407 286.997 151.012C286.69 149.617 286.19 148.563 285.497 147.849C284.805 147.125 283.973 146.721 283.001 146.635C281.542 146.508 280.287 147.143 279.236 148.542C278.185 149.94 277.509 152.239 277.209 155.438C277.008 157.615 277.059 159.426 277.361 160.871C277.664 162.306 278.161 163.391 278.852 164.125C279.554 164.86 280.391 165.27 281.363 165.355ZM312.018 174.958C309.192 174.7 306.808 173.834 304.865 172.357C302.922 170.88 301.501 168.873 300.6 166.334C299.699 163.795 299.403 160.819 299.712 157.407C300.022 153.984 300.833 151.125 302.146 148.831C303.47 146.538 305.209 144.858 307.364 143.791C309.53 142.725 312.026 142.316 314.852 142.563C317.678 142.81 320.064 143.652 322.011 145.088C323.958 146.514 325.384 148.471 326.29 150.959C327.195 153.447 327.493 156.397 327.184 159.81C326.884 163.244 326.069 166.133 324.742 168.477C323.414 170.821 321.665 172.551 319.495 173.668C317.336 174.775 314.844 175.205 312.018 174.958ZM312.618 168.09C314.077 168.217 315.339 167.562 316.404 166.124C317.48 164.677 318.156 162.317 318.432 159.044C318.619 156.907 318.559 155.141 318.252 153.746C317.946 152.352 317.446 151.298 316.753 150.584C316.061 149.86 315.229 149.455 314.256 149.37C312.798 149.242 311.543 149.878 310.491 151.276C309.44 152.674 308.764 154.973 308.464 158.172C308.263 160.349 308.314 162.161 308.617 163.606C308.92 165.041 309.417 166.126 310.108 166.86C310.809 167.595 311.646 168.005 312.618 168.09Z" fill="white"/>
</g>
<path fill-rule="evenodd" clip-rule="evenodd" d="M385.76 236.3L145.076 215.243L117.613 529.154C118.469 528.872 119.389 528.756 120.335 528.839C124.273 529.183 127.17 532.843 126.806 537.013L133.937 537.637C134.302 533.467 137.791 530.366 141.729 530.71C145.668 531.055 148.565 534.715 148.2 538.885L155.331 539.509C155.696 535.339 159.185 532.238 163.123 532.582C167.062 532.927 169.959 536.587 169.594 540.757L176.725 541.381C177.09 537.211 180.579 534.109 184.517 534.454C188.456 534.798 191.353 538.458 190.988 542.629L198.119 543.253C198.484 539.082 201.973 535.981 205.911 536.326C209.85 536.67 212.747 540.33 212.382 544.5L219.514 545.124C219.879 540.954 223.367 537.853 227.306 538.197C231.244 538.542 234.141 542.202 233.776 546.372L240.908 546.996C241.273 542.826 244.761 539.725 248.7 540.069C252.638 540.414 255.535 544.074 255.17 548.244L262.302 548.868C262.667 544.698 266.155 541.596 270.094 541.941C274.033 542.285 276.93 545.945 276.565 550.116L283.696 550.74C284.061 546.569 287.549 543.468 291.488 543.813C295.427 544.157 298.324 547.817 297.959 551.987L305.09 552.611C305.455 548.441 308.944 545.34 312.882 545.684C316.821 546.029 319.718 549.689 319.353 553.859L326.484 554.483C326.849 550.313 330.338 547.212 334.276 547.556C338.215 547.901 341.112 551.561 340.747 555.731L347.879 556.355C348.243 552.185 351.732 549.083 355.671 549.428C356.616 549.511 357.502 549.785 358.297 550.211L385.76 236.3Z" fill="url(#paint1_linear_72_251)"/>
<rect x="148.374" y="208.346" width="7.15862" height="7.15862" transform="rotate(5 148.374 208.346)" fill="#EC433B"/>
<rect x="262.476" y="218.329" width="7.15862" height="7.15862" transform="rotate(5 262.476 218.329)" fill="#EC433B"/>
<rect x="205.425" y="213.337" width="7.15862" height="7.15862" transform="rotate(5 205.425 213.337)" fill="#EC433B"/>
<rect x="319.527" y="223.32" width="7.15862" height="7.15862" transform="rotate(5 319.527 223.32)" fill="#EC433B"/>
<rect x="176.9" y="210.842" width="7.15862" height="7.15862" transform="rotate(5 176.9 210.842)" fill="#EC433B"/>
<rect x="291.002" y="220.824" width="7.15862" height="7.15862" transform="rotate(5 291.002 220.824)" fill="#EC433B"/>
<rect x="233.951" y="215.833" width="7.15862" height="7.15862" transform="rotate(5 233.951 215.833)" fill="#EC433B"/>
<rect x="348.053" y="225.816" width="7.15862" height="7.15862" transform="rotate(5 348.053 225.816)" fill="#EC433B"/>
<rect x="162.637" y="209.594" width="7.15862" height="7.15862" transform="rotate(5 162.637 209.594)" fill="#EC433B"/>
<rect x="276.739" y="219.576" width="7.15862" height="7.15862" transform="rotate(5 276.739 219.576)" fill="#EC433B"/>
<rect x="219.688" y="214.585" width="7.15862" height="7.15862" transform="rotate(5 219.688 214.585)" fill="#EC433B"/>
<rect x="333.79" y="224.568" width="7.15862" height="7.15862" transform="rotate(5 333.79 224.568)" fill="#EC433B"/>
<rect x="191.163" y="212.089" width="7.15862" height="7.15862" transform="rotate(5 191.163 212.089)" fill="#EC433B"/>
<rect x="305.265" y="222.072" width="7.15862" height="7.15862" transform="rotate(5 305.265 222.072)" fill="#EC433B"/>
<rect x="248.214" y="217.081" width="7.15862" height="7.15862" transform="rotate(5 248.214 217.081)" fill="#EC433B"/>
<rect x="362.316" y="227.063" width="7.15862" height="7.15862" transform="rotate(5 362.316 227.063)" fill="#EC433B"/>
<rect x="376.579" y="228.311" width="7.15862" height="7.15862" transform="rotate(5 376.579 228.311)" fill="#EC433B"/>
<path opacity="0.7" d="M244.946 459.77L218.129 268.343L261.363 272.126C260.293 272.032 249.973 397.183 244.946 459.77Z" fill="url(#paint2_linear_72_251)"/>
<path opacity="0.7" d="M245.42 459.812L305.071 275.95L261.837 272.167C262.907 272.261 251.338 397.303 245.42 459.812Z" fill="url(#paint3_linear_72_251)"/>
<path d="M264.538 240.965L276.517 268.491L308.075 275.497L283.184 293.929L286.111 323.287L258.747 307.153L228.998 318.29L236.979 289.887L215.666 267.413L247.961 265.992L264.538 240.965Z" fill="url(#paint4_linear_72_251)"/>
<path d="M264.375 242.832L275.697 268.848L275.879 269.265L276.323 269.364L305.966 275.946L282.651 293.21L282.243 293.513L282.293 294.018L285.045 321.62L259.202 306.382L258.834 306.165L258.434 306.315L230.337 316.834L237.84 290.129L237.978 289.64L237.628 289.271L217.665 268.22L248 266.886L248.456 266.866L248.707 266.486L264.375 242.832Z" stroke="white" stroke-opacity="0.5" stroke-width="1.78966"/>
<path opacity="0.7" d="M245.236 461.592L258.806 306.485L229.071 317.806L245.236 461.592Z" fill="url(#paint5_linear_72_251)"/>
<path opacity="0.7" d="M244.79 461.553L258.36 306.446L285.677 322.758L244.79 461.553Z" fill="url(#paint6_linear_72_251)"/>
<g filter="url(#filter1_d_72_251)">
<path d="M171.41 427.757L178.349 428.364L176.793 446.142C176.637 447.83 176.081 449.278 175.125 450.487C174.177 451.689 172.934 452.584 171.394 453.172C169.863 453.753 168.139 453.959 166.223 453.791C164.56 453.646 163.066 453.226 161.74 452.532C160.415 451.829 159.397 450.821 158.687 449.509C157.978 448.188 157.714 446.531 157.897 444.54L164.937 445.156C164.906 445.808 164.967 446.366 165.122 446.831C165.286 447.296 165.535 447.658 165.869 447.917C166.213 448.168 166.643 448.316 167.158 448.361C167.681 448.407 168.13 448.332 168.504 448.135C168.887 447.938 169.191 447.625 169.416 447.194C169.642 446.754 169.788 446.201 169.855 445.535L171.41 427.757ZM186.153 455.178L178.556 454.513L189.384 429.33L199.007 430.172L205.298 456.853L197.701 456.188L193.672 436.901L193.47 436.883L186.153 455.178ZM185.63 444.823L199.913 446.072L199.452 451.34L185.169 450.09L185.63 444.823ZM232.205 442.875L225.064 442.25C225.065 441.655 224.977 441.107 224.799 440.607C224.63 440.107 224.371 439.668 224.022 439.288C223.681 438.901 223.253 438.592 222.738 438.359C222.223 438.119 221.628 437.969 220.952 437.91C219.771 437.806 218.745 438.006 217.876 438.508C217.015 439.011 216.327 439.781 215.811 440.816C215.304 441.852 214.984 443.121 214.853 444.623C214.714 446.21 214.809 447.558 215.137 448.667C215.475 449.769 216.025 450.625 216.788 451.236C217.552 451.839 218.504 452.19 219.643 452.29C220.293 452.347 220.883 452.317 221.412 452.202C221.941 452.078 222.41 451.877 222.817 451.598C223.224 451.319 223.565 450.97 223.84 450.552C224.124 450.126 224.332 449.638 224.466 449.088L231.603 449.763C231.422 450.853 231.016 451.945 230.385 453.038C229.754 454.123 228.907 455.103 227.843 455.98C226.789 456.849 225.519 457.512 224.033 457.969C222.547 458.426 220.854 458.571 218.955 458.405C216.575 458.197 214.484 457.499 212.682 456.312C210.889 455.126 209.53 453.493 208.607 451.413C207.691 449.334 207.359 446.86 207.61 443.99C207.863 441.103 208.633 438.72 209.92 436.843C211.208 434.956 212.841 433.589 214.821 432.742C216.801 431.886 218.956 431.56 221.286 431.764C222.924 431.907 224.411 432.262 225.748 432.83C227.084 433.398 228.234 434.158 229.197 435.11C230.161 436.053 230.905 437.177 231.429 438.482C231.952 439.787 232.211 441.251 232.205 442.875ZM233.981 459.362L236.25 433.43L243.29 434.046L242.373 444.53L242.728 444.561L251.445 434.759L259.65 435.477L249.877 446.259L257.584 461.427L249.176 460.692L244.202 450.457L241.607 453.293L241.022 459.978L233.981 459.362ZM259.471 461.592L261.739 435.66L272.933 436.639C274.857 436.808 276.508 437.335 277.885 438.221C279.262 439.107 280.292 440.273 280.973 441.719C281.655 443.165 281.915 444.808 281.754 446.649C281.592 448.506 281.037 450.078 280.091 451.364C279.153 452.652 277.909 453.598 276.359 454.202C274.818 454.807 273.06 455.024 271.084 454.851L264.399 454.266L264.877 448.796L270.145 449.257C270.972 449.329 271.689 449.247 272.297 449.011C272.914 448.767 273.402 448.389 273.761 447.876C274.129 447.364 274.346 446.741 274.41 446.006C274.475 445.263 274.37 444.616 274.095 444.065C273.829 443.506 273.413 443.061 272.846 442.731C272.289 442.393 271.597 442.188 270.769 442.115L268.288 441.898L266.511 462.208L259.471 461.592ZM309.127 452.871C308.874 455.758 308.1 458.145 306.803 460.03C305.508 461.907 303.862 463.273 301.864 464.127C299.868 464.974 297.696 465.294 295.35 465.089C292.986 464.882 290.895 464.184 289.077 462.996C287.267 461.8 285.888 460.165 284.938 458.092C283.997 456.01 283.652 453.535 283.903 450.665C284.156 447.778 284.926 445.395 286.213 443.517C287.509 441.632 289.151 440.266 291.139 439.419C293.136 438.564 295.317 438.24 297.68 438.447C300.027 438.653 302.11 439.349 303.928 440.538C305.747 441.718 307.132 443.349 308.081 445.43C309.031 447.504 309.379 449.984 309.127 452.871ZM301.884 452.238C302.02 450.684 301.927 449.358 301.607 448.258C301.295 447.151 300.763 446.287 300.009 445.668C299.264 445.042 298.309 444.678 297.144 444.576C295.979 444.474 294.972 444.666 294.121 445.153C293.279 445.633 292.605 446.39 292.097 447.426C291.599 448.454 291.282 449.745 291.146 451.298C291.01 452.851 291.098 454.182 291.41 455.289C291.73 456.389 292.263 457.252 293.008 457.879C293.761 458.498 294.721 458.858 295.886 458.96C297.051 459.062 298.054 458.873 298.895 458.394C299.746 457.907 300.421 457.149 300.919 456.121C301.426 455.085 301.748 453.791 301.884 452.238ZM311.094 445.694L311.591 440.021L334.129 441.993L333.633 447.666L325.833 446.984L324.061 467.243L317.122 466.636L318.894 446.377L311.094 445.694Z" fill="white"/>
</g>
<g filter="url(#filter2_d_72_251)">
<path d="M199.933 389.754C199.941 388.734 199.63 387.911 199.001 387.284C198.382 386.658 197.389 386.286 196.021 386.166C195.15 386.09 194.426 386.134 193.851 386.298C193.286 386.452 192.856 386.695 192.562 387.027C192.268 387.358 192.095 387.752 192.045 388.207C191.992 388.58 192.029 388.925 192.154 389.242C192.29 389.55 192.52 389.84 192.843 390.114C193.167 390.377 193.589 390.628 194.109 390.868C194.629 391.107 195.252 391.335 195.979 391.552L198.483 392.322C200.174 392.837 201.605 393.447 202.779 394.152C203.952 394.857 204.894 395.649 205.603 396.528C206.313 397.396 206.806 398.348 207.083 399.383C207.37 400.418 207.467 401.529 207.373 402.715C207.184 404.76 206.521 406.448 205.384 407.777C204.247 409.107 202.704 410.059 200.755 410.634C198.816 411.209 196.53 411.382 193.896 411.151C191.192 410.915 188.867 410.308 186.921 409.331C184.985 408.356 183.533 406.988 182.564 405.23C181.606 403.462 181.236 401.276 181.453 398.671L189.476 399.373C189.443 400.33 189.612 401.151 189.98 401.836C190.349 402.522 190.904 403.066 191.644 403.467C192.395 403.87 193.307 404.118 194.381 404.212C195.283 404.291 196.047 404.245 196.674 404.076C197.302 403.906 197.79 403.637 198.138 403.27C198.487 402.902 198.688 402.466 198.743 401.96C198.774 401.483 198.654 401.054 198.381 400.673C198.119 400.282 197.661 399.916 197.007 399.573C196.354 399.22 195.461 398.866 194.329 398.512L191.287 397.572C188.584 396.733 186.499 395.545 185.031 394.008C183.574 392.462 182.957 390.474 183.179 388.043C183.342 386.067 184.02 384.386 185.213 383C186.417 381.605 188.002 380.575 189.969 379.91C191.946 379.246 194.166 379.022 196.627 379.237C199.139 379.457 201.276 380.067 203.035 381.069C204.795 382.07 206.105 383.379 206.964 384.995C207.834 386.602 208.185 388.424 208.017 390.461L199.933 389.754ZM241.292 399.252C240.988 402.716 240.059 405.58 238.504 407.842C236.949 410.095 234.973 411.734 232.577 412.759C230.181 413.775 227.575 414.159 224.759 413.913C221.923 413.665 219.414 412.827 217.231 411.401C215.06 409.966 213.405 408.005 212.265 405.516C211.136 403.019 210.722 400.048 211.024 396.604C211.327 393.139 212.251 390.281 213.795 388.027C215.351 385.765 217.321 384.125 219.707 383.109C222.103 382.084 224.72 381.695 227.556 381.943C230.372 382.189 232.871 383.026 235.053 384.452C237.236 385.867 238.897 387.825 240.036 390.323C241.176 392.811 241.595 395.788 241.292 399.252ZM232.6 398.492C232.763 396.628 232.652 395.036 232.268 393.716C231.894 392.387 231.255 391.351 230.35 390.609C229.456 389.857 228.311 389.42 226.913 389.297C225.515 389.175 224.305 389.406 223.285 389.99C222.275 390.566 221.465 391.475 220.857 392.718C220.259 393.952 219.878 395.5 219.715 397.364C219.552 399.228 219.657 400.825 220.031 402.154C220.416 403.473 221.055 404.509 221.949 405.261C222.853 406.004 224.005 406.436 225.403 406.558C226.8 406.681 228.004 406.454 229.014 405.879C230.035 405.295 230.844 404.386 231.442 403.152C232.051 401.909 232.437 400.355 232.6 398.492ZM273.487 386.39L270.764 417.509L263.714 416.892L253.9 399.559L253.718 399.543L252.287 415.892L243.839 415.153L246.562 384.035L253.734 384.662L263.37 401.918L263.613 401.94L265.038 385.651L273.487 386.39ZM285.931 387.479L283.209 418.598L274.76 417.859L277.483 386.74L285.931 387.479ZM317.966 402.04L309.396 401.291C309.398 400.576 309.292 399.919 309.079 399.318C308.876 398.719 308.565 398.192 308.146 397.736C307.737 397.272 307.224 396.9 306.605 396.622C305.987 396.333 305.273 396.153 304.463 396.082C303.045 395.958 301.814 396.197 300.771 396.8C299.738 397.404 298.913 398.327 298.293 399.569C297.685 400.812 297.301 402.335 297.144 404.138C296.977 406.043 297.091 407.66 297.484 408.991C297.889 410.313 298.55 411.34 299.466 412.074C300.382 412.797 301.524 413.218 302.892 413.338C303.672 413.406 304.379 413.371 305.014 413.233C305.65 413.084 306.212 412.842 306.7 412.507C307.189 412.173 307.598 411.754 307.928 411.252C308.269 410.741 308.519 410.156 308.679 409.496L317.243 410.306C317.027 411.614 316.539 412.924 315.782 414.236C315.025 415.538 314.008 416.714 312.732 417.766C311.467 418.809 309.943 419.605 308.16 420.153C306.376 420.701 304.345 420.876 302.066 420.676C299.209 420.426 296.7 419.589 294.538 418.165C292.387 416.742 290.756 414.782 289.648 412.286C288.549 409.792 288.151 406.822 288.452 403.378C288.755 399.914 289.679 397.055 291.224 394.801C292.769 392.538 294.729 390.897 297.105 389.88C299.481 388.853 302.067 388.462 304.863 388.707C306.828 388.878 308.613 389.305 310.217 389.986C311.821 390.668 313.201 391.58 314.357 392.722C315.513 393.854 316.406 395.203 317.034 396.769C317.663 398.334 317.973 400.092 317.966 402.04Z" fill="white"/>
</g>
<path d="M243.609 478.966L248.543 490.095L261.505 492.945L251.295 500.379L252.514 512.244L241.269 505.708L229.06 510.192L232.321 498.719L223.557 489.625L236.817 489.069L243.609 478.966Z" fill="url(#paint7_linear_72_251)"/>
<path d="M243.448 480.805L247.728 490.457L247.911 490.87L248.352 490.967L259.377 493.391L250.77 499.657L250.355 499.959L250.407 500.47L251.447 510.591L241.718 504.937L241.355 504.726L240.962 504.871L230.398 508.75L233.179 498.963L233.32 498.469L232.963 498.099L225.575 490.433L236.854 489.961L237.305 489.942L237.557 489.567L243.448 480.805Z" stroke="white" stroke-opacity="0.5" stroke-width="1.78492"/>
<path d="M292.849 483.274L297.784 494.403L310.746 497.253L300.536 504.687L301.754 516.552L290.51 510.016L278.301 514.5L281.561 503.027L272.797 493.933L286.057 493.377L292.849 483.274Z" fill="url(#paint8_linear_72_251)"/>
<path d="M292.688 485.113L296.968 494.765L297.151 495.178L297.592 495.275L308.617 497.699L300.01 503.965L299.596 504.267L299.648 504.778L300.688 514.899L290.958 509.245L290.596 509.034L290.202 509.179L279.638 513.058L282.42 503.271L282.56 502.777L282.204 502.407L274.816 494.741L286.094 494.269L286.546 494.25L286.798 493.875L292.688 485.113Z" stroke="white" stroke-opacity="0.5" stroke-width="1.78492"/>
<path d="M194.581 474.676L199.515 485.806L212.477 488.655L202.267 496.089L203.486 507.954L192.241 501.419L180.032 505.902L183.293 494.429L174.529 485.335L187.789 484.78L194.581 474.676Z" fill="url(#paint9_linear_72_251)"/>
<path d="M194.42 476.515L198.699 486.168L198.883 486.581L199.324 486.678L210.349 489.101L201.742 495.368L201.327 495.67L201.379 496.181L202.419 506.302L192.69 500.647L192.327 500.437L191.933 500.581L181.37 504.46L184.151 494.673L184.292 494.18L183.935 493.81L176.547 486.144L187.826 485.672L188.277 485.653L188.529 485.278L194.42 476.515Z" stroke="white" stroke-opacity="0.5" stroke-width="1.78492"/>
<path fill-rule="evenodd" clip-rule="evenodd" d="M9.80563 74.9865C10.1157 78.5312 7.17432 81.6841 3.23577 82.0287C2.29007 82.1114 1.37287 82.0247 0.52071 81.7961L14.0381 236.3L254.722 215.243L241.205 60.739C240.405 61.1121 239.517 61.3567 238.571 61.4395C234.633 61.7841 231.189 59.1899 230.878 55.6452L223.747 56.2691C224.057 59.8138 221.116 62.9667 217.177 63.3112C213.239 63.6558 209.794 61.0616 209.484 57.5169L202.353 58.1408C202.663 61.6855 199.722 64.8384 195.783 65.183C191.845 65.5276 188.4 62.9333 188.09 59.3886L180.959 60.0126C181.269 63.5573 178.327 66.7102 174.389 67.0547C170.45 67.3993 167.006 64.8051 166.696 61.2604L159.565 61.8843C159.875 65.429 156.933 68.5819 152.995 68.9265C149.056 69.271 145.612 66.6768 145.302 63.1321L138.17 63.7561C138.481 67.3008 135.539 70.4536 131.601 70.7982C127.662 71.1428 124.218 68.5486 123.908 65.0039L116.776 65.6278C117.086 69.1725 114.145 72.3254 110.207 72.6699C106.268 73.0145 102.824 70.4203 102.514 66.8756L95.3821 67.4995C95.6922 71.0442 92.7508 74.1971 88.8122 74.5417C84.8737 74.8863 81.4295 72.2921 81.1193 68.7474L73.9881 69.3713C74.2982 72.916 71.3568 76.0689 67.4182 76.4134C63.4797 76.758 60.0354 74.1638 59.7253 70.6191C59.7253 70.6191 59.7253 70.6191 59.7253 70.6191L52.5938 71.243C52.5938 71.243 52.5938 71.243 52.5938 71.243C52.904 74.7877 49.9625 77.9406 46.024 78.2852C42.0854 78.6298 38.6412 76.0356 38.3311 72.4909C38.3311 72.4909 38.3311 72.4908 38.3311 72.4908L31.1998 73.1147C31.1998 73.1147 31.1998 73.1148 31.1998 73.1148C31.5099 76.6595 28.5685 79.8123 24.6299 80.1569C20.6914 80.5015 17.2472 77.9073 16.937 74.3626C16.937 74.3626 16.937 74.3626 16.937 74.3626L9.80562 74.9865C9.80562 74.9865 9.80563 74.9865 9.80563 74.9865Z" fill="url(#paint10_linear_72_251)"/>
<g filter="url(#filter3_d_72_251)">
<path d="M86.1967 142.882L88.9193 174.001L80.471 174.74L78.4291 151.401L78.2468 151.417L71.7958 156.085L71.1684 148.913L78.417 143.563L86.1967 142.882ZM108.937 173.107C106.11 173.344 103.611 172.904 101.441 171.788C99.2716 170.671 97.5228 168.941 96.195 166.597C94.8671 164.253 94.0589 161.374 93.7704 157.959C93.4809 154.534 93.7837 151.578 94.6787 149.091C95.5838 146.603 97.005 144.647 98.9422 143.222C100.89 141.796 103.276 140.959 106.103 140.712C108.929 140.465 111.425 140.879 113.591 141.955C115.757 143.021 117.501 144.701 118.824 146.994C120.148 149.287 120.954 152.141 121.242 155.556C121.543 158.99 121.243 161.976 120.342 164.515C119.441 167.054 118.02 169.061 116.077 170.538C114.143 172.003 111.763 172.86 108.937 173.107ZM108.336 166.239C109.795 166.111 110.923 165.247 111.722 163.646C112.531 162.034 112.787 159.592 112.49 156.321C112.303 154.184 111.938 152.455 111.393 151.135C110.849 149.815 110.174 148.863 109.368 148.281C108.56 147.688 107.671 147.434 106.698 147.519C105.239 147.647 104.114 148.49 103.321 150.05C102.529 151.61 102.263 153.991 102.523 157.193C102.703 159.372 103.067 161.147 103.616 162.518C104.164 163.879 104.842 164.86 105.65 165.463C106.468 166.066 107.363 166.324 108.336 166.239ZM140.192 170.372C137.365 170.61 134.867 170.17 132.697 169.053C130.527 167.936 128.778 166.206 127.45 163.862C126.123 161.519 125.314 158.639 125.026 155.225C124.736 151.8 125.039 148.844 125.934 146.357C126.839 143.869 128.261 141.912 130.198 140.487C132.145 139.061 134.532 138.225 137.358 137.977C140.184 137.73 142.681 138.145 144.847 139.221C147.012 140.287 148.757 141.966 150.08 144.26C151.403 146.553 152.209 149.407 152.498 152.821C152.798 156.255 152.498 159.242 151.598 161.78C150.697 164.319 149.275 166.327 147.332 167.803C145.398 169.269 143.019 170.125 140.192 170.372ZM139.591 163.504C141.05 163.377 142.179 162.513 142.978 160.912C143.786 159.299 144.042 156.858 143.746 153.587C143.559 151.45 143.193 149.721 142.649 148.401C142.105 147.08 141.429 146.129 140.623 145.546C139.816 144.953 138.926 144.699 137.954 144.785C136.495 144.912 135.369 145.756 134.577 147.315C133.785 148.875 133.518 151.256 133.778 154.459C133.958 156.638 134.323 158.413 134.872 159.783C135.419 161.144 136.097 162.126 136.905 162.729C137.724 163.331 138.619 163.59 139.591 163.504ZM171.448 167.638C168.621 167.875 166.122 167.435 163.952 166.319C161.783 165.202 160.034 163.472 158.706 161.128C157.378 158.784 156.57 155.905 156.281 152.49C155.992 149.065 156.295 146.109 157.19 143.622C158.095 141.134 159.516 139.178 161.453 137.753C163.401 136.327 165.787 135.49 168.614 135.243C171.44 134.996 173.936 135.41 176.102 136.486C178.268 137.552 180.012 139.232 181.335 141.525C182.659 143.818 183.465 146.672 183.753 150.087C184.054 153.521 183.754 156.507 182.853 159.046C181.952 161.585 180.531 163.592 178.588 165.069C176.654 166.534 174.274 167.391 171.448 167.638ZM170.847 160.77C172.306 160.642 173.434 159.778 174.233 158.177C175.042 156.565 175.298 154.123 175.001 150.852C174.814 148.715 174.449 146.986 173.904 145.666C173.36 144.346 172.685 143.394 171.879 142.812C171.071 142.219 170.182 141.965 169.209 142.05C167.75 142.178 166.625 143.021 165.832 144.581C165.04 146.14 164.774 148.522 165.034 151.724C165.214 153.903 165.578 155.678 166.127 157.049C166.675 158.41 167.353 159.391 168.161 159.994C168.979 160.597 169.874 160.855 170.847 160.77Z" fill="white"/>
</g>
<path fill-rule="evenodd" clip-rule="evenodd" d="M254.722 215.243L14.0381 236.3L41.5017 550.211C42.2965 549.784 43.1822 549.511 44.1278 549.428C48.0664 549.083 51.555 552.185 51.9198 556.355L59.0514 555.731C58.6866 551.561 61.5836 547.901 65.5222 547.556C69.4607 547.211 72.9493 550.313 73.3142 554.483L80.4454 553.859C80.0806 549.689 82.9777 546.029 86.9162 545.684C90.8548 545.34 94.3434 548.441 94.7082 552.611L101.84 551.987C101.475 547.817 104.372 544.157 108.31 543.813C112.249 543.468 115.738 546.569 116.102 550.74L123.234 550.116C122.869 545.945 125.766 542.285 129.704 541.941C133.643 541.596 137.132 544.698 137.496 548.868L144.628 548.244C144.263 544.074 147.16 540.414 151.099 540.069C155.037 539.724 158.526 542.826 158.891 546.996L166.022 546.372C165.657 542.202 168.554 538.542 172.493 538.197C176.431 537.853 179.92 540.954 180.285 545.124L187.416 544.5C187.051 540.33 189.948 536.67 193.887 536.326C197.826 535.981 201.314 539.082 201.679 543.253L208.81 542.629C208.445 538.458 211.342 534.798 215.281 534.454C219.22 534.109 222.708 537.211 223.073 541.381L230.205 540.757C229.84 536.587 232.737 532.927 236.675 532.582C240.614 532.238 244.102 535.339 244.467 539.509L251.599 538.885C251.234 534.715 254.131 531.055 258.069 530.71C262.008 530.366 265.496 533.467 265.861 537.637L272.993 537.013C272.628 532.843 275.525 529.183 279.464 528.839C280.409 528.756 281.329 528.872 282.186 529.154L254.722 215.243Z" fill="url(#paint11_linear_72_251)"/>
<rect x="16.0884" y="228.935" width="7.15862" height="7.15862" transform="rotate(-5 16.0884 228.935)" fill="#EC433B"/>
<rect x="130.19" y="218.953" width="7.15862" height="7.15862" transform="rotate(-5 130.19 218.953)" fill="#EC433B"/>
<rect x="73.1394" y="223.944" width="7.15862" height="7.15862" transform="rotate(-5 73.1394 223.944)" fill="#EC433B"/>
<rect x="187.241" y="213.961" width="7.15862" height="7.15862" transform="rotate(-5 187.241 213.961)" fill="#EC433B"/>
<rect x="44.614" y="226.439" width="7.15862" height="7.15862" transform="rotate(-5 44.614 226.439)" fill="#EC433B"/>
<rect x="158.716" y="216.457" width="7.15862" height="7.15862" transform="rotate(-5 158.716 216.457)" fill="#EC433B"/>
<rect x="101.665" y="221.448" width="7.15862" height="7.15862" transform="rotate(-5 101.665 221.448)" fill="#EC433B"/>
<rect x="215.767" y="211.466" width="7.15862" height="7.15862" transform="rotate(-5 215.767 211.466)" fill="#EC433B"/>
<rect x="30.3511" y="227.687" width="7.15862" height="7.15862" transform="rotate(-5 30.3511 227.687)" fill="#EC433B"/>
<rect x="144.453" y="217.705" width="7.15862" height="7.15862" transform="rotate(-5 144.453 217.705)" fill="#EC433B"/>
<rect x="87.4021" y="222.696" width="7.15862" height="7.15862" transform="rotate(-5 87.4021 222.696)" fill="#EC433B"/>
<rect x="201.504" y="212.713" width="7.15862" height="7.15862" transform="rotate(-5 201.504 212.713)" fill="#EC433B"/>
<rect x="58.8767" y="225.192" width="7.15862" height="7.15862" transform="rotate(-5 58.8767 225.192)" fill="#EC433B"/>
<rect x="172.979" y="215.209" width="7.15862" height="7.15862" transform="rotate(-5 172.979 215.209)" fill="#EC433B"/>
<rect x="115.928" y="220.2" width="7.15862" height="7.15862" transform="rotate(-5 115.928 220.2)" fill="#EC433B"/>
<rect x="230.03" y="210.218" width="7.15862" height="7.15862" transform="rotate(-5 230.03 210.218)" fill="#EC433B"/>
<rect x="244.293" y="208.97" width="7.15862" height="7.15862" transform="rotate(-5 244.293 208.97)" fill="#EC433B"/>
<path opacity="0.7" d="M154.853 459.77L95.2019 275.908L138.436 272.126C137.366 272.219 148.935 397.261 154.853 459.77Z" fill="url(#paint12_linear_72_251)"/>
<path opacity="0.7" d="M155.327 459.729L182.144 268.302L138.91 272.084C139.98 271.991 150.3 397.142 155.327 459.729Z" fill="url(#paint13_linear_72_251)"/>
<path d="M136.152 240.887L152.729 265.914L185.024 267.335L163.711 289.809L171.692 318.212L141.943 307.075L114.579 323.209L117.506 293.851L92.6147 275.419L124.173 268.413L136.152 240.887Z" fill="url(#paint14_linear_72_251)"/>
<path d="M136.315 242.754L151.983 266.408L152.234 266.788L152.689 266.808L183.025 268.142L163.062 289.193L162.712 289.562L162.85 290.051L170.353 316.756L142.256 306.237L141.856 306.087L141.488 306.304L115.645 321.542L118.397 293.94L118.447 293.435L118.039 293.132L94.7238 275.868L124.367 269.286L124.811 269.187L124.993 268.77L136.315 242.754Z" stroke="white" stroke-opacity="0.5" stroke-width="1.78966"/>
<path opacity="0.7" d="M155.454 461.514L141.884 306.407L114.567 322.719L155.454 461.514Z" fill="url(#paint15_linear_72_251)"/>
<path opacity="0.7" d="M155.009 461.553L141.439 306.446L171.173 317.767L155.009 461.553Z" fill="url(#paint16_linear_72_251)"/>
<g filter="url(#filter4_d_72_251)">
<path d="M76.8744 441.013L83.8133 440.406L85.3687 458.184C85.5079 459.873 85.2116 461.396 84.4797 462.753C83.7555 464.101 82.6862 465.198 81.2717 466.045C79.8649 466.882 78.2034 467.385 76.2872 467.552C74.6242 467.698 73.0796 467.544 71.6534 467.09C70.2265 466.628 69.0494 465.812 68.122 464.643C67.1938 463.466 66.6468 461.88 66.481 459.887L73.5212 459.271C73.6034 459.919 73.7611 460.458 73.9944 460.889C74.2362 461.318 74.5443 461.632 74.9188 461.828C75.301 462.016 75.7495 462.088 76.2645 462.042C76.7878 461.997 77.2168 461.844 77.5514 461.585C77.8945 461.326 78.1393 460.964 78.2858 460.5C78.4317 460.028 78.4796 459.458 78.4297 458.791L76.8744 441.013ZM96.1549 465.457L88.5575 466.122L94.8484 439.441L104.472 438.599L115.3 463.782L107.703 464.447L100.386 446.152L100.184 446.17L96.1549 465.457ZM93.8416 455.35L108.125 454.1L108.585 459.368L94.3025 460.617L93.8416 455.35ZM139.371 445.344L132.23 445.969C132.128 445.383 131.946 444.858 131.684 444.396C131.431 443.934 131.099 443.546 130.689 443.233C130.287 442.911 129.811 442.68 129.263 442.541C128.714 442.394 128.102 442.349 127.427 442.408C126.245 442.512 125.27 442.886 124.501 443.532C123.741 444.177 123.197 445.054 122.869 446.163C122.549 447.271 122.455 448.577 122.586 450.079C122.725 451.666 123.052 452.977 123.568 454.012C124.092 455.038 124.782 455.786 125.64 456.255C126.497 456.716 127.495 456.897 128.635 456.797C129.285 456.74 129.86 456.609 130.361 456.404C130.861 456.19 131.288 455.91 131.64 455.565C131.993 455.219 132.268 454.816 132.466 454.357C132.672 453.888 132.792 453.371 132.828 452.807L139.974 452.233C139.986 453.337 139.775 454.483 139.343 455.669C138.91 456.847 138.246 457.959 137.351 459.007C136.464 460.046 135.328 460.92 133.944 461.628C132.56 462.336 130.918 462.773 129.019 462.939C126.639 463.147 124.458 462.823 122.478 461.967C120.506 461.111 118.885 459.738 117.614 457.851C116.351 455.962 115.595 453.583 115.343 450.713C115.091 447.826 115.435 445.346 116.377 443.273C117.317 441.192 118.689 439.562 120.491 438.384C122.293 437.197 124.358 436.501 126.688 436.298C128.326 436.154 129.852 436.246 131.267 436.573C132.683 436.9 133.947 437.449 135.061 438.219C136.173 438.981 137.101 439.959 137.844 441.153C138.586 442.347 139.095 443.744 139.371 445.344ZM143.983 461.273L141.715 435.34L148.755 434.724L149.672 445.209L150.027 445.178L156.909 434.011L165.114 433.293L157.363 445.608L167.586 459.208L159.178 459.943L152.503 450.728L150.439 453.971L151.024 460.657L143.983 461.273ZM169.473 459.043L167.204 433.11L178.397 432.131C180.322 431.963 182.039 432.195 183.549 432.829C185.059 433.462 186.275 434.432 187.198 435.737C188.12 437.043 188.662 438.616 188.823 440.456C188.985 442.314 188.712 443.958 188.004 445.389C187.304 446.82 186.243 447.968 184.822 448.832C183.409 449.696 181.714 450.214 179.739 450.387L173.054 450.972L172.575 445.502L177.842 445.041C178.67 444.968 179.362 444.763 179.919 444.425C180.484 444.078 180.899 443.621 181.165 443.053C181.438 442.485 181.543 441.833 181.478 441.099C181.413 440.356 181.198 439.737 180.831 439.242C180.472 438.737 179.985 438.372 179.37 438.145C178.762 437.909 178.045 437.827 177.218 437.899L174.736 438.116L176.513 458.427L169.473 459.043ZM216.86 441.831C217.112 444.718 216.764 447.203 215.815 449.285C214.865 451.358 213.481 452.989 211.663 454.178C209.843 455.357 207.76 456.05 205.414 456.255C203.05 456.462 200.87 456.138 198.873 455.284C196.883 454.42 195.241 453.05 193.945 451.173C192.657 449.286 191.888 446.908 191.637 444.038C191.384 441.151 191.729 438.671 192.67 436.598C193.619 434.516 194.999 432.886 196.81 431.707C198.628 430.518 200.719 429.821 203.083 429.614C205.43 429.409 207.602 429.733 209.599 430.588C211.595 431.434 213.241 432.8 214.538 434.685C215.833 436.562 216.607 438.944 216.86 441.831ZM209.617 442.465C209.481 440.912 209.16 439.621 208.653 438.594C208.154 437.557 207.48 436.8 206.63 436.321C205.788 435.833 204.784 435.641 203.619 435.742C202.454 435.844 201.495 436.209 200.742 436.836C199.996 437.454 199.464 438.318 199.144 439.426C198.832 440.525 198.744 441.851 198.88 443.404C199.015 444.958 199.333 446.253 199.832 447.289C200.339 448.317 201.013 449.074 201.855 449.562C202.705 450.04 203.713 450.229 204.878 450.127C206.042 450.025 206.998 449.665 207.743 449.047C208.496 448.419 209.029 447.556 209.341 446.457C209.661 445.349 209.753 444.018 209.617 442.465ZM217.551 434.422L217.055 428.749L239.594 426.777L240.09 432.45L232.29 433.132L234.063 453.392L227.124 453.999L225.351 433.739L217.551 434.422Z" fill="white"/>
</g>
<g filter="url(#filter5_d_72_251)">
<path d="M98.3649 398.634C98.1952 397.628 97.7462 396.871 97.0179 396.364C96.2997 395.855 95.2568 395.66 93.8893 395.78C93.0181 395.856 92.3133 396.025 91.7748 396.286C91.2455 396.537 90.8647 396.851 90.6323 397.228C90.3999 397.606 90.2986 398.023 90.3284 398.48C90.3409 398.856 90.4365 399.19 90.615 399.481C90.8028 399.76 91.0795 400.007 91.4452 400.22C91.81 400.422 92.2692 400.597 92.823 400.742C93.3767 400.888 94.0299 401.004 94.7827 401.091L97.3833 401.415C99.1372 401.629 100.653 401.981 101.931 402.472C103.209 402.962 104.274 403.578 105.125 404.32C105.975 405.052 106.626 405.904 107.078 406.875C107.541 407.845 107.829 408.922 107.943 410.106C108.112 412.153 107.752 413.93 106.863 415.437C105.974 416.944 104.62 418.15 102.8 419.054C100.991 419.957 98.7693 420.524 96.1356 420.755C93.4309 420.991 91.0356 420.798 88.9498 420.174C86.8741 419.549 85.2064 418.455 83.9468 416.891C82.6964 415.316 81.9523 413.227 81.7144 410.625L89.7372 409.923C89.8711 410.871 90.1792 411.65 90.6614 412.261C91.1436 412.872 91.7842 413.311 92.5833 413.578C93.3925 413.844 94.334 413.93 95.4078 413.836C96.3094 413.758 97.0543 413.58 97.6426 413.304C98.2309 413.028 98.6647 412.679 98.9442 412.256C99.2237 411.834 99.3463 411.369 99.3121 410.861C99.2603 410.386 99.067 409.985 98.7321 409.657C98.4064 409.318 97.8918 409.036 97.1883 408.812C96.4839 408.577 95.5432 408.384 94.3663 408.232L91.2081 407.835C88.4005 407.478 86.1403 406.67 84.4276 405.411C82.7242 404.142 81.7712 402.291 81.5686 399.859C81.3857 397.884 81.7613 396.111 82.6956 394.539C83.6391 392.956 85.0216 391.666 86.8432 390.67C88.6749 389.673 90.8216 389.066 93.2831 388.851C95.7953 388.631 98.0049 388.862 99.912 389.542C101.819 390.222 103.336 391.284 104.462 392.727C105.598 394.158 106.26 395.892 106.448 397.927L98.3649 398.634ZM140.744 400.806C141.047 404.27 140.629 407.252 139.491 409.75C138.351 412.238 136.69 414.195 134.508 415.621C132.325 417.037 129.825 417.868 127.009 418.115C124.173 418.363 121.556 417.974 119.16 416.949C116.772 415.912 114.801 414.268 113.247 412.016C111.701 409.752 110.778 406.898 110.476 403.454C110.173 399.99 110.587 397.014 111.716 394.526C112.855 392.028 114.511 390.071 116.684 388.656C118.866 387.23 121.376 386.393 124.212 386.145C127.028 385.899 129.634 386.288 132.031 387.314C134.427 388.329 136.402 389.968 137.958 392.231C139.512 394.483 140.441 397.342 140.744 400.806ZM132.053 401.566C131.89 399.702 131.504 398.154 130.896 396.921C130.298 395.677 129.488 394.768 128.468 394.194C127.458 393.609 126.253 393.377 124.855 393.499C123.457 393.622 122.307 394.059 121.403 394.812C120.508 395.554 119.869 396.59 119.485 397.919C119.111 399.238 119.005 400.83 119.168 402.694C119.331 404.558 119.712 406.111 120.311 407.355C120.919 408.588 121.728 409.497 122.739 410.083C123.759 410.657 124.968 410.883 126.366 410.761C127.763 410.638 128.91 410.206 129.804 409.465C130.708 408.712 131.347 407.676 131.722 406.357C132.106 405.027 132.216 403.43 132.053 401.566ZM170.217 382.549L172.939 413.668L165.889 414.285L153.215 398.919L153.032 398.935L154.463 415.284L146.014 416.023L143.292 384.905L150.464 384.277L162.951 399.598L163.194 399.577L161.769 383.288L170.217 382.549ZM182.661 381.46L185.384 412.579L176.936 413.318L174.213 382.199L182.661 381.46ZM216.738 390.238L208.169 390.987C208.046 390.284 207.827 389.655 207.514 389.1C207.21 388.545 206.812 388.08 206.32 387.704C205.837 387.318 205.266 387.041 204.609 386.874C203.95 386.697 203.216 386.644 202.405 386.715C200.987 386.839 199.817 387.288 198.895 388.063C197.982 388.837 197.329 389.889 196.935 391.22C196.552 392.55 196.439 394.116 196.596 395.92C196.763 397.824 197.156 399.397 197.775 400.639C198.403 401.871 199.232 402.768 200.261 403.331C201.289 403.884 202.487 404.101 203.855 403.981C204.635 403.913 205.325 403.756 205.926 403.509C206.527 403.252 207.038 402.917 207.461 402.502C207.884 402.087 208.215 401.604 208.452 401.053C208.699 400.49 208.844 399.87 208.886 399.193L217.462 398.504C217.476 399.829 217.223 401.204 216.705 402.627C216.185 404.04 215.389 405.376 214.315 406.634C213.25 407.88 211.887 408.928 210.226 409.778C208.565 410.627 206.595 411.152 204.316 411.351C201.459 411.601 198.843 411.213 196.466 410.185C194.1 409.157 192.155 407.511 190.629 405.245C189.114 402.979 188.206 400.124 187.905 396.68C187.602 393.216 188.015 390.24 189.145 387.752C190.274 385.255 191.92 383.299 194.082 381.885C196.244 380.461 198.723 379.626 201.519 379.382C203.484 379.21 205.316 379.32 207.014 379.712C208.712 380.105 210.229 380.763 211.566 381.687C212.901 382.601 214.014 383.775 214.905 385.208C215.796 386.64 216.407 388.317 216.738 390.238Z" fill="white"/>
</g>
<path d="M156.869 478.906L163.661 489.01L176.921 489.565L168.157 498.659L171.417 510.132L159.208 505.649L147.963 512.184L149.182 500.319L138.972 492.885L151.934 490.036L156.869 478.906Z" fill="url(#paint17_linear_72_251)"/>
<path d="M157.03 480.745L162.92 489.508L163.172 489.883L163.624 489.902L174.902 490.374L167.514 498.04L167.158 498.41L167.298 498.903L170.08 508.69L159.516 504.811L159.122 504.667L158.76 504.877L149.03 510.532L150.07 500.411L150.122 499.9L149.707 499.598L141.101 493.331L152.126 490.908L152.567 490.811L152.75 490.398L157.03 480.745Z" stroke="white" stroke-opacity="0.5" stroke-width="1.78492"/>
<path d="M206.109 474.598L212.901 484.702L226.161 485.257L217.397 494.351L220.658 505.824L208.449 501.341L197.204 507.876L198.423 496.011L188.212 488.577L201.175 485.728L206.109 474.598Z" fill="url(#paint18_linear_72_251)"/>
<path d="M206.27 476.437L212.161 485.2L212.413 485.575L212.864 485.594L224.142 486.066L216.754 493.732L216.398 494.102L216.539 494.595L219.32 504.382L208.756 500.503L208.363 500.359L208 500.569L198.271 506.224L199.31 496.103L199.363 495.592L198.948 495.29L190.341 489.023L201.366 486.6L201.807 486.503L201.99 486.09L206.27 476.437Z" stroke="white" stroke-opacity="0.5" stroke-width="1.78492"/>
<path d="M107.841 483.196L114.633 493.299L127.893 493.855L119.129 502.949L122.389 514.422L110.18 509.938L98.9354 516.474L100.154 504.609L89.9439 497.175L102.906 494.325L107.841 483.196Z" fill="url(#paint19_linear_72_251)"/>
<path d="M108.001 485.035L113.892 493.797L114.144 494.172L114.595 494.191L125.874 494.663L118.486 502.329L118.13 502.699L118.27 503.193L121.051 512.98L110.488 509.101L110.094 508.956L109.732 509.167L100.002 514.821L101.042 504.7L101.094 504.189L100.679 503.887L92.0725 497.621L103.098 495.197L103.539 495.1L103.722 494.687L108.001 485.035Z" stroke="white" stroke-opacity="0.5" stroke-width="1.78492"/>
<g filter="url(#filter6_d_72_251)">
<path fill-rule="evenodd" clip-rule="evenodd" d="M76 36C76 39.9765 72.4183 43.2 68 43.2C66.9391 43.2 65.9264 43.0142 65 42.6766V216H335V42.6766C334.074 43.0142 333.061 43.2 332 43.2C327.582 43.2 324 39.9765 324 36H316C316 39.9765 312.418 43.2 308 43.2C303.582 43.2 300 39.9765 300 36H292C292 39.9765 288.418 43.2 284 43.2C279.582 43.2 276 39.9765 276 36H268C268 39.9765 264.418 43.2 260 43.2C255.582 43.2 252 39.9765 252 36H244C244 39.9765 240.418 43.2 236 43.2C231.582 43.2 228 39.9765 228 36H220C220 39.9765 216.418 43.2 212 43.2C207.582 43.2 204 39.9765 204 36H196C196 39.9765 192.418 43.2 188 43.2C183.582 43.2 180 39.9765 180 36H172C172 39.9765 168.418 43.2 164 43.2C159.582 43.2 156 39.9765 156 36H148C148 39.9765 144.418 43.2 140 43.2C135.582 43.2 132 39.9765 132 36H124C124 39.9765 120.418 43.2 116 43.2C111.582 43.2 108 39.9765 108 36H100C100 39.9765 96.4183 43.2 92 43.2C87.5817 43.2 84 39.9765 84 36L76 36C76 36 76 36 76 36Z" fill="url(#paint20_linear_72_251)"/>
<g filter="url(#filter7_d_72_251)">
<path d="M154.432 118.091V153H144.955V126.818H144.75L137.114 131.386V123.341L145.705 118.091H154.432ZM176.804 153.955C173.634 153.943 170.895 153.21 168.588 151.756C166.281 150.301 164.503 148.205 163.253 145.466C162.003 142.727 161.384 139.443 161.395 135.614C161.406 131.773 162.031 128.511 163.27 125.83C164.52 123.148 166.293 121.108 168.588 119.71C170.895 118.312 173.634 117.614 176.804 117.614C179.974 117.614 182.713 118.318 185.02 119.727C187.327 121.125 189.105 123.165 190.355 125.847C191.605 128.528 192.224 131.784 192.213 135.614C192.213 139.466 191.588 142.761 190.338 145.5C189.088 148.239 187.31 150.335 185.003 151.79C182.707 153.233 179.974 153.955 176.804 153.955ZM176.804 146.25C178.44 146.25 179.781 145.398 180.827 143.693C181.884 141.977 182.406 139.284 182.395 135.614C182.395 133.216 182.156 131.256 181.679 129.733C181.202 128.21 180.543 127.085 179.702 126.358C178.861 125.619 177.895 125.25 176.804 125.25C175.168 125.25 173.832 126.08 172.798 127.739C171.764 129.398 171.236 132.023 171.213 135.614C171.202 138.057 171.435 140.068 171.912 141.648C172.389 143.216 173.048 144.375 173.889 145.125C174.741 145.875 175.713 146.25 176.804 146.25ZM211.866 153.955C208.696 153.943 205.957 153.21 203.651 151.756C201.344 150.301 199.565 148.205 198.315 145.466C197.065 142.727 196.446 139.443 196.457 135.614C196.469 131.773 197.094 128.511 198.332 125.83C199.582 123.148 201.355 121.108 203.651 119.71C205.957 118.312 208.696 117.614 211.866 117.614C215.037 117.614 217.776 118.318 220.082 119.727C222.389 121.125 224.168 123.165 225.418 125.847C226.668 128.528 227.287 131.784 227.276 135.614C227.276 139.466 226.651 142.761 225.401 145.5C224.151 148.239 222.372 150.335 220.065 151.79C217.77 153.233 215.037 153.955 211.866 153.955ZM211.866 146.25C213.503 146.25 214.844 145.398 215.889 143.693C216.946 141.977 217.469 139.284 217.457 135.614C217.457 133.216 217.219 131.256 216.741 129.733C216.264 128.21 215.605 127.085 214.764 126.358C213.923 125.619 212.957 125.25 211.866 125.25C210.23 125.25 208.895 126.08 207.861 127.739C206.827 129.398 206.298 132.023 206.276 135.614C206.264 138.057 206.497 140.068 206.974 141.648C207.452 143.216 208.111 144.375 208.952 145.125C209.804 145.875 210.776 146.25 211.866 146.25ZM246.929 153.955C243.759 153.943 241.02 153.21 238.713 151.756C236.406 150.301 234.628 148.205 233.378 145.466C232.128 142.727 231.509 139.443 231.52 135.614C231.531 131.773 232.156 128.511 233.395 125.83C234.645 123.148 236.418 121.108 238.713 119.71C241.02 118.312 243.759 117.614 246.929 117.614C250.099 117.614 252.838 118.318 255.145 119.727C257.452 121.125 259.23 123.165 260.48 125.847C261.73 128.528 262.349 131.784 262.338 135.614C262.338 139.466 261.713 142.761 260.463 145.5C259.213 148.239 257.435 150.335 255.128 151.79C252.832 153.233 250.099 153.955 246.929 153.955ZM246.929 146.25C248.565 146.25 249.906 145.398 250.952 143.693C252.009 141.977 252.531 139.284 252.52 135.614C252.52 133.216 252.281 131.256 251.804 129.733C251.327 128.21 250.668 127.085 249.827 126.358C248.986 125.619 248.02 125.25 246.929 125.25C245.293 125.25 243.957 126.08 242.923 127.739C241.889 129.398 241.361 132.023 241.338 135.614C241.327 138.057 241.56 140.068 242.037 141.648C242.514 143.216 243.173 144.375 244.014 145.125C244.866 145.875 245.838 146.25 246.929 146.25Z" fill="white"/>
</g>
<path fill-rule="evenodd" clip-rule="evenodd" d="M335 216H65V568.145C65.9264 567.748 66.9391 567.529 68 567.529C72.4183 567.529 76 571.322 76 576H84C84 571.322 87.5817 567.529 92 567.529C96.4183 567.529 100 571.322 100 576H108C108 571.322 111.582 567.529 116 567.529C120.418 567.529 124 571.322 124 576H132C132 571.322 135.582 567.529 140 567.529C144.418 567.529 148 571.322 148 576H156C156 571.322 159.582 567.529 164 567.529C168.418 567.529 172 571.322 172 576H180C180 571.322 183.582 567.529 188 567.529C192.418 567.529 196 571.322 196 576H204C204 571.322 207.582 567.529 212 567.529C216.418 567.529 220 571.322 220 576H228C228 571.322 231.582 567.529 236 567.529C240.418 567.529 244 571.322 244 576H252C252 571.322 255.582 567.529 260 567.529C264.418 567.529 268 571.322 268 576H276C276 571.322 279.582 567.529 284 567.529C288.418 567.529 292 571.322 292 576H300C300 571.322 303.582 567.529 308 567.529C312.418 567.529 316 571.322 316 576H324C324 571.322 327.582 567.529 332 567.529C333.061 567.529 334.074 567.748 335 568.145V216Z" fill="url(#paint21_linear_72_251)"/>
<rect x="68" y="208" width="8" height="8" fill="#EC433B"/>
<rect x="196" y="208" width="8" height="8" fill="#EC433B"/>
<rect x="132" y="208" width="8" height="8" fill="#EC433B"/>
<rect x="260" y="208" width="8" height="8" fill="#EC433B"/>
<rect x="100" y="208" width="8" height="8" fill="#EC433B"/>
<rect x="228" y="208" width="8" height="8" fill="#EC433B"/>
<rect x="164" y="208" width="8" height="8" fill="#EC433B"/>
<rect x="292" y="208" width="8" height="8" fill="#EC433B"/>
<rect x="84" y="208" width="8" height="8" fill="#EC433B"/>
<rect x="212" y="208" width="8" height="8" fill="#EC433B"/>
<rect x="148" y="208" width="8" height="8" fill="#EC433B"/>
<rect x="276" y="208" width="8" height="8" fill="#EC433B"/>
<rect x="116" y="208" width="8" height="8" fill="#EC433B"/>
<rect x="244" y="208" width="8" height="8" fill="#EC433B"/>
<rect x="180" y="208" width="8" height="8" fill="#EC433B"/>
<rect x="308" y="208" width="8" height="8" fill="#EC433B"/>
<rect x="324" y="208" width="8" height="8" fill="#EC433B"/>
<path opacity="0.7" d="M200 478.5L151.5 268H200C198.8 268 199.5 408.333 200 478.5Z" fill="url(#paint22_linear_72_251)"/>
<path opacity="0.7" d="M200.532 478.5L249.032 268H200.532C201.732 268 201.032 408.333 200.532 478.5Z" fill="url(#paint23_linear_72_251)"/>
<path d="M200.5 233L216.517 262.477L252.333 267.204L226.416 290.148L232.534 322.546L200.5 307.25L168.466 322.546L174.584 290.148L148.667 267.204L184.483 262.477L200.5 233Z" fill="url(#paint24_linear_72_251)"/>
<path d="M200.5 235.094L215.638 262.954L215.882 263.402L216.386 263.468L250.028 267.908L225.753 289.399L225.328 289.776L225.434 290.334L231.186 320.794L200.931 306.348L200.5 306.142L200.069 306.348L169.814 320.794L175.566 290.334L175.672 289.776L175.247 289.399L150.972 267.908L184.614 263.468L185.118 263.402L185.362 262.954L200.5 235.094Z" stroke="white" stroke-opacity="0.5" stroke-width="2"/>
<path opacity="0.7" d="M200.5 480.5V306.5L168.5 322L200.5 480.5Z" fill="url(#paint25_linear_72_251)"/>
<path opacity="0.7" d="M200 480.5V306.5L232 322L200 480.5Z" fill="url(#paint26_linear_72_251)"/>
<g filter="url(#filter8_d_72_251)">
<path d="M115.114 449.909H122.898V469.852C122.888 471.746 122.41 473.413 121.463 474.852C120.526 476.282 119.228 477.4 117.571 478.205C115.923 479 114.025 479.398 111.875 479.398C110.009 479.398 108.305 479.076 106.761 478.432C105.218 477.778 103.987 476.756 103.068 475.364C102.15 473.962 101.695 472.144 101.705 469.909H109.602C109.631 470.638 109.754 471.254 109.972 471.756C110.199 472.258 110.511 472.636 110.909 472.892C111.316 473.138 111.809 473.261 112.386 473.261C112.973 473.261 113.466 473.134 113.864 472.878C114.271 472.622 114.579 472.243 114.787 471.741C114.995 471.23 115.104 470.6 115.114 469.852V449.909ZM134.197 479H125.675L135.277 449.909H146.072L155.675 479H147.152L140.788 457.92H140.561L134.197 479ZM132.607 467.523H148.629V473.432H132.607V467.523ZM184.268 460.818H176.257C176.2 460.155 176.049 459.554 175.803 459.014C175.566 458.474 175.234 458.01 174.808 457.622C174.392 457.224 173.885 456.921 173.288 456.713C172.692 456.495 172.015 456.386 171.257 456.386C169.931 456.386 168.809 456.708 167.891 457.352C166.982 457.996 166.29 458.92 165.817 460.122C165.353 461.325 165.121 462.769 165.121 464.455C165.121 466.235 165.357 467.726 165.831 468.929C166.314 470.122 167.01 471.022 167.919 471.628C168.828 472.224 169.922 472.523 171.2 472.523C171.929 472.523 172.583 472.433 173.161 472.253C173.738 472.063 174.24 471.794 174.666 471.443C175.092 471.093 175.438 470.671 175.703 470.179C175.978 469.677 176.162 469.114 176.257 468.489L184.268 468.545C184.174 469.777 183.828 471.031 183.232 472.31C182.635 473.579 181.787 474.753 180.689 475.832C179.6 476.902 178.25 477.764 176.641 478.418C175.031 479.071 173.161 479.398 171.03 479.398C168.359 479.398 165.964 478.825 163.842 477.679C161.731 476.533 160.059 474.848 158.828 472.622C157.607 470.397 156.996 467.674 156.996 464.455C156.996 461.216 157.621 458.489 158.871 456.273C160.121 454.047 161.806 452.366 163.928 451.23C166.049 450.084 168.416 449.511 171.03 449.511C172.867 449.511 174.557 449.762 176.101 450.264C177.644 450.766 178.999 451.5 180.163 452.466C181.328 453.422 182.266 454.601 182.976 456.003C183.686 457.404 184.117 459.009 184.268 460.818ZM187.852 479V449.909H195.749V461.67H196.147L204.897 449.909H214.102L204.272 462.864L214.329 479H204.897L198.363 468.091L195.749 471.5V479H187.852ZM216.445 479V449.909H229.002C231.161 449.909 233.05 450.335 234.67 451.188C236.289 452.04 237.549 453.238 238.448 454.781C239.348 456.325 239.798 458.129 239.798 460.193C239.798 462.277 239.334 464.08 238.406 465.605C237.487 467.13 236.194 468.304 234.528 469.128C232.871 469.952 230.934 470.364 228.718 470.364H221.218V464.227H227.127C228.055 464.227 228.846 464.066 229.499 463.744C230.162 463.413 230.669 462.944 231.019 462.338C231.379 461.732 231.559 461.017 231.559 460.193C231.559 459.36 231.379 458.65 231.019 458.062C230.669 457.466 230.162 457.011 229.499 456.699C228.846 456.377 228.055 456.216 227.127 456.216H224.343V479H216.445ZM270.877 464.455C270.877 467.693 270.247 470.425 268.988 472.651C267.728 474.866 266.029 476.547 263.888 477.693C261.748 478.83 259.362 479.398 256.729 479.398C254.078 479.398 251.682 478.825 249.542 477.679C247.411 476.524 245.716 474.838 244.457 472.622C243.207 470.397 242.582 467.674 242.582 464.455C242.582 461.216 243.207 458.489 244.457 456.273C245.716 454.047 247.411 452.366 249.542 451.23C251.682 450.084 254.078 449.511 256.729 449.511C259.362 449.511 261.748 450.084 263.888 451.23C266.029 452.366 267.728 454.047 268.988 456.273C270.247 458.489 270.877 461.216 270.877 464.455ZM262.752 464.455C262.752 462.712 262.52 461.244 262.056 460.051C261.602 458.848 260.924 457.939 260.025 457.324C259.135 456.699 258.036 456.386 256.729 456.386C255.423 456.386 254.319 456.699 253.42 457.324C252.53 457.939 251.853 458.848 251.388 460.051C250.934 461.244 250.707 462.712 250.707 464.455C250.707 466.197 250.934 467.67 251.388 468.872C251.853 470.065 252.53 470.974 253.42 471.599C254.319 472.215 255.423 472.523 256.729 472.523C258.036 472.523 259.135 472.215 260.025 471.599C260.924 470.974 261.602 470.065 262.056 468.872C262.52 467.67 262.752 466.197 262.752 464.455ZM272.369 456.273V449.909H297.653V456.273H288.903V479H281.119V456.273H272.369Z" fill="white"/>
</g>
<g filter="url(#filter9_d_72_251)">
<path d="M143.068 404C142.977 402.864 142.551 401.977 141.79 401.341C141.04 400.705 139.898 400.386 138.364 400.386C137.386 400.386 136.585 400.506 135.96 400.744C135.347 400.972 134.892 401.284 134.597 401.682C134.301 402.08 134.148 402.534 134.136 403.045C134.114 403.466 134.188 403.847 134.358 404.188C134.54 404.517 134.824 404.818 135.21 405.091C135.597 405.352 136.091 405.591 136.693 405.807C137.295 406.023 138.011 406.216 138.841 406.386L141.705 407C143.636 407.409 145.29 407.949 146.665 408.619C148.04 409.29 149.165 410.08 150.04 410.989C150.915 411.886 151.557 412.898 151.966 414.023C152.386 415.148 152.602 416.375 152.614 417.705C152.602 420 152.028 421.943 150.892 423.534C149.756 425.125 148.131 426.335 146.017 427.165C143.915 427.994 141.386 428.409 138.432 428.409C135.398 428.409 132.75 427.96 130.489 427.062C128.239 426.165 126.489 424.784 125.239 422.92C124 421.045 123.375 418.648 123.364 415.727H132.364C132.42 416.795 132.688 417.693 133.165 418.42C133.642 419.148 134.313 419.699 135.176 420.074C136.051 420.449 137.091 420.636 138.295 420.636C139.307 420.636 140.153 420.511 140.835 420.261C141.517 420.011 142.034 419.665 142.386 419.222C142.739 418.778 142.92 418.273 142.932 417.705C142.92 417.17 142.744 416.705 142.403 416.307C142.074 415.898 141.528 415.534 140.767 415.216C140.006 414.886 138.977 414.58 137.682 414.295L134.205 413.545C131.114 412.875 128.676 411.756 126.892 410.188C125.119 408.608 124.239 406.455 124.25 403.727C124.239 401.511 124.83 399.574 126.023 397.915C127.227 396.244 128.892 394.943 131.017 394.011C133.153 393.08 135.602 392.614 138.364 392.614C141.182 392.614 143.619 393.085 145.676 394.028C147.733 394.972 149.318 396.301 150.432 398.017C151.557 399.722 152.125 401.716 152.136 404H143.068ZM190.037 410.545C190.037 414.432 189.281 417.71 187.77 420.381C186.259 423.04 184.219 425.057 181.651 426.432C179.082 427.795 176.219 428.477 173.06 428.477C169.878 428.477 167.003 427.79 164.435 426.415C161.878 425.028 159.844 423.006 158.332 420.347C156.832 417.676 156.082 414.409 156.082 410.545C156.082 406.659 156.832 403.386 158.332 400.727C159.844 398.057 161.878 396.04 164.435 394.676C167.003 393.301 169.878 392.614 173.06 392.614C176.219 392.614 179.082 393.301 181.651 394.676C184.219 396.04 186.259 398.057 187.77 400.727C189.281 403.386 190.037 406.659 190.037 410.545ZM180.287 410.545C180.287 408.455 180.009 406.693 179.452 405.261C178.906 403.818 178.094 402.727 177.014 401.989C175.946 401.239 174.628 400.864 173.06 400.864C171.491 400.864 170.168 401.239 169.088 401.989C168.02 402.727 167.207 403.818 166.651 405.261C166.105 406.693 165.832 408.455 165.832 410.545C165.832 412.636 166.105 414.403 166.651 415.847C167.207 417.278 168.02 418.369 169.088 419.119C170.168 419.858 171.491 420.227 173.06 420.227C174.628 420.227 175.946 419.858 177.014 419.119C178.094 418.369 178.906 417.278 179.452 415.847C180.009 414.403 180.287 412.636 180.287 410.545ZM224.626 393.091V428H216.717L204.104 409.659H203.899V428H194.422V393.091H202.467L214.876 411.364H215.149V393.091H224.626ZM238.587 393.091V428H229.109V393.091H238.587ZM275.669 406.182H266.055C265.987 405.386 265.805 404.665 265.51 404.017C265.226 403.369 264.828 402.812 264.317 402.347C263.817 401.869 263.209 401.506 262.493 401.256C261.777 400.994 260.964 400.864 260.055 400.864C258.464 400.864 257.118 401.25 256.016 402.023C254.925 402.795 254.095 403.903 253.527 405.347C252.97 406.79 252.692 408.523 252.692 410.545C252.692 412.682 252.976 414.472 253.544 415.915C254.124 417.347 254.959 418.426 256.05 419.153C257.141 419.869 258.453 420.227 259.987 420.227C260.862 420.227 261.646 420.119 262.339 419.903C263.033 419.676 263.635 419.352 264.146 418.932C264.658 418.511 265.072 418.006 265.391 417.415C265.72 416.812 265.942 416.136 266.055 415.386L275.669 415.455C275.555 416.932 275.141 418.437 274.425 419.972C273.709 421.494 272.692 422.903 271.374 424.199C270.067 425.483 268.447 426.517 266.516 427.301C264.584 428.085 262.339 428.477 259.783 428.477C256.578 428.477 253.703 427.79 251.158 426.415C248.624 425.04 246.618 423.017 245.141 420.347C243.675 417.676 242.942 414.409 242.942 410.545C242.942 406.659 243.692 403.386 245.192 400.727C246.692 398.057 248.714 396.04 251.26 394.676C253.805 393.301 256.646 392.614 259.783 392.614C261.987 392.614 264.016 392.915 265.868 393.517C267.72 394.119 269.345 395 270.743 396.159C272.141 397.307 273.266 398.722 274.118 400.403C274.97 402.085 275.487 404.011 275.669 406.182Z" fill="white"/>
</g>
<path d="M200.5 500L207.113 511.91L221.899 513.82L211.199 523.09L213.725 536.18L200.5 530L187.275 536.18L189.801 523.09L179.101 513.82L193.887 511.91L200.5 500Z" fill="url(#paint27_linear_72_251)"/>
<path d="M200.5 502.06L206.238 512.395L206.484 512.837L206.984 512.902L219.557 514.526L210.545 522.334L210.108 522.713L210.217 523.28L212.372 534.444L200.923 529.094L200.5 528.896L200.077 529.094L188.628 534.444L190.783 523.28L190.892 522.713L190.455 522.334L181.443 514.526L194.016 512.902L194.516 512.837L194.762 512.395L200.5 502.06Z" stroke="white" stroke-opacity="0.5" stroke-width="2"/>
<path d="M255.5 500L262.113 511.91L276.899 513.82L266.199 523.09L268.725 536.18L255.5 530L242.275 536.18L244.801 523.09L234.101 513.82L248.887 511.91L255.5 500Z" fill="url(#paint28_linear_72_251)"/>
<path d="M255.5 502.06L261.238 512.395L261.484 512.837L261.984 512.902L274.557 514.526L265.545 522.334L265.108 522.713L265.217 523.28L267.372 534.444L255.923 529.094L255.5 528.896L255.077 529.094L243.628 534.444L245.783 523.28L245.892 522.713L245.455 522.334L236.443 514.526L249.016 512.902L249.516 512.837L249.762 512.395L255.5 502.06Z" stroke="white" stroke-opacity="0.5" stroke-width="2"/>
<path d="M145.5 500L152.113 511.91L166.899 513.82L156.199 523.09L158.725 536.18L145.5 530L132.275 536.18L134.801 523.09L124.101 513.82L138.887 511.91L145.5 500Z" fill="url(#paint29_linear_72_251)"/>
<path d="M145.5 502.06L151.238 512.395L151.484 512.837L151.984 512.902L164.557 514.526L155.545 522.334L155.108 522.713L155.217 523.28L157.372 534.444L145.923 529.094L145.5 528.896L145.077 529.094L133.628 534.444L135.783 523.28L135.892 522.713L135.455 522.334L126.443 514.526L139.016 512.902L139.516 512.837L139.762 512.395L145.5 502.06Z" stroke="white" stroke-opacity="0.5" stroke-width="2"/>
</g>
<defs>
<filter id="filter0_d_72_251" x="203.388" y="130.419" width="135.953" height="63.6385" filterUnits="userSpaceOnUse" color-interpolation-filters="sRGB">
<feFlood flood-opacity="0" result="BackgroundImageFix"/>
<feColorMatrix in="SourceAlpha" type="matrix" values="0 0 0 0 0 0 0 0 0 0 0 0 0 0 0 0 0 0 127 0" result="hardAlpha"/>
<feOffset dy="7.15862"/>
<feGaussianBlur stdDeviation="5.36897"/>
<feComposite in2="hardAlpha" operator="out"/>
<feColorMatrix type="matrix" values="0 0 0 0 0 0 0 0 0 0 0 0 0 0 0 0 0 0 0.15 0"/>
<feBlend mode="normal" in2="BackgroundImageFix" result="effect1_dropShadow_72_251"/>
<feBlend mode="normal" in="SourceGraphic" in2="effect1_dropShadow_72_251" result="shape"/>
</filter>
<filter id="filter1_d_72_251" x="146.406" y="422.777" width="198.492" height="63.4002" filterUnits="userSpaceOnUse" color-interpolation-filters="sRGB">
<feFlood flood-opacity="0" result="BackgroundImageFix"/>
<feColorMatrix in="SourceAlpha" type="matrix" values="0 0 0 0 0 0 0 0 0 0 0 0 0 0 0 0 0 0 127 0" result="hardAlpha"/>
<feOffset dy="7.15862"/>
<feGaussianBlur stdDeviation="5.36897"/>
<feComposite in2="hardAlpha" operator="out"/>
<feColorMatrix type="matrix" values="0 0 0 0 0 0 0 0 0 0 0 0 0 0 0 0 0 0 0.15 0"/>
<feBlend mode="normal" in2="BackgroundImageFix" result="effect1_dropShadow_72_251"/>
<feBlend mode="normal" in="SourceGraphic" in2="effect1_dropShadow_72_251" result="shape"/>
</filter>
<filter id="filter2_d_72_251" x="169.721" y="374.488" width="160.041" height="65.3238" filterUnits="userSpaceOnUse" color-interpolation-filters="sRGB">
<feFlood flood-opacity="0" result="BackgroundImageFix"/>
<feColorMatrix in="SourceAlpha" type="matrix" values="0 0 0 0 0 0 0 0 0 0 0 0 0 0 0 0 0 0 127 0" result="hardAlpha"/>
<feOffset dy="7.15862"/>
<feGaussianBlur stdDeviation="5.36897"/>
<feComposite in2="hardAlpha" operator="out"/>
<feColorMatrix type="matrix" values="0 0 0 0 0 0 0 0 0 0 0 0 0 0 0 0 0 0 0.15 0"/>
<feBlend mode="normal" in2="BackgroundImageFix" result="effect1_dropShadow_72_251"/>
<feBlend mode="normal" in="SourceGraphic" in2="effect1_dropShadow_72_251" result="shape"/>
</filter>
<filter id="filter3_d_72_251" x="59.9837" y="130.46" width="135.953" height="63.6385" filterUnits="userSpaceOnUse" color-interpolation-filters="sRGB">
<feFlood flood-opacity="0" result="BackgroundImageFix"/>
<feColorMatrix in="SourceAlpha" type="matrix" values="0 0 0 0 0 0 0 0 0 0 0 0 0 0 0 0 0 0 127 0" result="hardAlpha"/>
<feOffset dy="7.15862"/>
<feGaussianBlur stdDeviation="5.36897"/>
<feComposite in2="hardAlpha" operator="out"/>
<feColorMatrix type="matrix" values="0 0 0 0 0 0 0 0 0 0 0 0 0 0 0 0 0 0 0.15 0"/>
<feBlend mode="normal" in2="BackgroundImageFix" result="effect1_dropShadow_72_251"/>
<feBlend mode="normal" in="SourceGraphic" in2="effect1_dropShadow_72_251" result="shape"/>
</filter>
<filter id="filter4_d_72_251" x="54.1395" y="422.843" width="198.492" height="63.4002" filterUnits="userSpaceOnUse" color-interpolation-filters="sRGB">
<feFlood flood-opacity="0" result="BackgroundImageFix"/>
<feColorMatrix in="SourceAlpha" type="matrix" values="0 0 0 0 0 0 0 0 0 0 0 0 0 0 0 0 0 0 127 0" result="hardAlpha"/>
<feOffset dy="7.15862"/>
<feGaussianBlur stdDeviation="5.36897"/>
<feComposite in2="hardAlpha" operator="out"/>
<feColorMatrix type="matrix" values="0 0 0 0 0 0 0 0 0 0 0 0 0 0 0 0 0 0 0.15 0"/>
<feBlend mode="normal" in2="BackgroundImageFix" result="effect1_dropShadow_72_251"/>
<feBlend mode="normal" in="SourceGraphic" in2="effect1_dropShadow_72_251" result="shape"/>
</filter>
<filter id="filter5_d_72_251" x="69.1739" y="374.563" width="160.041" height="65.3238" filterUnits="userSpaceOnUse" color-interpolation-filters="sRGB">
<feFlood flood-opacity="0" result="BackgroundImageFix"/>
<feColorMatrix in="SourceAlpha" type="matrix" values="0 0 0 0 0 0 0 0 0 0 0 0 0 0 0 0 0 0 127 0" result="hardAlpha"/>
<feOffset dy="7.15862"/>
<feGaussianBlur stdDeviation="5.36897"/>
<feComposite in2="hardAlpha" operator="out"/>
<feColorMatrix type="matrix" values="0 0 0 0 0 0 0 0 0 0 0 0 0 0 0 0 0 0 0.15 0"/>
<feBlend mode="normal" in2="BackgroundImageFix" result="effect1_dropShadow_72_251"/>
<feBlend mode="normal" in="SourceGraphic" in2="effect1_dropShadow_72_251" result="shape"/>
</filter>
<filter id="filter6_d_72_251" x="25" y="0" width="350" height="620" filterUnits="userSpaceOnUse" color-interpolation-filters="sRGB">
<feFlood flood-opacity="0" result="BackgroundImageFix"/>
<feColorMatrix in="SourceAlpha" type="matrix" values="0 0 0 0 0 0 0 0 0 0 0 0 0 0 0 0 0 0 127 0" result="hardAlpha"/>
<feOffset dy="4"/>
<feGaussianBlur stdDeviation="20"/>
<feComposite in2="hardAlpha" operator="out"/>
<feColorMatrix type="matrix" values="0 0 0 0 0 0 0 0 0 0 0 0 0 0 0 0 0 0 0.6 0"/>
<feBlend mode="normal" in2="BackgroundImageFix" result="effect1_dropShadow_72_251"/>
<feBlend mode="normal" in="SourceGraphic" in2="effect1_dropShadow_72_251" result="shape"/>
</filter>
<filter id="filter7_d_72_251" x="125.114" y="113.614" width="149.242" height="60.3409" filterUnits="userSpaceOnUse" color-interpolation-filters="sRGB">
<feFlood flood-opacity="0" result="BackgroundImageFix"/>
<feColorMatrix in="SourceAlpha" type="matrix" values="0 0 0 0 0 0 0 0 0 0 0 0 0 0 0 0 0 0 127 0" result="hardAlpha"/>
<feOffset dy="8"/>
<feGaussianBlur stdDeviation="6"/>
<feComposite in2="hardAlpha" operator="out"/>
<feColorMatrix type="matrix" values="0 0 0 0 0 0 0 0 0 0 0 0 0 0 0 0 0 0 0.15 0"/>
<feBlend mode="normal" in2="BackgroundImageFix" result="effect1_dropShadow_72_251"/>
<feBlend mode="normal" in="SourceGraphic" in2="effect1_dropShadow_72_251" result="shape"/>
</filter>
<filter id="filter8_d_72_251" x="89.6904" y="445.511" width="219.962" height="53.8864" filterUnits="userSpaceOnUse" color-interpolation-filters="sRGB">
<feFlood flood-opacity="0" result="BackgroundImageFix"/>
<feColorMatrix in="SourceAlpha" type="matrix" values="0 0 0 0 0 0 0 0 0 0 0 0 0 0 0 0 0 0 127 0" result="hardAlpha"/>
<feOffset dy="8"/>
<feGaussianBlur stdDeviation="6"/>
<feComposite in2="hardAlpha" operator="out"/>
<feColorMatrix type="matrix" values="0 0 0 0 0 0 0 0 0 0 0 0 0 0 0 0 0 0 0.15 0"/>
<feBlend mode="normal" in2="BackgroundImageFix" result="effect1_dropShadow_72_251"/>
<feBlend mode="normal" in="SourceGraphic" in2="effect1_dropShadow_72_251" result="shape"/>
</filter>
<filter id="filter9_d_72_251" x="111.364" y="388.614" width="176.305" height="59.8636" filterUnits="userSpaceOnUse" color-interpolation-filters="sRGB">
<feFlood flood-opacity="0" result="BackgroundImageFix"/>
<feColorMatrix in="SourceAlpha" type="matrix" values="0 0 0 0 0 0 0 0 0 0 0 0 0 0 0 0 0 0 127 0" result="hardAlpha"/>
<feOffset dy="8"/>
<feGaussianBlur stdDeviation="6"/>
<feComposite in2="hardAlpha" operator="out"/>
<feColorMatrix type="matrix" values="0 0 0 0 0 0 0 0 0 0 0 0 0 0 0 0 0 0 0.15 0"/>
<feBlend mode="normal" in2="BackgroundImageFix" result="effect1_dropShadow_72_251"/>
<feBlend mode="normal" in="SourceGraphic" in2="effect1_dropShadow_72_251" result="shape"/>
</filter>
<linearGradient id="paint0_linear_72_251" x1="279.456" y1="65.3158" x2="368.171" y2="244.985" gradientUnits="userSpaceOnUse">
<stop stop-color="#F8BC5C"/>
<stop offset="1" stop-color="#FD8620"/>
</linearGradient>
<linearGradient id="paint1_linear_72_251" x1="145.076" y1="215.243" x2="376.016" y2="544.349" gradientUnits="userSpaceOnUse">
<stop stop-color="#F44430"/>
<stop offset="1" stop-color="#DD4352"/>
</linearGradient>
<linearGradient id="paint2_linear_72_251" x1="239.76" y1="270.236" x2="223.343" y2="457.88" gradientUnits="userSpaceOnUse">
<stop stop-color="#6F3A17"/>
<stop offset="1" stop-color="#D56F2C" stop-opacity="0"/>
</linearGradient>
<linearGradient id="paint3_linear_72_251" x1="283.44" y1="274.057" x2="267.023" y2="461.702" gradientUnits="userSpaceOnUse">
<stop stop-color="#6F3A17"/>
<stop offset="1" stop-color="#D56F2C" stop-opacity="0"/>
</linearGradient>
<linearGradient id="paint4_linear_72_251" x1="263.368" y1="254.336" x2="258.143" y2="314.062" gradientUnits="userSpaceOnUse">
<stop stop-color="#E19920"/>
<stop offset="0.5" stop-color="#FEFEF3"/>
<stop offset="1" stop-color="#FFD73C"/>
</linearGradient>
<linearGradient id="paint5_linear_72_251" x1="244.543" y1="305.237" x2="237.797" y2="382.345" gradientUnits="userSpaceOnUse">
<stop stop-color="#94431F"/>
<stop offset="1" stop-color="#2E150A" stop-opacity="0"/>
</linearGradient>
<linearGradient id="paint6_linear_72_251" x1="272.623" y1="307.693" x2="265.877" y2="384.802" gradientUnits="userSpaceOnUse">
<stop stop-color="#FD8620"/>
<stop offset="1" stop-color="#975013" stop-opacity="0"/>
</linearGradient>
<linearGradient id="paint7_linear_72_251" x1="243.136" y1="484.368" x2="241.025" y2="508.5" gradientUnits="userSpaceOnUse">
<stop stop-color="#E19920"/>
<stop offset="0.5" stop-color="#FEFEF3"/>
<stop offset="1" stop-color="#FFD73C"/>
</linearGradient>
<linearGradient id="paint8_linear_72_251" x1="292.377" y1="488.676" x2="290.265" y2="512.808" gradientUnits="userSpaceOnUse">
<stop stop-color="#E19920"/>
<stop offset="0.5" stop-color="#FEFEF3"/>
<stop offset="1" stop-color="#FFD73C"/>
</linearGradient>
<linearGradient id="paint9_linear_72_251" x1="194.108" y1="480.079" x2="191.997" y2="504.21" gradientUnits="userSpaceOnUse">
<stop stop-color="#E19920"/>
<stop offset="0.5" stop-color="#FEFEF3"/>
<stop offset="1" stop-color="#FFD73C"/>
</linearGradient>
<linearGradient id="paint10_linear_72_251" x1="120.342" y1="65.3158" x2="238.909" y2="226.851" gradientUnits="userSpaceOnUse">
<stop stop-color="#F8BC5C"/>
<stop offset="1" stop-color="#FD8620"/>
</linearGradient>
<linearGradient id="paint11_linear_72_251" x1="14.0381" y1="236.3" x2="298.618" y2="520.304" gradientUnits="userSpaceOnUse">
<stop stop-color="#F44430"/>
<stop offset="1" stop-color="#DD4352"/>
</linearGradient>
<linearGradient id="paint12_linear_72_251" x1="116.833" y1="274.016" x2="133.25" y2="461.66" gradientUnits="userSpaceOnUse">
<stop stop-color="#6F3A17"/>
<stop offset="1" stop-color="#D56F2C" stop-opacity="0"/>
</linearGradient>
<linearGradient id="paint13_linear_72_251" x1="160.513" y1="270.194" x2="176.93" y2="457.839" gradientUnits="userSpaceOnUse">
<stop stop-color="#6F3A17"/>
<stop offset="1" stop-color="#D56F2C" stop-opacity="0"/>
</linearGradient>
<linearGradient id="paint14_linear_72_251" x1="137.322" y1="254.258" x2="142.547" y2="313.984" gradientUnits="userSpaceOnUse">
<stop stop-color="#E19920"/>
<stop offset="0.5" stop-color="#FEFEF3"/>
<stop offset="1" stop-color="#FFD73C"/>
</linearGradient>
<linearGradient id="paint15_linear_72_251" x1="127.621" y1="307.654" x2="134.367" y2="384.763" gradientUnits="userSpaceOnUse">
<stop stop-color="#94431F"/>
<stop offset="1" stop-color="#2E150A" stop-opacity="0"/>
</linearGradient>
<linearGradient id="paint16_linear_72_251" x1="155.701" y1="305.198" x2="162.447" y2="382.306" gradientUnits="userSpaceOnUse">
<stop stop-color="#FD8620"/>
<stop offset="1" stop-color="#975013" stop-opacity="0"/>
</linearGradient>
<linearGradient id="paint17_linear_72_251" x1="157.341" y1="484.309" x2="159.453" y2="508.44" gradientUnits="userSpaceOnUse">
<stop stop-color="#E19920"/>
<stop offset="0.5" stop-color="#FEFEF3"/>
<stop offset="1" stop-color="#FFD73C"/>
</linearGradient>
<linearGradient id="paint18_linear_72_251" x1="206.582" y1="480.001" x2="208.693" y2="504.132" gradientUnits="userSpaceOnUse">
<stop stop-color="#E19920"/>
<stop offset="0.5" stop-color="#FEFEF3"/>
<stop offset="1" stop-color="#FFD73C"/>
</linearGradient>
<linearGradient id="paint19_linear_72_251" x1="108.313" y1="488.598" x2="110.424" y2="512.73" gradientUnits="userSpaceOnUse">
<stop stop-color="#E19920"/>
<stop offset="0.5" stop-color="#FEFEF3"/>
<stop offset="1" stop-color="#FFD73C"/>
</linearGradient>
<linearGradient id="paint20_linear_72_251" x1="200" y1="36" x2="316.264" y2="227.382" gradientUnits="userSpaceOnUse">
<stop stop-color="#F8BC5C"/>
<stop offset="1" stop-color="#FD8620"/>
</linearGradient>
<linearGradient id="paint21_linear_72_251" x1="65" y1="216" x2="354.156" y2="559.893" gradientUnits="userSpaceOnUse">
<stop stop-color="#F44430"/>
<stop offset="1" stop-color="#DD4352"/>
</linearGradient>
<linearGradient id="paint22_linear_72_251" x1="175.766" y1="268" x2="175.766" y2="478.5" gradientUnits="userSpaceOnUse">
<stop stop-color="#6F3A17"/>
<stop offset="1" stop-color="#D56F2C" stop-opacity="0"/>
</linearGradient>
<linearGradient id="paint23_linear_72_251" x1="224.766" y1="268" x2="224.766" y2="478.5" gradientUnits="userSpaceOnUse">
<stop stop-color="#6F3A17"/>
<stop offset="1" stop-color="#D56F2C" stop-opacity="0"/>
</linearGradient>
<linearGradient id="paint24_linear_72_251" x1="200.5" y1="248" x2="200.5" y2="315" gradientUnits="userSpaceOnUse">
<stop stop-color="#E19920"/>
<stop offset="0.5" stop-color="#FEFEF3"/>
<stop offset="1" stop-color="#FFD73C"/>
</linearGradient>
<linearGradient id="paint25_linear_72_251" x1="184.5" y1="306.5" x2="184.5" y2="393" gradientUnits="userSpaceOnUse">
<stop stop-color="#94431F"/>
<stop offset="1" stop-color="#2E150A" stop-opacity="0"/>
</linearGradient>
<linearGradient id="paint26_linear_72_251" x1="216" y1="306.5" x2="216" y2="393" gradientUnits="userSpaceOnUse">
<stop stop-color="#FD8620"/>
<stop offset="1" stop-color="#975013" stop-opacity="0"/>
</linearGradient>
<linearGradient id="paint27_linear_72_251" x1="200.5" y1="506.061" x2="200.5" y2="533.131" gradientUnits="userSpaceOnUse">
<stop stop-color="#E19920"/>
<stop offset="0.5" stop-color="#FEFEF3"/>
<stop offset="1" stop-color="#FFD73C"/>
</linearGradient>
<linearGradient id="paint28_linear_72_251" x1="255.5" y1="506.061" x2="255.5" y2="533.131" gradientUnits="userSpaceOnUse">
<stop stop-color="#E19920"/>
<stop offset="0.5" stop-color="#FEFEF3"/>
<stop offset="1" stop-color="#FFD73C"/>
</linearGradient>
<linearGradient id="paint29_linear_72_251" x1="145.5" y1="506.061" x2="145.5" y2="533.131" gradientUnits="userSpaceOnUse">
<stop stop-color="#E19920"/>
<stop offset="0.5" stop-color="#FEFEF3"/>
<stop offset="1" stop-color="#FFD73C"/>
</linearGradient>
</defs>
</svg>
