<svg width="49" height="128" viewBox="0 0 49 128" fill="none" xmlns="http://www.w3.org/2000/svg">
<path opacity="0.7" d="M24.09 126.966L1.63306 18.101H24.09C23.5343 18.101 23.8585 90.6775 24.09 126.966Z" fill="url(#paint0_linear_2002_193)"/>
<path opacity="0.7" d="M24.3362 126.966L46.7931 18.101H24.3362C24.8919 18.101 24.5677 90.6775 24.3362 126.966Z" fill="url(#paint1_linear_2002_193)"/>
<path d="M24.3215 1.78713L31.0348 15.5866L31.2154 15.9578L31.6239 16.018L46.6583 18.2343L35.7718 28.9995L35.4829 29.2852L35.5506 29.6857L38.1181 44.8722L24.6894 37.7102L24.3215 37.5139L23.9536 37.7102L10.5248 44.8722L13.0924 29.6857L13.1601 29.2852L12.8712 28.9995L1.98462 18.2343L17.0191 16.018L17.4275 15.9578L17.6081 15.5866L24.3215 1.78713Z" fill="#FEF15F" stroke="white" stroke-width="1.56364"/>
<path opacity="0.7" d="M24.3215 128V38.0121L9.50453 46.0282L24.3215 128Z" fill="url(#paint2_linear_2002_193)"/>
<path opacity="0.7" d="M24.09 128V38.0121L38.9069 46.0282L24.09 128Z" fill="url(#paint3_linear_2002_193)"/>
<defs>
<linearGradient id="paint0_linear_2002_193" x1="12.8689" y1="18.101" x2="12.8689" y2="126.966" gradientUnits="userSpaceOnUse">
<stop stop-color="#0D6B3D"/>
<stop offset="1" stop-color="#0D6B3D" stop-opacity="0"/>
</linearGradient>
<linearGradient id="paint1_linear_2002_193" x1="35.5573" y1="18.101" x2="35.5573" y2="126.966" gradientUnits="userSpaceOnUse">
<stop stop-color="#0D6B3D"/>
<stop offset="1" stop-color="#0D6B3D" stop-opacity="0"/>
</linearGradient>
<linearGradient id="paint2_linear_2002_193" x1="16.913" y1="38.0121" x2="16.913" y2="82.7474" gradientUnits="userSpaceOnUse">
<stop stop-color="#0D6B3D"/>
<stop offset="1" stop-color="#0D6B3D" stop-opacity="0"/>
</linearGradient>
<linearGradient id="paint3_linear_2002_193" x1="31.4984" y1="38.0121" x2="31.4984" y2="82.7474" gradientUnits="userSpaceOnUse">
<stop stop-color="#0D6B3D"/>
<stop offset="1" stop-color="#0D6B3D" stop-opacity="0"/>
</linearGradient>
</defs>
</svg>
