<svg width="56" height="116" viewBox="0 0 56 116" fill="none" xmlns="http://www.w3.org/2000/svg">
<path d="M28 116V38L53 18.5L28 116Z" fill="url(#paint0_linear_3_726)"/>
<path d="M28 116V38L3 18.5L28 116Z" fill="url(#paint1_linear_3_726)"/>
<path d="M28 116V38L12 45.5L28 116Z" fill="url(#paint2_linear_3_726)"/>
<path d="M28 116V38L44 45.5L28 116Z" fill="url(#paint3_linear_3_726)"/>
<path d="M28 0L36.229 15.4828L54.6296 17.9656L41.3148 30.0172L44.458 47.0344L28 39L11.542 47.0344L14.6852 30.0172L1.37042 17.9656L19.771 15.4828L28 0Z" fill="url(#paint4_linear_3_726)"/>
<path d="M28 2.13073L35.346 15.9521L35.5868 16.4052L36.0953 16.4738L52.3625 18.6687L40.6437 29.2758L40.2301 29.6502L40.3314 30.1989L43.1144 45.2657L28.4387 38.1014L28 37.8872L27.5613 38.1014L12.8856 45.2657L15.6686 30.1989L15.7699 29.6502L15.3563 29.2758L3.63746 18.6687L19.9047 16.4738L20.4132 16.4052L20.654 15.9521L28 2.13073Z" stroke="white" stroke-opacity="0.5" stroke-width="2"/>
<defs>
<linearGradient id="paint0_linear_3_726" x1="40.5" y1="18.5" x2="40.5" y2="116" gradientUnits="userSpaceOnUse">
<stop stop-color="#6F3A17"/>
<stop offset="1" stop-color="#D56F2C" stop-opacity="0"/>
</linearGradient>
<linearGradient id="paint1_linear_3_726" x1="15.5" y1="18.5" x2="15.5" y2="116" gradientUnits="userSpaceOnUse">
<stop stop-color="#6F3A17"/>
<stop offset="1" stop-color="#D56F2C" stop-opacity="0"/>
</linearGradient>
<linearGradient id="paint2_linear_3_726" x1="20" y1="38" x2="20" y2="116" gradientUnits="userSpaceOnUse">
<stop stop-color="#94431F"/>
<stop offset="1" stop-color="#2E150A" stop-opacity="0"/>
</linearGradient>
<linearGradient id="paint3_linear_3_726" x1="36" y1="38" x2="36" y2="116" gradientUnits="userSpaceOnUse">
<stop stop-color="#FD8620"/>
<stop offset="1" stop-color="#975013" stop-opacity="0"/>
</linearGradient>
<linearGradient id="paint4_linear_3_726" x1="28" y1="7.87879" x2="28" y2="43.0707" gradientUnits="userSpaceOnUse">
<stop stop-color="#E19920"/>
<stop offset="0.5" stop-color="#FEFEF3"/>
<stop offset="1" stop-color="#FFD73C"/>
</linearGradient>
</defs>
</svg>
