<svg width="48" height="48" viewBox="0 0 48 48" fill="none" xmlns="http://www.w3.org/2000/svg">
<path fill-rule="evenodd" clip-rule="evenodd" d="M21.8355 47.5973C21.2457 47.3631 20.3214 46.9961 10.0793 37.6245C4.09005 32.14 0.923926 29.0633 0.607313 28.3945C0.355547 27.9122 0.0743449 27.1827 0 25.1966C0 23.9967 0 20.3972 0.0268616 15.633C0.0214612 12.9724 0.0151655 10.9429 0.0100347 9.28885C0.00430913 7.44308 3.40609e-05 6.06491 7.20701e-05 4.79935C0.000123026 3.1027 0.754445 2.44342 1.478 2.44342C2.39967 2.44342 2.71807 2.71095 6.09527 5.89463C6.71727 6.47743 7.32752 7.0507 7.88675 7.57605C9.20147 8.8111 10.2344 9.78149 10.4751 9.98795L11.0819 10.523L12.9816 8.65027C17.1503 4.50345 21.1344 0.99872 22.2161 0.517155C24.3533 -0.47273 26.3849 -0.0446654 28.5484 1.82809C29.2761 2.44299 33.0589 5.95225 37.2726 9.86126L38.3898 10.8976C43.8777 16.0075 46.9341 18.9588 47.4132 19.8333C47.8396 20.6116 47.9934 21.5971 47.9934 22.7969L47.9936 46.8829C47.9935 47.4963 47.4963 47.9935 46.8829 47.9935C46.0857 47.9935 45.2324 47.662 44.645 47.1231L39.1021 42.0388L35.6194 38.7481L31.2132 42.8414C28.8122 45.0887 26.5168 47.122 26.121 47.3628C25.0129 48.0851 23.1835 48.2076 21.9787 47.6571C21.9299 47.6348 21.8838 47.6165 21.8355 47.5973ZM27.1964 11.1985L38.395 21.5973C39.4062 22.5075 39.9947 23.1741 39.9947 24.5347V29.5963C39.9947 30.9216 38.9204 31.9959 37.5951 31.9959C36.2698 31.9959 35.1954 30.9216 35.1954 29.5963V25.3922C35.1954 24.6276 34.4953 24.0031 33.8846 23.4583C33.7847 23.3692 33.6872 23.2822 33.5956 23.1971L25.5966 15.9981C24.6744 15.1417 23.2923 14.0937 21.9628 15.4231C20.9301 16.4559 21.0961 17.6768 21.9628 18.5977L31.1959 27.1966C32.9737 29.0856 32.1374 31.8543 30.3032 33.6885L27.2166 36.7751C25.4116 38.5801 22.5096 38.6564 20.6123 36.9488L9.05812 26.55C8.38393 25.9433 7.99895 25.0789 7.99895 24.1718V19.9975C7.99895 18.6722 9.07332 17.5978 10.3986 17.5978C11.7239 17.5978 12.7983 18.6722 12.7983 19.9975V23.2994C12.7983 23.7442 12.9835 24.169 13.3095 24.4717L21.9628 32.5069C23.0982 33.5611 24.864 33.5285 25.9596 32.4329C27.0844 31.308 27.1964 29.5963 25.9596 28.3594L17.5977 20.7974C15.6656 18.8653 16.0789 15.2572 18.0931 13.4108L20.7834 10.9448C22.6059 9.27413 25.3587 9.5446 27.1964 11.1985Z" fill="url(#paint0_linear_72_1692)"/>
<defs>
<linearGradient id="paint0_linear_72_1692" x1="23.9968" y1="0" x2="23.9968" y2="48" gradientUnits="userSpaceOnUse">
<stop stop-color="white"/>
<stop offset="1" stop-color="white" stop-opacity="0.5"/>
</linearGradient>
</defs>
</svg>
