<svg width="270" height="540" viewBox="0 0 270 540" fill="none" xmlns="http://www.w3.org/2000/svg">
<path fill-rule="evenodd" clip-rule="evenodd" d="M11 9.53674e-06C11 3.97646 7.41828 7.20001 3 7.20001C1.9391 7.20001 0.926431 7.01415 0 6.67664L0 180H270V6.67664C269.074 7.01415 268.061 7.20001 267 7.20001C262.582 7.20001 259 3.97646 259 9.53674e-06H251C251 3.97646 247.418 7.20001 243 7.20001C238.582 7.20001 235 3.97646 235 9.53674e-06H227C227 3.97646 223.418 7.20001 219 7.20001C214.582 7.20001 211 3.97646 211 9.53674e-06H203C203 3.97646 199.418 7.20001 195 7.20001C190.582 7.20001 187 3.97646 187 9.53674e-06H179C179 3.97646 175.418 7.20001 171 7.20001C166.582 7.20001 163 3.97646 163 9.53674e-06H155C155 3.97646 151.418 7.20001 147 7.20001C142.582 7.20001 139 3.97646 139 9.53674e-06H131C131 3.97646 127.418 7.20001 123 7.20001C118.582 7.20001 115 3.97646 115 9.53674e-06H107C107 3.97646 103.418 7.20001 99 7.20001C94.5817 7.20001 91 3.97646 91 9.53674e-06H83C83 3.97646 79.4183 7.20001 75 7.20001C70.5817 7.20001 67 3.97646 67 9.53674e-06H59C59 3.97646 55.4183 7.20001 51 7.20001C46.5817 7.20001 43 3.97646 43 9.53674e-06H35C35 3.97646 31.4183 7.20001 27 7.20001C22.5817 7.20001 19 3.97646 19 9.53674e-06L11 0C11 3.17891e-06 11 6.35783e-06 11 9.53674e-06Z" fill="url(#paint0_linear_4_11)"/>
<path fill-rule="evenodd" clip-rule="evenodd" d="M270 180H0V532.145C0.926431 531.748 1.9391 531.529 3 531.529C7.41828 531.529 11 535.322 11 540H19C19 535.322 22.5817 531.529 27 531.529C31.4183 531.529 35 535.322 35 540H43C43 535.322 46.5817 531.529 51 531.529C55.4183 531.529 59 535.322 59 540H67C67 535.322 70.5817 531.529 75 531.529C79.4183 531.529 83 535.322 83 540H91C91 535.322 94.5817 531.529 99 531.529C103.418 531.529 107 535.322 107 540H115C115 535.322 118.582 531.529 123 531.529C127.418 531.529 131 535.322 131 540H139C139 535.322 142.582 531.529 147 531.529C151.418 531.529 155 535.322 155 540H163C163 535.322 166.582 531.529 171 531.529C175.418 531.529 179 535.322 179 540H187C187 535.322 190.582 531.529 195 531.529C199.418 531.529 203 535.322 203 540H211C211 535.322 214.582 531.529 219 531.529C223.418 531.529 227 535.322 227 540H235C235 535.322 238.582 531.529 243 531.529C247.418 531.529 251 535.322 251 540H259C259 535.322 262.582 531.529 267 531.529C268.061 531.529 269.074 531.748 270 532.145V180Z" fill="url(#paint1_linear_4_11)"/>
<rect x="3" y="172" width="8" height="8" fill="#51D91A"/>
<rect x="131" y="172" width="8" height="8" fill="#51D91A"/>
<rect x="67" y="172" width="8" height="8" fill="#51D91A"/>
<rect x="195" y="172" width="8" height="8" fill="#51D91A"/>
<rect x="35" y="172" width="8" height="8" fill="#51D91A"/>
<rect x="163" y="172" width="8" height="8" fill="#51D91A"/>
<rect x="99" y="172" width="8" height="8" fill="#51D91A"/>
<rect x="227" y="172" width="8" height="8" fill="#51D91A"/>
<rect x="19" y="172" width="8" height="8" fill="#51D91A"/>
<rect x="147" y="172" width="8" height="8" fill="#51D91A"/>
<rect x="83" y="172" width="8" height="8" fill="#51D91A"/>
<rect x="211" y="172" width="8" height="8" fill="#51D91A"/>
<rect x="51" y="172" width="8" height="8" fill="#51D91A"/>
<rect x="179" y="172" width="8" height="8" fill="#51D91A"/>
<rect x="115" y="172" width="8" height="8" fill="#51D91A"/>
<rect x="243" y="172" width="8" height="8" fill="#51D91A"/>
<rect x="259" y="172" width="8" height="8" fill="#51D91A"/>
<path opacity="0.7" d="M135 442.5L86.5 232H135C133.8 232 134.5 372.333 135 442.5Z" fill="url(#paint2_linear_4_11)"/>
<path opacity="0.7" d="M135.532 442.5L184.032 232H135.532C136.732 232 136.032 372.333 135.532 442.5Z" fill="url(#paint3_linear_4_11)"/>
<path d="M135.5 200.142L150.199 227.193L150.564 227.864L151.321 227.964L183.876 232.26L160.422 253.025L159.784 253.59L159.942 254.427L165.511 283.918L136.146 269.896L135.5 269.588L134.854 269.896L105.488 283.918L111.058 254.427L111.216 253.59L110.578 253.025L87.124 232.26L119.679 227.964L120.436 227.864L120.801 227.193L135.5 200.142Z" fill="#FEF15F" stroke="white" stroke-width="3"/>
<path opacity="0.7" d="M135.5 444.5V270.5L103.5 286L135.5 444.5Z" fill="url(#paint4_linear_4_11)"/>
<path opacity="0.7" d="M135 444.5V270.5L167 286L135 444.5Z" fill="url(#paint5_linear_4_11)"/>
<g filter="url(#filter0_d_4_11)">
<path d="M50.1136 413.909H57.8977V433.852C57.8883 435.746 57.41 437.413 56.4631 438.852C55.5256 440.282 54.2282 441.4 52.571 442.205C50.9233 443 49.0246 443.398 46.875 443.398C45.0095 443.398 43.3049 443.076 41.7614 442.432C40.2178 441.778 38.9867 440.756 38.0682 439.364C37.1496 437.962 36.6951 436.144 36.7045 433.909H44.6023C44.6307 434.638 44.7538 435.254 44.9716 435.756C45.1989 436.258 45.5114 436.636 45.9091 436.892C46.3163 437.138 46.8087 437.261 47.3864 437.261C47.9735 437.261 48.4659 437.134 48.8636 436.878C49.2708 436.622 49.5786 436.243 49.7869 435.741C49.9953 435.23 50.1042 434.6 50.1136 433.852V413.909ZM69.1974 443H60.6747L70.277 413.909H81.0724L90.6747 443H82.152L75.7884 421.92H75.5611L69.1974 443ZM67.6065 431.523H83.6293V437.432H67.6065V431.523ZM119.268 424.818H111.257C111.2 424.155 111.049 423.554 110.803 423.014C110.566 422.474 110.234 422.01 109.808 421.622C109.392 421.224 108.885 420.921 108.288 420.713C107.692 420.495 107.015 420.386 106.257 420.386C104.931 420.386 103.809 420.708 102.891 421.352C101.982 421.996 101.29 422.92 100.817 424.122C100.353 425.325 100.121 426.769 100.121 428.455C100.121 430.235 100.357 431.726 100.831 432.929C101.314 434.122 102.01 435.022 102.919 435.628C103.828 436.224 104.922 436.523 106.2 436.523C106.929 436.523 107.583 436.433 108.161 436.253C108.738 436.063 109.24 435.794 109.666 435.443C110.092 435.093 110.438 434.671 110.703 434.179C110.978 433.677 111.162 433.114 111.257 432.489L119.268 432.545C119.174 433.777 118.828 435.031 118.232 436.31C117.635 437.579 116.787 438.753 115.689 439.832C114.6 440.902 113.25 441.764 111.641 442.418C110.031 443.071 108.161 443.398 106.03 443.398C103.359 443.398 100.964 442.825 98.8423 441.679C96.7306 440.533 95.0592 438.848 93.8281 436.622C92.6065 434.397 91.9957 431.674 91.9957 428.455C91.9957 425.216 92.6207 422.489 93.8707 420.273C95.1207 418.047 96.8063 416.366 98.9276 415.23C101.049 414.084 103.416 413.511 106.03 413.511C107.867 413.511 109.557 413.762 111.101 414.264C112.644 414.766 113.999 415.5 115.163 416.466C116.328 417.422 117.266 418.601 117.976 420.003C118.686 421.404 119.117 423.009 119.268 424.818ZM122.852 443V413.909H130.749V425.67H131.147L139.897 413.909H149.102L139.272 426.864L149.329 443H139.897L133.363 432.091L130.749 435.5V443H122.852ZM151.445 443V413.909H164.002C166.161 413.909 168.05 414.335 169.67 415.188C171.289 416.04 172.549 417.238 173.448 418.781C174.348 420.325 174.798 422.129 174.798 424.193C174.798 426.277 174.334 428.08 173.406 429.605C172.487 431.13 171.194 432.304 169.528 433.128C167.871 433.952 165.934 434.364 163.718 434.364H156.218V428.227H162.127C163.055 428.227 163.846 428.066 164.499 427.744C165.162 427.413 165.669 426.944 166.019 426.338C166.379 425.732 166.559 425.017 166.559 424.193C166.559 423.36 166.379 422.65 166.019 422.062C165.669 421.466 165.162 421.011 164.499 420.699C163.846 420.377 163.055 420.216 162.127 420.216H159.343V443H151.445ZM205.877 428.455C205.877 431.693 205.247 434.425 203.988 436.651C202.728 438.866 201.029 440.547 198.888 441.693C196.748 442.83 194.362 443.398 191.729 443.398C189.078 443.398 186.682 442.825 184.542 441.679C182.411 440.524 180.716 438.838 179.457 436.622C178.207 434.397 177.582 431.674 177.582 428.455C177.582 425.216 178.207 422.489 179.457 420.273C180.716 418.047 182.411 416.366 184.542 415.23C186.682 414.084 189.078 413.511 191.729 413.511C194.362 413.511 196.748 414.084 198.888 415.23C201.029 416.366 202.728 418.047 203.988 420.273C205.247 422.489 205.877 425.216 205.877 428.455ZM197.752 428.455C197.752 426.712 197.52 425.244 197.056 424.051C196.602 422.848 195.924 421.939 195.025 421.324C194.135 420.699 193.036 420.386 191.729 420.386C190.423 420.386 189.319 420.699 188.42 421.324C187.53 421.939 186.853 422.848 186.388 424.051C185.934 425.244 185.707 426.712 185.707 428.455C185.707 430.197 185.934 431.67 186.388 432.872C186.853 434.065 187.53 434.974 188.42 435.599C189.319 436.215 190.423 436.523 191.729 436.523C193.036 436.523 194.135 436.215 195.025 435.599C195.924 434.974 196.602 434.065 197.056 432.872C197.52 431.67 197.752 430.197 197.752 428.455ZM207.369 420.273V413.909H232.653V420.273H223.903V443H216.119V420.273H207.369Z" fill="white"/>
</g>
<g filter="url(#filter1_d_4_11)">
<path d="M74.8409 370.182H65.2273C65.1591 369.386 64.9773 368.665 64.6818 368.017C64.3977 367.369 64 366.812 63.4886 366.347C62.9886 365.869 62.3807 365.506 61.6648 365.256C60.9489 364.994 60.1364 364.864 59.2273 364.864C57.6364 364.864 56.2898 365.25 55.1875 366.023C54.0966 366.795 53.267 367.903 52.6989 369.347C52.142 370.79 51.8636 372.523 51.8636 374.545C51.8636 376.682 52.1477 378.472 52.7159 379.915C53.2955 381.347 54.1307 382.426 55.2216 383.153C56.3125 383.869 57.625 384.227 59.1591 384.227C60.0341 384.227 60.8182 384.119 61.5114 383.903C62.2045 383.676 62.8068 383.352 63.3182 382.932C63.8295 382.511 64.2443 382.006 64.5625 381.415C64.892 380.812 65.1136 380.136 65.2273 379.386L74.8409 379.455C74.7273 380.932 74.3125 382.437 73.5966 383.972C72.8807 385.494 71.8636 386.903 70.5455 388.199C69.2386 389.483 67.6193 390.517 65.6875 391.301C63.7557 392.085 61.5114 392.477 58.9545 392.477C55.75 392.477 52.875 391.79 50.3295 390.415C47.7955 389.04 45.7898 387.017 44.3125 384.347C42.8466 381.676 42.1136 378.409 42.1136 374.545C42.1136 370.659 42.8636 367.386 44.3636 364.727C45.8636 362.057 47.8864 360.04 50.4318 358.676C52.9773 357.301 55.8182 356.614 58.9545 356.614C61.1591 356.614 63.1875 356.915 65.0398 357.517C66.892 358.119 68.517 359 69.9148 360.159C71.3125 361.307 72.4375 362.722 73.2898 364.403C74.142 366.085 74.6591 368.011 74.8409 370.182ZM112.959 374.545C112.959 378.432 112.203 381.71 110.692 384.381C109.18 387.04 107.141 389.057 104.572 390.432C102.004 391.795 99.1406 392.477 95.9815 392.477C92.7997 392.477 89.9247 391.79 87.3565 390.415C84.7997 389.028 82.7656 387.006 81.2543 384.347C79.7543 381.676 79.0043 378.409 79.0043 374.545C79.0043 370.659 79.7543 367.386 81.2543 364.727C82.7656 362.057 84.7997 360.04 87.3565 358.676C89.9247 357.301 92.7997 356.614 95.9815 356.614C99.1406 356.614 102.004 357.301 104.572 358.676C107.141 360.04 109.18 362.057 110.692 364.727C112.203 367.386 112.959 370.659 112.959 374.545ZM103.209 374.545C103.209 372.455 102.93 370.693 102.374 369.261C101.828 367.818 101.016 366.727 99.9361 365.989C98.8679 365.239 97.5497 364.864 95.9815 364.864C94.4134 364.864 93.0895 365.239 92.0099 365.989C90.9418 366.727 90.1293 367.818 89.5724 369.261C89.027 370.693 88.7543 372.455 88.7543 374.545C88.7543 376.636 89.027 378.403 89.5724 379.847C90.1293 381.278 90.9418 382.369 92.0099 383.119C93.0895 383.858 94.4134 384.227 95.9815 384.227C97.5497 384.227 98.8679 383.858 99.9361 383.119C101.016 382.369 101.828 381.278 102.374 379.847C102.93 378.403 103.209 376.636 103.209 374.545ZM136.162 368C136.071 366.864 135.645 365.977 134.884 365.341C134.134 364.705 132.991 364.386 131.457 364.386C130.48 364.386 129.679 364.506 129.054 364.744C128.44 364.972 127.986 365.284 127.69 365.682C127.395 366.08 127.241 366.534 127.23 367.045C127.207 367.466 127.281 367.847 127.452 368.188C127.634 368.517 127.918 368.818 128.304 369.091C128.69 369.352 129.185 369.591 129.787 369.807C130.389 370.023 131.105 370.216 131.935 370.386L134.798 371C136.73 371.409 138.384 371.949 139.759 372.619C141.134 373.29 142.259 374.08 143.134 374.989C144.009 375.886 144.651 376.898 145.06 378.023C145.48 379.148 145.696 380.375 145.707 381.705C145.696 384 145.122 385.943 143.986 387.534C142.849 389.125 141.224 390.335 139.111 391.165C137.009 391.994 134.48 392.409 131.526 392.409C128.491 392.409 125.844 391.96 123.582 391.062C121.332 390.165 119.582 388.784 118.332 386.92C117.094 385.045 116.469 382.648 116.457 379.727H125.457C125.514 380.795 125.781 381.693 126.259 382.42C126.736 383.148 127.406 383.699 128.27 384.074C129.145 384.449 130.185 384.636 131.389 384.636C132.401 384.636 133.247 384.511 133.929 384.261C134.611 384.011 135.128 383.665 135.48 383.222C135.832 382.778 136.014 382.273 136.026 381.705C136.014 381.17 135.838 380.705 135.497 380.307C135.168 379.898 134.622 379.534 133.861 379.216C133.099 378.886 132.071 378.58 130.776 378.295L127.298 377.545C124.207 376.875 121.77 375.756 119.986 374.188C118.213 372.608 117.332 370.455 117.344 367.727C117.332 365.511 117.923 363.574 119.116 361.915C120.321 360.244 121.986 358.943 124.111 358.011C126.247 357.08 128.696 356.614 131.457 356.614C134.276 356.614 136.713 357.085 138.77 358.028C140.827 358.972 142.412 360.301 143.526 362.017C144.651 363.722 145.219 365.716 145.23 368H136.162ZM149.312 357.091H161.108L169.222 376.864H169.631L177.744 357.091H189.54V392H180.267V371.818H179.994L172.222 391.727H166.631L158.858 371.682H158.585V392H149.312V357.091ZM227.849 374.545C227.849 378.432 227.094 381.71 225.582 384.381C224.071 387.04 222.031 389.057 219.463 390.432C216.895 391.795 214.031 392.477 210.872 392.477C207.69 392.477 204.815 391.79 202.247 390.415C199.69 389.028 197.656 387.006 196.145 384.347C194.645 381.676 193.895 378.409 193.895 374.545C193.895 370.659 194.645 367.386 196.145 364.727C197.656 362.057 199.69 360.04 202.247 358.676C204.815 357.301 207.69 356.614 210.872 356.614C214.031 356.614 216.895 357.301 219.463 358.676C222.031 360.04 224.071 362.057 225.582 364.727C227.094 367.386 227.849 370.659 227.849 374.545ZM218.099 374.545C218.099 372.455 217.821 370.693 217.264 369.261C216.719 367.818 215.906 366.727 214.827 365.989C213.759 365.239 212.44 364.864 210.872 364.864C209.304 364.864 207.98 365.239 206.901 365.989C205.832 366.727 205.02 367.818 204.463 369.261C203.918 370.693 203.645 372.455 203.645 374.545C203.645 376.636 203.918 378.403 204.463 379.847C205.02 381.278 205.832 382.369 206.901 383.119C207.98 383.858 209.304 384.227 210.872 384.227C212.44 384.227 213.759 383.858 214.827 383.119C215.906 382.369 216.719 381.278 217.264 379.847C217.821 378.403 218.099 376.636 218.099 374.545Z" fill="white"/>
</g>
<path d="M135.5 464L142.113 475.91L156.899 477.82L146.199 487.09L148.725 500.18L135.5 494L122.275 500.18L124.801 487.09L114.101 477.82L128.887 475.91L135.5 464Z" fill="#FEF15F"/>
<path d="M190.5 464L197.113 475.91L211.899 477.82L201.199 487.09L203.725 500.18L190.5 494L177.275 500.18L179.801 487.09L169.101 477.82L183.887 475.91L190.5 464Z" fill="#FEF15F"/>
<path d="M80.5 464L87.1126 475.91L101.899 477.82L91.1994 487.09L93.7252 500.18L80.5 494L67.2748 500.18L69.8006 487.09L59.1012 477.82L73.8874 475.91L80.5 464Z" fill="#FEF15F"/>
<g filter="url(#filter2_d_4_11)">
<path d="M89.4318 82.0909V117H79.9545V90.8182H79.75L72.1136 95.3864V87.3409L80.7045 82.0909H89.4318ZM111.804 117.955C108.634 117.943 105.895 117.21 103.588 115.756C101.281 114.301 99.5028 112.205 98.2528 109.466C97.0028 106.727 96.3835 103.443 96.3949 99.6136C96.4063 95.7727 97.0313 92.5114 98.2699 89.8295C99.5199 87.1477 101.293 85.108 103.588 83.7102C105.895 82.3125 108.634 81.6136 111.804 81.6136C114.974 81.6136 117.713 82.3182 120.02 83.7273C122.327 85.125 124.105 87.1648 125.355 89.8466C126.605 92.5284 127.224 95.7841 127.213 99.6136C127.213 103.466 126.588 106.761 125.338 109.5C124.088 112.239 122.31 114.335 120.003 115.79C117.707 117.233 114.974 117.955 111.804 117.955ZM111.804 110.25C113.44 110.25 114.781 109.398 115.827 107.693C116.884 105.977 117.406 103.284 117.395 99.6136C117.395 97.2159 117.156 95.2557 116.679 93.733C116.202 92.2102 115.543 91.0852 114.702 90.358C113.861 89.6193 112.895 89.25 111.804 89.25C110.168 89.25 108.832 90.0795 107.798 91.7386C106.764 93.3977 106.236 96.0227 106.213 99.6136C106.202 102.057 106.435 104.068 106.912 105.648C107.389 107.216 108.048 108.375 108.889 109.125C109.741 109.875 110.713 110.25 111.804 110.25ZM146.866 117.955C143.696 117.943 140.957 117.21 138.651 115.756C136.344 114.301 134.565 112.205 133.315 109.466C132.065 106.727 131.446 103.443 131.457 99.6136C131.469 95.7727 132.094 92.5114 133.332 89.8295C134.582 87.1477 136.355 85.108 138.651 83.7102C140.957 82.3125 143.696 81.6136 146.866 81.6136C150.037 81.6136 152.776 82.3182 155.082 83.7273C157.389 85.125 159.168 87.1648 160.418 89.8466C161.668 92.5284 162.287 95.7841 162.276 99.6136C162.276 103.466 161.651 106.761 160.401 109.5C159.151 112.239 157.372 114.335 155.065 115.79C152.77 117.233 150.037 117.955 146.866 117.955ZM146.866 110.25C148.503 110.25 149.844 109.398 150.889 107.693C151.946 105.977 152.469 103.284 152.457 99.6136C152.457 97.2159 152.219 95.2557 151.741 93.733C151.264 92.2102 150.605 91.0852 149.764 90.358C148.923 89.6193 147.957 89.25 146.866 89.25C145.23 89.25 143.895 90.0795 142.861 91.7386C141.827 93.3977 141.298 96.0227 141.276 99.6136C141.264 102.057 141.497 104.068 141.974 105.648C142.452 107.216 143.111 108.375 143.952 109.125C144.804 109.875 145.776 110.25 146.866 110.25ZM181.929 117.955C178.759 117.943 176.02 117.21 173.713 115.756C171.406 114.301 169.628 112.205 168.378 109.466C167.128 106.727 166.509 103.443 166.52 99.6136C166.531 95.7727 167.156 92.5114 168.395 89.8295C169.645 87.1477 171.418 85.108 173.713 83.7102C176.02 82.3125 178.759 81.6136 181.929 81.6136C185.099 81.6136 187.838 82.3182 190.145 83.7273C192.452 85.125 194.23 87.1648 195.48 89.8466C196.73 92.5284 197.349 95.7841 197.338 99.6136C197.338 103.466 196.713 106.761 195.463 109.5C194.213 112.239 192.435 114.335 190.128 115.79C187.832 117.233 185.099 117.955 181.929 117.955ZM181.929 110.25C183.565 110.25 184.906 109.398 185.952 107.693C187.009 105.977 187.531 103.284 187.52 99.6136C187.52 97.2159 187.281 95.2557 186.804 93.733C186.327 92.2102 185.668 91.0852 184.827 90.358C183.986 89.6193 183.02 89.25 181.929 89.25C180.293 89.25 178.957 90.0795 177.923 91.7386C176.889 93.3977 176.361 96.0227 176.338 99.6136C176.327 102.057 176.56 104.068 177.037 105.648C177.514 107.216 178.173 108.375 179.014 109.125C179.866 109.875 180.838 110.25 181.929 110.25Z" fill="white"/>
</g>
<defs>
<filter id="filter0_d_4_11" x="24.6903" y="409.511" width="219.962" height="53.8864" filterUnits="userSpaceOnUse" color-interpolation-filters="sRGB">
<feFlood flood-opacity="0" result="BackgroundImageFix"/>
<feColorMatrix in="SourceAlpha" type="matrix" values="0 0 0 0 0 0 0 0 0 0 0 0 0 0 0 0 0 0 127 0" result="hardAlpha"/>
<feOffset dy="8"/>
<feGaussianBlur stdDeviation="6"/>
<feComposite in2="hardAlpha" operator="out"/>
<feColorMatrix type="matrix" values="0 0 0 0 0 0 0 0 0 0 0 0 0 0 0 0 0 0 0.15 0"/>
<feBlend mode="normal" in2="BackgroundImageFix" result="effect1_dropShadow_4_11"/>
<feBlend mode="normal" in="SourceGraphic" in2="effect1_dropShadow_4_11" result="shape"/>
</filter>
<filter id="filter1_d_4_11" x="30.1136" y="352.614" width="209.736" height="59.8636" filterUnits="userSpaceOnUse" color-interpolation-filters="sRGB">
<feFlood flood-opacity="0" result="BackgroundImageFix"/>
<feColorMatrix in="SourceAlpha" type="matrix" values="0 0 0 0 0 0 0 0 0 0 0 0 0 0 0 0 0 0 127 0" result="hardAlpha"/>
<feOffset dy="8"/>
<feGaussianBlur stdDeviation="6"/>
<feComposite in2="hardAlpha" operator="out"/>
<feColorMatrix type="matrix" values="0 0 0 0 0 0 0 0 0 0 0 0 0 0 0 0 0 0 0.15 0"/>
<feBlend mode="normal" in2="BackgroundImageFix" result="effect1_dropShadow_4_11"/>
<feBlend mode="normal" in="SourceGraphic" in2="effect1_dropShadow_4_11" result="shape"/>
</filter>
<filter id="filter2_d_4_11" x="60.1136" y="77.6136" width="149.241" height="60.3409" filterUnits="userSpaceOnUse" color-interpolation-filters="sRGB">
<feFlood flood-opacity="0" result="BackgroundImageFix"/>
<feColorMatrix in="SourceAlpha" type="matrix" values="0 0 0 0 0 0 0 0 0 0 0 0 0 0 0 0 0 0 127 0" result="hardAlpha"/>
<feOffset dy="8"/>
<feGaussianBlur stdDeviation="6"/>
<feComposite in2="hardAlpha" operator="out"/>
<feColorMatrix type="matrix" values="0 0 0 0 0 0 0 0 0 0 0 0 0 0 0 0 0 0 0.15 0"/>
<feBlend mode="normal" in2="BackgroundImageFix" result="effect1_dropShadow_4_11"/>
<feBlend mode="normal" in="SourceGraphic" in2="effect1_dropShadow_4_11" result="shape"/>
</filter>
<linearGradient id="paint0_linear_4_11" x1="135" y1="0" x2="251.264" y2="191.382" gradientUnits="userSpaceOnUse">
<stop stop-color="#FD4C65"/>
<stop offset="1" stop-color="#A93749"/>
</linearGradient>
<linearGradient id="paint1_linear_4_11" x1="135" y1="272" x2="149.882" y2="539.171" gradientUnits="userSpaceOnUse">
<stop stop-color="#51D91A"/>
<stop offset="1" stop-color="#0D6B3D"/>
</linearGradient>
<linearGradient id="paint2_linear_4_11" x1="110.766" y1="232" x2="110.766" y2="442.5" gradientUnits="userSpaceOnUse">
<stop stop-color="#0D6B3D"/>
<stop offset="1" stop-color="#0D6B3D" stop-opacity="0"/>
</linearGradient>
<linearGradient id="paint3_linear_4_11" x1="159.766" y1="232" x2="159.766" y2="442.5" gradientUnits="userSpaceOnUse">
<stop stop-color="#0D6B3D"/>
<stop offset="1" stop-color="#0D6B3D" stop-opacity="0"/>
</linearGradient>
<linearGradient id="paint4_linear_4_11" x1="119.5" y1="270.5" x2="119.5" y2="357" gradientUnits="userSpaceOnUse">
<stop stop-color="#0D6B3D"/>
<stop offset="1" stop-color="#0D6B3D" stop-opacity="0"/>
</linearGradient>
<linearGradient id="paint5_linear_4_11" x1="151" y1="270.5" x2="151" y2="357" gradientUnits="userSpaceOnUse">
<stop stop-color="#0D6B3D"/>
<stop offset="1" stop-color="#0D6B3D" stop-opacity="0"/>
</linearGradient>
</defs>
</svg>
