<svg width="270" height="540" viewBox="0 0 270 540" fill="none" xmlns="http://www.w3.org/2000/svg">
<path fill-rule="evenodd" clip-rule="evenodd" d="M11 9.53674e-06C11 3.97646 7.41828 7.20001 3 7.20001C1.9391 7.20001 0.926431 7.01415 0 6.67664L0 180H270V6.67664C269.074 7.01415 268.061 7.20001 267 7.20001C262.582 7.20001 259 3.97646 259 9.53674e-06H251C251 3.97646 247.418 7.20001 243 7.20001C238.582 7.20001 235 3.97646 235 9.53674e-06H227C227 3.97646 223.418 7.20001 219 7.20001C214.582 7.20001 211 3.97646 211 9.53674e-06H203C203 3.97646 199.418 7.20001 195 7.20001C190.582 7.20001 187 3.97646 187 9.53674e-06H179C179 3.97646 175.418 7.20001 171 7.20001C166.582 7.20001 163 3.97646 163 9.53674e-06H155C155 3.97646 151.418 7.20001 147 7.20001C142.582 7.20001 139 3.97646 139 9.53674e-06H131C131 3.97646 127.418 7.20001 123 7.20001C118.582 7.20001 115 3.97646 115 9.53674e-06H107C107 3.97646 103.418 7.20001 99 7.20001C94.5817 7.20001 91 3.97646 91 9.53674e-06H83C83 3.97646 79.4183 7.20001 75 7.20001C70.5817 7.20001 67 3.97646 67 9.53674e-06H59C59 3.97646 55.4183 7.20001 51 7.20001C46.5817 7.20001 43 3.97646 43 9.53674e-06H35C35 3.97646 31.4183 7.20001 27 7.20001C22.5817 7.20001 19 3.97646 19 9.53674e-06L11 0C11 3.17891e-06 11 6.35783e-06 11 9.53674e-06Z" fill="url(#paint0_linear_4_11)"/>
<g filter="url(#filter0_d_4_11)">
<path d="M89.4318 82.0909V117H79.9545V90.8182H79.75L72.1136 95.3864V87.3409L80.7045 82.0909H89.4318ZM111.804 117.955C108.634 117.943 105.895 117.21 103.588 115.756C101.281 114.301 99.5028 112.205 98.2528 109.466C97.0028 106.727 96.3835 103.443 96.3949 99.6136C96.4063 95.7727 97.0313 92.5114 98.2699 89.8295C99.5199 87.1477 101.293 85.108 103.588 83.7102C105.895 82.3125 108.634 81.6136 111.804 81.6136C114.974 81.6136 117.713 82.3182 120.02 83.7273C122.327 85.125 124.105 87.1648 125.355 89.8466C126.605 92.5284 127.224 95.7841 127.213 99.6136C127.213 103.466 126.588 106.761 125.338 109.5C124.088 112.239 122.31 114.335 120.003 115.79C117.707 117.233 114.974 117.955 111.804 117.955ZM111.804 110.25C113.44 110.25 114.781 109.398 115.827 107.693C116.884 105.977 117.406 103.284 117.395 99.6136C117.395 97.2159 117.156 95.2557 116.679 93.733C116.202 92.2102 115.543 91.0852 114.702 90.358C113.861 89.6193 112.895 89.25 111.804 89.25C110.168 89.25 108.832 90.0795 107.798 91.7386C106.764 93.3977 106.236 96.0227 106.213 99.6136C106.202 102.057 106.435 104.068 106.912 105.648C107.389 107.216 108.048 108.375 108.889 109.125C109.741 109.875 110.713 110.25 111.804 110.25ZM146.866 117.955C143.696 117.943 140.957 117.21 138.651 115.756C136.344 114.301 134.565 112.205 133.315 109.466C132.065 106.727 131.446 103.443 131.457 99.6136C131.469 95.7727 132.094 92.5114 133.332 89.8295C134.582 87.1477 136.355 85.108 138.651 83.7102C140.957 82.3125 143.696 81.6136 146.866 81.6136C150.037 81.6136 152.776 82.3182 155.082 83.7273C157.389 85.125 159.168 87.1648 160.418 89.8466C161.668 92.5284 162.287 95.7841 162.276 99.6136C162.276 103.466 161.651 106.761 160.401 109.5C159.151 112.239 157.372 114.335 155.065 115.79C152.77 117.233 150.037 117.955 146.866 117.955ZM146.866 110.25C148.503 110.25 149.844 109.398 150.889 107.693C151.946 105.977 152.469 103.284 152.457 99.6136C152.457 97.2159 152.219 95.2557 151.741 93.733C151.264 92.2102 150.605 91.0852 149.764 90.358C148.923 89.6193 147.957 89.25 146.866 89.25C145.23 89.25 143.895 90.0795 142.861 91.7386C141.827 93.3977 141.298 96.0227 141.276 99.6136C141.264 102.057 141.497 104.068 141.974 105.648C142.452 107.216 143.111 108.375 143.952 109.125C144.804 109.875 145.776 110.25 146.866 110.25ZM181.929 117.955C178.759 117.943 176.02 117.21 173.713 115.756C171.406 114.301 169.628 112.205 168.378 109.466C167.128 106.727 166.509 103.443 166.52 99.6136C166.531 95.7727 167.156 92.5114 168.395 89.8295C169.645 87.1477 171.418 85.108 173.713 83.7102C176.02 82.3125 178.759 81.6136 181.929 81.6136C185.099 81.6136 187.838 82.3182 190.145 83.7273C192.452 85.125 194.23 87.1648 195.48 89.8466C196.73 92.5284 197.349 95.7841 197.338 99.6136C197.338 103.466 196.713 106.761 195.463 109.5C194.213 112.239 192.435 114.335 190.128 115.79C187.832 117.233 185.099 117.955 181.929 117.955ZM181.929 110.25C183.565 110.25 184.906 109.398 185.952 107.693C187.009 105.977 187.531 103.284 187.52 99.6136C187.52 97.2159 187.281 95.2557 186.804 93.733C186.327 92.2102 185.668 91.0852 184.827 90.358C183.986 89.6193 183.02 89.25 181.929 89.25C180.293 89.25 178.957 90.0795 177.923 91.7386C176.889 93.3977 176.361 96.0227 176.338 99.6136C176.327 102.057 176.56 104.068 177.037 105.648C177.514 107.216 178.173 108.375 179.014 109.125C179.866 109.875 180.838 110.25 181.929 110.25Z" fill="white"/>
</g>
<path fill-rule="evenodd" clip-rule="evenodd" d="M270 180H0V532.145C0.926431 531.748 1.9391 531.529 3 531.529C7.41828 531.529 11 535.322 11 540H19C19 535.322 22.5817 531.529 27 531.529C31.4183 531.529 35 535.322 35 540H43C43 535.322 46.5817 531.529 51 531.529C55.4183 531.529 59 535.322 59 540H67C67 535.322 70.5817 531.529 75 531.529C79.4183 531.529 83 535.322 83 540H91C91 535.322 94.5817 531.529 99 531.529C103.418 531.529 107 535.322 107 540H115C115 535.322 118.582 531.529 123 531.529C127.418 531.529 131 535.322 131 540H139C139 535.322 142.582 531.529 147 531.529C151.418 531.529 155 535.322 155 540H163C163 535.322 166.582 531.529 171 531.529C175.418 531.529 179 535.322 179 540H187C187 535.322 190.582 531.529 195 531.529C199.418 531.529 203 535.322 203 540H211C211 535.322 214.582 531.529 219 531.529C223.418 531.529 227 535.322 227 540H235C235 535.322 238.582 531.529 243 531.529C247.418 531.529 251 535.322 251 540H259C259 535.322 262.582 531.529 267 531.529C268.061 531.529 269.074 531.748 270 532.145V180Z" fill="url(#paint1_linear_4_11)"/>
<rect x="3" y="172" width="8" height="8" fill="#EC433B"/>
<rect x="131" y="172" width="8" height="8" fill="#EC433B"/>
<rect x="67" y="172" width="8" height="8" fill="#EC433B"/>
<rect x="195" y="172" width="8" height="8" fill="#EC433B"/>
<rect x="35" y="172" width="8" height="8" fill="#EC433B"/>
<rect x="163" y="172" width="8" height="8" fill="#EC433B"/>
<rect x="99" y="172" width="8" height="8" fill="#EC433B"/>
<rect x="227" y="172" width="8" height="8" fill="#EC433B"/>
<rect x="19" y="172" width="8" height="8" fill="#EC433B"/>
<rect x="147" y="172" width="8" height="8" fill="#EC433B"/>
<rect x="83" y="172" width="8" height="8" fill="#EC433B"/>
<rect x="211" y="172" width="8" height="8" fill="#EC433B"/>
<rect x="51" y="172" width="8" height="8" fill="#EC433B"/>
<rect x="179" y="172" width="8" height="8" fill="#EC433B"/>
<rect x="115" y="172" width="8" height="8" fill="#EC433B"/>
<rect x="243" y="172" width="8" height="8" fill="#EC433B"/>
<rect x="259" y="172" width="8" height="8" fill="#EC433B"/>
<path opacity="0.7" d="M135 442.5L86.5 232H135C133.8 232 134.5 372.333 135 442.5Z" fill="url(#paint2_linear_4_11)"/>
<path opacity="0.7" d="M135.532 442.5L184.032 232H135.532C136.732 232 136.032 372.333 135.532 442.5Z" fill="url(#paint3_linear_4_11)"/>
<path d="M135.5 197L151.517 226.477L187.333 231.204L161.416 254.148L167.534 286.546L135.5 271.25L103.466 286.546L109.584 254.148L83.6674 231.204L119.483 226.477L135.5 197Z" fill="url(#paint4_linear_4_11)"/>
<path d="M135.5 199.094L150.638 226.954L150.882 227.402L151.386 227.468L185.028 231.908L160.753 253.399L160.328 253.776L160.434 254.334L166.186 284.794L135.931 270.348L135.5 270.142L135.069 270.348L104.814 284.794L110.566 254.334L110.672 253.776L110.247 253.399L85.9718 231.908L119.614 227.468L120.118 227.402L120.362 226.954L135.5 199.094Z" stroke="white" stroke-opacity="0.5" stroke-width="2"/>
<path opacity="0.7" d="M135.5 444.5V270.5L103.5 286L135.5 444.5Z" fill="url(#paint5_linear_4_11)"/>
<path opacity="0.7" d="M135 444.5V270.5L167 286L135 444.5Z" fill="url(#paint6_linear_4_11)"/>
<g filter="url(#filter1_d_4_11)">
<path d="M50.1136 413.909H57.8977V433.852C57.8883 435.746 57.41 437.413 56.4631 438.852C55.5256 440.282 54.2282 441.4 52.571 442.205C50.9233 443 49.0246 443.398 46.875 443.398C45.0095 443.398 43.3049 443.076 41.7614 442.432C40.2178 441.778 38.9867 440.756 38.0682 439.364C37.1496 437.962 36.6951 436.144 36.7045 433.909H44.6023C44.6307 434.638 44.7538 435.254 44.9716 435.756C45.1989 436.258 45.5114 436.636 45.9091 436.892C46.3163 437.138 46.8087 437.261 47.3864 437.261C47.9735 437.261 48.4659 437.134 48.8636 436.878C49.2708 436.622 49.5786 436.243 49.7869 435.741C49.9953 435.23 50.1042 434.6 50.1136 433.852V413.909ZM69.1974 443H60.6747L70.277 413.909H81.0724L90.6747 443H82.152L75.7884 421.92H75.5611L69.1974 443ZM67.6065 431.523H83.6293V437.432H67.6065V431.523ZM119.268 424.818H111.257C111.2 424.155 111.049 423.554 110.803 423.014C110.566 422.474 110.234 422.01 109.808 421.622C109.392 421.224 108.885 420.921 108.288 420.713C107.692 420.495 107.015 420.386 106.257 420.386C104.931 420.386 103.809 420.708 102.891 421.352C101.982 421.996 101.29 422.92 100.817 424.122C100.353 425.325 100.121 426.769 100.121 428.455C100.121 430.235 100.357 431.726 100.831 432.929C101.314 434.122 102.01 435.022 102.919 435.628C103.828 436.224 104.922 436.523 106.2 436.523C106.929 436.523 107.583 436.433 108.161 436.253C108.738 436.063 109.24 435.794 109.666 435.443C110.092 435.093 110.438 434.671 110.703 434.179C110.978 433.677 111.162 433.114 111.257 432.489L119.268 432.545C119.174 433.777 118.828 435.031 118.232 436.31C117.635 437.579 116.787 438.753 115.689 439.832C114.6 440.902 113.25 441.764 111.641 442.418C110.031 443.071 108.161 443.398 106.03 443.398C103.359 443.398 100.964 442.825 98.8423 441.679C96.7306 440.533 95.0592 438.848 93.8281 436.622C92.6065 434.397 91.9957 431.674 91.9957 428.455C91.9957 425.216 92.6207 422.489 93.8707 420.273C95.1207 418.047 96.8063 416.366 98.9276 415.23C101.049 414.084 103.416 413.511 106.03 413.511C107.867 413.511 109.557 413.762 111.101 414.264C112.644 414.766 113.999 415.5 115.163 416.466C116.328 417.422 117.266 418.601 117.976 420.003C118.686 421.404 119.117 423.009 119.268 424.818ZM122.852 443V413.909H130.749V425.67H131.147L139.897 413.909H149.102L139.272 426.864L149.329 443H139.897L133.363 432.091L130.749 435.5V443H122.852ZM151.445 443V413.909H164.002C166.161 413.909 168.05 414.335 169.67 415.188C171.289 416.04 172.549 417.238 173.448 418.781C174.348 420.325 174.798 422.129 174.798 424.193C174.798 426.277 174.334 428.08 173.406 429.605C172.487 431.13 171.194 432.304 169.528 433.128C167.871 433.952 165.934 434.364 163.718 434.364H156.218V428.227H162.127C163.055 428.227 163.846 428.066 164.499 427.744C165.162 427.413 165.669 426.944 166.019 426.338C166.379 425.732 166.559 425.017 166.559 424.193C166.559 423.36 166.379 422.65 166.019 422.062C165.669 421.466 165.162 421.011 164.499 420.699C163.846 420.377 163.055 420.216 162.127 420.216H159.343V443H151.445ZM205.877 428.455C205.877 431.693 205.247 434.425 203.988 436.651C202.728 438.866 201.029 440.547 198.888 441.693C196.748 442.83 194.362 443.398 191.729 443.398C189.078 443.398 186.682 442.825 184.542 441.679C182.411 440.524 180.716 438.838 179.457 436.622C178.207 434.397 177.582 431.674 177.582 428.455C177.582 425.216 178.207 422.489 179.457 420.273C180.716 418.047 182.411 416.366 184.542 415.23C186.682 414.084 189.078 413.511 191.729 413.511C194.362 413.511 196.748 414.084 198.888 415.23C201.029 416.366 202.728 418.047 203.988 420.273C205.247 422.489 205.877 425.216 205.877 428.455ZM197.752 428.455C197.752 426.712 197.52 425.244 197.056 424.051C196.602 422.848 195.924 421.939 195.025 421.324C194.135 420.699 193.036 420.386 191.729 420.386C190.423 420.386 189.319 420.699 188.42 421.324C187.53 421.939 186.853 422.848 186.388 424.051C185.934 425.244 185.707 426.712 185.707 428.455C185.707 430.197 185.934 431.67 186.388 432.872C186.853 434.065 187.53 434.974 188.42 435.599C189.319 436.215 190.423 436.523 191.729 436.523C193.036 436.523 194.135 436.215 195.025 435.599C195.924 434.974 196.602 434.065 197.056 432.872C197.52 431.67 197.752 430.197 197.752 428.455ZM207.369 420.273V413.909H232.653V420.273H223.903V443H216.119V420.273H207.369Z" fill="white"/>
</g>
<g filter="url(#filter2_d_4_11)">
<path d="M78.0682 368C77.9773 366.864 77.5511 365.977 76.7898 365.341C76.0398 364.705 74.8977 364.386 73.3636 364.386C72.3864 364.386 71.5852 364.506 70.9602 364.744C70.3466 364.972 69.892 365.284 69.5966 365.682C69.3011 366.08 69.1477 366.534 69.1364 367.045C69.1136 367.466 69.1875 367.847 69.358 368.188C69.5398 368.517 69.8239 368.818 70.2102 369.091C70.5966 369.352 71.0909 369.591 71.6932 369.807C72.2955 370.023 73.0114 370.216 73.8409 370.386L76.7045 371C78.6364 371.409 80.2898 371.949 81.6648 372.619C83.0398 373.29 84.1648 374.08 85.0398 374.989C85.9148 375.886 86.5568 376.898 86.9659 378.023C87.3864 379.148 87.6023 380.375 87.6136 381.705C87.6023 384 87.0284 385.943 85.892 387.534C84.7557 389.125 83.1307 390.335 81.017 391.165C78.9148 391.994 76.3864 392.409 73.4318 392.409C70.3977 392.409 67.75 391.96 65.4886 391.062C63.2386 390.165 61.4886 388.784 60.2386 386.92C59 385.045 58.375 382.648 58.3636 379.727H67.3636C67.4205 380.795 67.6875 381.693 68.1648 382.42C68.642 383.148 69.3125 383.699 70.1761 384.074C71.0511 384.449 72.0909 384.636 73.2955 384.636C74.3068 384.636 75.1534 384.511 75.8352 384.261C76.517 384.011 77.0341 383.665 77.3864 383.222C77.7386 382.778 77.9205 382.273 77.9318 381.705C77.9205 381.17 77.7443 380.705 77.4034 380.307C77.0739 379.898 76.5284 379.534 75.767 379.216C75.0057 378.886 73.9773 378.58 72.6818 378.295L69.2045 377.545C66.1136 376.875 63.6761 375.756 61.892 374.188C60.1193 372.608 59.2386 370.455 59.25 367.727C59.2386 365.511 59.8295 363.574 61.0227 361.915C62.2273 360.244 63.892 358.943 66.017 358.011C68.1534 357.08 70.6023 356.614 73.3636 356.614C76.1818 356.614 78.6193 357.085 80.6761 358.028C82.733 358.972 84.3182 360.301 85.4318 362.017C86.5568 363.722 87.125 365.716 87.1364 368H78.0682ZM125.037 374.545C125.037 378.432 124.281 381.71 122.77 384.381C121.259 387.04 119.219 389.057 116.651 390.432C114.082 391.795 111.219 392.477 108.06 392.477C104.878 392.477 102.003 391.79 99.4347 390.415C96.8778 389.028 94.8438 387.006 93.3324 384.347C91.8324 381.676 91.0824 378.409 91.0824 374.545C91.0824 370.659 91.8324 367.386 93.3324 364.727C94.8438 362.057 96.8778 360.04 99.4347 358.676C102.003 357.301 104.878 356.614 108.06 356.614C111.219 356.614 114.082 357.301 116.651 358.676C119.219 360.04 121.259 362.057 122.77 364.727C124.281 367.386 125.037 370.659 125.037 374.545ZM115.287 374.545C115.287 372.455 115.009 370.693 114.452 369.261C113.906 367.818 113.094 366.727 112.014 365.989C110.946 365.239 109.628 364.864 108.06 364.864C106.491 364.864 105.168 365.239 104.088 365.989C103.02 366.727 102.207 367.818 101.651 369.261C101.105 370.693 100.832 372.455 100.832 374.545C100.832 376.636 101.105 378.403 101.651 379.847C102.207 381.278 103.02 382.369 104.088 383.119C105.168 383.858 106.491 384.227 108.06 384.227C109.628 384.227 110.946 383.858 112.014 383.119C113.094 382.369 113.906 381.278 114.452 379.847C115.009 378.403 115.287 376.636 115.287 374.545ZM159.626 357.091V392H151.717L139.104 373.659H138.899V392H129.422V357.091H137.467L149.876 375.364H150.149V357.091H159.626ZM173.587 357.091V392H164.109V357.091H173.587ZM210.669 370.182H201.055C200.987 369.386 200.805 368.665 200.51 368.017C200.226 367.369 199.828 366.812 199.317 366.347C198.817 365.869 198.209 365.506 197.493 365.256C196.777 364.994 195.964 364.864 195.055 364.864C193.464 364.864 192.118 365.25 191.016 366.023C189.925 366.795 189.095 367.903 188.527 369.347C187.97 370.79 187.692 372.523 187.692 374.545C187.692 376.682 187.976 378.472 188.544 379.915C189.124 381.347 189.959 382.426 191.05 383.153C192.141 383.869 193.453 384.227 194.987 384.227C195.862 384.227 196.646 384.119 197.339 383.903C198.033 383.676 198.635 383.352 199.146 382.932C199.658 382.511 200.072 382.006 200.391 381.415C200.72 380.812 200.942 380.136 201.055 379.386L210.669 379.455C210.555 380.932 210.141 382.437 209.425 383.972C208.709 385.494 207.692 386.903 206.374 388.199C205.067 389.483 203.447 390.517 201.516 391.301C199.584 392.085 197.339 392.477 194.783 392.477C191.578 392.477 188.703 391.79 186.158 390.415C183.624 389.04 181.618 387.017 180.141 384.347C178.675 381.676 177.942 378.409 177.942 374.545C177.942 370.659 178.692 367.386 180.192 364.727C181.692 362.057 183.714 360.04 186.26 358.676C188.805 357.301 191.646 356.614 194.783 356.614C196.987 356.614 199.016 356.915 200.868 357.517C202.72 358.119 204.345 359 205.743 360.159C207.141 361.307 208.266 362.722 209.118 364.403C209.97 366.085 210.487 368.011 210.669 370.182Z" fill="white"/>
</g>
<path d="M135.5 464L142.113 475.91L156.899 477.82L146.199 487.09L148.725 500.18L135.5 494L122.275 500.18L124.801 487.09L114.101 477.82L128.887 475.91L135.5 464Z" fill="url(#paint7_linear_4_11)"/>
<path d="M135.5 466.06L141.238 476.395L141.484 476.837L141.984 476.902L154.557 478.526L145.545 486.334L145.108 486.713L145.217 487.28L147.372 498.444L135.923 493.094L135.5 492.896L135.077 493.094L123.628 498.444L125.783 487.28L125.892 486.713L125.455 486.334L116.443 478.526L129.016 476.902L129.516 476.837L129.762 476.395L135.5 466.06Z" stroke="white" stroke-opacity="0.5" stroke-width="2"/>
<path d="M190.5 464L197.113 475.91L211.899 477.82L201.199 487.09L203.725 500.18L190.5 494L177.275 500.18L179.801 487.09L169.101 477.82L183.887 475.91L190.5 464Z" fill="url(#paint8_linear_4_11)"/>
<path d="M190.5 466.06L196.238 476.395L196.484 476.837L196.984 476.902L209.557 478.526L200.545 486.334L200.108 486.713L200.217 487.28L202.372 498.444L190.923 493.094L190.5 492.896L190.077 493.094L178.628 498.444L180.783 487.28L180.892 486.713L180.455 486.334L171.443 478.526L184.016 476.902L184.516 476.837L184.762 476.395L190.5 466.06Z" stroke="white" stroke-opacity="0.5" stroke-width="2"/>
<path d="M80.5 464L87.1126 475.91L101.899 477.82L91.1994 487.09L93.7252 500.18L80.5 494L67.2748 500.18L69.8006 487.09L59.1012 477.82L73.8874 475.91L80.5 464Z" fill="url(#paint9_linear_4_11)"/>
<path d="M80.5 466.06L86.2383 476.395L86.4835 476.837L86.9845 476.902L99.557 478.526L90.5445 486.334L90.1081 486.713L90.2175 487.28L92.3717 498.444L80.9234 493.094L80.5 492.896L80.0766 493.094L68.6283 498.444L70.7825 487.28L70.8919 486.713L70.4555 486.334L61.443 478.526L74.0155 476.902L74.5165 476.837L74.7617 476.395L80.5 466.06Z" stroke="white" stroke-opacity="0.5" stroke-width="2"/>
<defs>
<filter id="filter0_d_4_11" x="60.1136" y="77.6136" width="149.241" height="60.3409" filterUnits="userSpaceOnUse" color-interpolation-filters="sRGB">
<feFlood flood-opacity="0" result="BackgroundImageFix"/>
<feColorMatrix in="SourceAlpha" type="matrix" values="0 0 0 0 0 0 0 0 0 0 0 0 0 0 0 0 0 0 127 0" result="hardAlpha"/>
<feOffset dy="8"/>
<feGaussianBlur stdDeviation="6"/>
<feComposite in2="hardAlpha" operator="out"/>
<feColorMatrix type="matrix" values="0 0 0 0 0 0 0 0 0 0 0 0 0 0 0 0 0 0 0.15 0"/>
<feBlend mode="normal" in2="BackgroundImageFix" result="effect1_dropShadow_4_11"/>
<feBlend mode="normal" in="SourceGraphic" in2="effect1_dropShadow_4_11" result="shape"/>
</filter>
<filter id="filter1_d_4_11" x="24.6903" y="409.511" width="219.962" height="53.8864" filterUnits="userSpaceOnUse" color-interpolation-filters="sRGB">
<feFlood flood-opacity="0" result="BackgroundImageFix"/>
<feColorMatrix in="SourceAlpha" type="matrix" values="0 0 0 0 0 0 0 0 0 0 0 0 0 0 0 0 0 0 127 0" result="hardAlpha"/>
<feOffset dy="8"/>
<feGaussianBlur stdDeviation="6"/>
<feComposite in2="hardAlpha" operator="out"/>
<feColorMatrix type="matrix" values="0 0 0 0 0 0 0 0 0 0 0 0 0 0 0 0 0 0 0.15 0"/>
<feBlend mode="normal" in2="BackgroundImageFix" result="effect1_dropShadow_4_11"/>
<feBlend mode="normal" in="SourceGraphic" in2="effect1_dropShadow_4_11" result="shape"/>
</filter>
<filter id="filter2_d_4_11" x="46.3636" y="352.614" width="176.305" height="59.8636" filterUnits="userSpaceOnUse" color-interpolation-filters="sRGB">
<feFlood flood-opacity="0" result="BackgroundImageFix"/>
<feColorMatrix in="SourceAlpha" type="matrix" values="0 0 0 0 0 0 0 0 0 0 0 0 0 0 0 0 0 0 127 0" result="hardAlpha"/>
<feOffset dy="8"/>
<feGaussianBlur stdDeviation="6"/>
<feComposite in2="hardAlpha" operator="out"/>
<feColorMatrix type="matrix" values="0 0 0 0 0 0 0 0 0 0 0 0 0 0 0 0 0 0 0.15 0"/>
<feBlend mode="normal" in2="BackgroundImageFix" result="effect1_dropShadow_4_11"/>
<feBlend mode="normal" in="SourceGraphic" in2="effect1_dropShadow_4_11" result="shape"/>
</filter>
<linearGradient id="paint0_linear_4_11" x1="135" y1="0" x2="251.264" y2="191.382" gradientUnits="userSpaceOnUse">
<stop stop-color="#F8BC5C"/>
<stop offset="1" stop-color="#FD8620"/>
</linearGradient>
<linearGradient id="paint1_linear_4_11" x1="0" y1="180" x2="289.156" y2="523.893" gradientUnits="userSpaceOnUse">
<stop stop-color="#F44430"/>
<stop offset="1" stop-color="#DD4352"/>
</linearGradient>
<linearGradient id="paint2_linear_4_11" x1="110.766" y1="232" x2="110.766" y2="442.5" gradientUnits="userSpaceOnUse">
<stop stop-color="#6F3A17"/>
<stop offset="1" stop-color="#D56F2C" stop-opacity="0"/>
</linearGradient>
<linearGradient id="paint3_linear_4_11" x1="159.766" y1="232" x2="159.766" y2="442.5" gradientUnits="userSpaceOnUse">
<stop stop-color="#6F3A17"/>
<stop offset="1" stop-color="#D56F2C" stop-opacity="0"/>
</linearGradient>
<linearGradient id="paint4_linear_4_11" x1="135.5" y1="212" x2="135.5" y2="279" gradientUnits="userSpaceOnUse">
<stop stop-color="#E19920"/>
<stop offset="0.5" stop-color="#FEFEF3"/>
<stop offset="1" stop-color="#FFD73C"/>
</linearGradient>
<linearGradient id="paint5_linear_4_11" x1="119.5" y1="270.5" x2="119.5" y2="357" gradientUnits="userSpaceOnUse">
<stop stop-color="#94431F"/>
<stop offset="1" stop-color="#2E150A" stop-opacity="0"/>
</linearGradient>
<linearGradient id="paint6_linear_4_11" x1="151" y1="270.5" x2="151" y2="357" gradientUnits="userSpaceOnUse">
<stop stop-color="#FD8620"/>
<stop offset="1" stop-color="#975013" stop-opacity="0"/>
</linearGradient>
<linearGradient id="paint7_linear_4_11" x1="135.5" y1="470.061" x2="135.5" y2="497.131" gradientUnits="userSpaceOnUse">
<stop stop-color="#E19920"/>
<stop offset="0.5" stop-color="#FEFEF3"/>
<stop offset="1" stop-color="#FFD73C"/>
</linearGradient>
<linearGradient id="paint8_linear_4_11" x1="190.5" y1="470.061" x2="190.5" y2="497.131" gradientUnits="userSpaceOnUse">
<stop stop-color="#E19920"/>
<stop offset="0.5" stop-color="#FEFEF3"/>
<stop offset="1" stop-color="#FFD73C"/>
</linearGradient>
<linearGradient id="paint9_linear_4_11" x1="80.5" y1="470.061" x2="80.5" y2="497.131" gradientUnits="userSpaceOnUse">
<stop stop-color="#E19920"/>
<stop offset="0.5" stop-color="#FEFEF3"/>
<stop offset="1" stop-color="#FFD73C"/>
</linearGradient>
</defs>
</svg>
